G04 EAGLE Gerber RS-274X export*
G75*
%MOMM*%
%FSLAX34Y34*%
%LPD*%
%INSolder side*%
%IPPOS*%
%AMOC8*
5,1,8,0,0,1.08239X$1,22.5*%
G01*
%ADD10P,0.730613X8X22.500000*%
%ADD11C,0.254000*%
%ADD12C,0.609600*%
%ADD13P,0.649434X8X22.500000*%
%ADD14C,0.406400*%
%ADD15C,0.304800*%

G36*
X1564064Y5010D02*
X1564064Y5010D01*
X1564128Y5009D01*
X1564203Y5030D01*
X1564279Y5041D01*
X1564338Y5067D01*
X1564400Y5084D01*
X1564466Y5125D01*
X1564536Y5157D01*
X1564585Y5199D01*
X1564640Y5232D01*
X1564692Y5290D01*
X1564750Y5340D01*
X1564786Y5394D01*
X1564829Y5442D01*
X1564862Y5511D01*
X1564905Y5576D01*
X1564924Y5638D01*
X1564952Y5695D01*
X1564963Y5765D01*
X1564987Y5846D01*
X1564988Y5931D01*
X1564999Y6000D01*
X1564999Y114000D01*
X1564990Y114064D01*
X1564991Y114128D01*
X1564970Y114203D01*
X1564959Y114279D01*
X1564933Y114338D01*
X1564916Y114400D01*
X1564875Y114466D01*
X1564843Y114536D01*
X1564801Y114585D01*
X1564768Y114640D01*
X1564710Y114692D01*
X1564660Y114750D01*
X1564606Y114786D01*
X1564558Y114829D01*
X1564489Y114862D01*
X1564424Y114905D01*
X1564362Y114924D01*
X1564305Y114952D01*
X1564235Y114963D01*
X1564154Y114987D01*
X1564069Y114988D01*
X1564000Y114999D01*
X1487929Y114999D01*
X1484999Y117929D01*
X1484999Y194000D01*
X1484990Y194064D01*
X1484991Y194128D01*
X1484970Y194203D01*
X1484959Y194279D01*
X1484933Y194338D01*
X1484916Y194400D01*
X1484875Y194466D01*
X1484843Y194536D01*
X1484801Y194585D01*
X1484768Y194640D01*
X1484710Y194692D01*
X1484660Y194750D01*
X1484606Y194786D01*
X1484558Y194829D01*
X1484489Y194862D01*
X1484424Y194905D01*
X1484362Y194924D01*
X1484305Y194952D01*
X1484235Y194963D01*
X1484154Y194987D01*
X1484069Y194988D01*
X1484000Y194999D01*
X6000Y194999D01*
X5936Y194990D01*
X5872Y194991D01*
X5797Y194970D01*
X5721Y194959D01*
X5662Y194933D01*
X5600Y194916D01*
X5534Y194875D01*
X5464Y194843D01*
X5415Y194801D01*
X5360Y194768D01*
X5308Y194710D01*
X5250Y194660D01*
X5214Y194606D01*
X5171Y194558D01*
X5138Y194489D01*
X5095Y194424D01*
X5076Y194362D01*
X5048Y194305D01*
X5037Y194235D01*
X5013Y194154D01*
X5012Y194069D01*
X5001Y194000D01*
X5001Y6000D01*
X5010Y5936D01*
X5009Y5872D01*
X5030Y5797D01*
X5041Y5721D01*
X5067Y5662D01*
X5084Y5600D01*
X5125Y5534D01*
X5157Y5464D01*
X5199Y5415D01*
X5232Y5360D01*
X5290Y5308D01*
X5340Y5250D01*
X5394Y5214D01*
X5442Y5171D01*
X5511Y5138D01*
X5576Y5095D01*
X5638Y5076D01*
X5695Y5048D01*
X5765Y5037D01*
X5846Y5013D01*
X5931Y5012D01*
X6000Y5001D01*
X1564000Y5001D01*
X1564064Y5010D01*
G37*
%LPC*%
G36*
X226373Y30184D02*
X226373Y30184D01*
X223224Y33333D01*
X223224Y37787D01*
X226373Y40936D01*
X227859Y40936D01*
X227954Y40949D01*
X228050Y40954D01*
X228093Y40969D01*
X228138Y40976D01*
X228225Y41015D01*
X228316Y41047D01*
X228351Y41072D01*
X228395Y41092D01*
X228492Y41175D01*
X228565Y41228D01*
X237478Y50141D01*
X237498Y50167D01*
X237522Y50188D01*
X237582Y50280D01*
X237648Y50367D01*
X237659Y50397D01*
X237677Y50424D01*
X237709Y50529D01*
X237747Y50631D01*
X237750Y50663D01*
X237759Y50694D01*
X237760Y50803D01*
X237769Y50912D01*
X237762Y50944D01*
X237763Y50976D01*
X237734Y51081D01*
X237711Y51188D01*
X237696Y51217D01*
X237688Y51248D01*
X237630Y51341D01*
X237579Y51437D01*
X237556Y51460D01*
X237539Y51488D01*
X237458Y51561D01*
X237382Y51639D01*
X237354Y51655D01*
X237330Y51677D01*
X237232Y51724D01*
X237137Y51778D01*
X237105Y51786D01*
X237076Y51800D01*
X236987Y51814D01*
X236862Y51843D01*
X236814Y51841D01*
X236772Y51847D01*
X118924Y51847D01*
X118829Y51834D01*
X118733Y51829D01*
X118690Y51814D01*
X118645Y51807D01*
X118558Y51768D01*
X118467Y51736D01*
X118432Y51711D01*
X118388Y51691D01*
X118291Y51608D01*
X118218Y51555D01*
X109808Y43145D01*
X109751Y43068D01*
X109686Y42997D01*
X109666Y42956D01*
X109639Y42920D01*
X109605Y42830D01*
X109563Y42743D01*
X109557Y42701D01*
X109540Y42656D01*
X109530Y42528D01*
X109516Y42439D01*
X109516Y40953D01*
X106367Y37804D01*
X101913Y37804D01*
X98764Y40953D01*
X98764Y45407D01*
X101913Y48556D01*
X103399Y48556D01*
X103494Y48569D01*
X103590Y48574D01*
X103633Y48589D01*
X103678Y48596D01*
X103765Y48635D01*
X103856Y48667D01*
X103891Y48692D01*
X103935Y48712D01*
X104032Y48795D01*
X104105Y48848D01*
X115170Y59913D01*
X599896Y59913D01*
X599991Y59926D01*
X600087Y59931D01*
X600130Y59946D01*
X600175Y59953D01*
X600262Y59992D01*
X600353Y60024D01*
X600388Y60049D01*
X600432Y60069D01*
X600529Y60152D01*
X600602Y60205D01*
X607081Y66684D01*
X607138Y66761D01*
X607203Y66832D01*
X607223Y66873D01*
X607250Y66909D01*
X607284Y66999D01*
X607326Y67086D01*
X607332Y67128D01*
X607349Y67173D01*
X607359Y67301D01*
X607373Y67390D01*
X607373Y124300D01*
X637327Y154254D01*
X637384Y154331D01*
X637449Y154402D01*
X637469Y154443D01*
X637496Y154479D01*
X637530Y154569D01*
X637572Y154656D01*
X637578Y154698D01*
X637595Y154743D01*
X637605Y154871D01*
X637619Y154960D01*
X637619Y155915D01*
X640549Y158845D01*
X644691Y158845D01*
X647621Y155915D01*
X647621Y151773D01*
X644691Y148843D01*
X643736Y148843D01*
X643641Y148830D01*
X643545Y148825D01*
X643502Y148810D01*
X643457Y148803D01*
X643370Y148764D01*
X643279Y148732D01*
X643244Y148707D01*
X643200Y148687D01*
X643103Y148604D01*
X643030Y148551D01*
X615731Y121252D01*
X615674Y121175D01*
X615609Y121104D01*
X615589Y121063D01*
X615562Y121027D01*
X615528Y120937D01*
X615486Y120850D01*
X615480Y120808D01*
X615463Y120763D01*
X615453Y120635D01*
X615439Y120546D01*
X615439Y84434D01*
X615443Y84402D01*
X615441Y84369D01*
X615463Y84262D01*
X615479Y84154D01*
X615492Y84125D01*
X615498Y84093D01*
X615550Y83997D01*
X615595Y83897D01*
X615616Y83873D01*
X615631Y83844D01*
X615707Y83766D01*
X615778Y83683D01*
X615805Y83665D01*
X615828Y83642D01*
X615922Y83589D01*
X616014Y83529D01*
X616045Y83519D01*
X616073Y83503D01*
X616179Y83478D01*
X616284Y83446D01*
X616316Y83446D01*
X616347Y83438D01*
X616457Y83444D01*
X616566Y83443D01*
X616597Y83451D01*
X616629Y83453D01*
X616732Y83489D01*
X616838Y83518D01*
X616865Y83535D01*
X616896Y83545D01*
X616969Y83599D01*
X617078Y83666D01*
X617110Y83702D01*
X617145Y83727D01*
X617533Y84116D01*
X621987Y84116D01*
X625136Y80967D01*
X625136Y76513D01*
X624085Y75463D01*
X624028Y75386D01*
X623963Y75315D01*
X623943Y75274D01*
X623916Y75237D01*
X623882Y75147D01*
X623840Y75061D01*
X623834Y75019D01*
X623817Y74974D01*
X623807Y74846D01*
X623793Y74756D01*
X623793Y61830D01*
X606190Y44227D01*
X243384Y44227D01*
X243289Y44214D01*
X243193Y44209D01*
X243150Y44194D01*
X243105Y44187D01*
X243018Y44148D01*
X242927Y44116D01*
X242892Y44091D01*
X242848Y44071D01*
X242751Y43988D01*
X242678Y43935D01*
X234268Y35525D01*
X234211Y35448D01*
X234146Y35377D01*
X234126Y35336D01*
X234099Y35300D01*
X234065Y35210D01*
X234023Y35123D01*
X234017Y35081D01*
X234000Y35036D01*
X233990Y34908D01*
X233976Y34819D01*
X233976Y33333D01*
X230827Y30184D01*
X226373Y30184D01*
G37*
%LPD*%
%LPC*%
G36*
X35873Y53044D02*
X35873Y53044D01*
X32724Y56193D01*
X32724Y60647D01*
X35873Y63796D01*
X40327Y63796D01*
X42139Y61983D01*
X42216Y61926D01*
X42287Y61861D01*
X42328Y61841D01*
X42365Y61814D01*
X42455Y61780D01*
X42541Y61738D01*
X42583Y61732D01*
X42628Y61715D01*
X42756Y61705D01*
X42846Y61691D01*
X58430Y61691D01*
X58525Y61704D01*
X58621Y61709D01*
X58664Y61724D01*
X58709Y61731D01*
X58796Y61770D01*
X58887Y61802D01*
X58922Y61827D01*
X58966Y61847D01*
X59063Y61930D01*
X59136Y61983D01*
X69553Y72400D01*
X92760Y72400D01*
X92855Y72413D01*
X92951Y72418D01*
X92995Y72433D01*
X93040Y72440D01*
X93127Y72479D01*
X93218Y72511D01*
X93252Y72536D01*
X93296Y72556D01*
X93394Y72639D01*
X93467Y72692D01*
X122819Y102045D01*
X186191Y102045D01*
X186286Y102058D01*
X186382Y102063D01*
X186426Y102078D01*
X186471Y102085D01*
X186558Y102124D01*
X186649Y102156D01*
X186683Y102181D01*
X186727Y102201D01*
X186825Y102284D01*
X186898Y102337D01*
X193982Y109422D01*
X194021Y109473D01*
X194067Y109518D01*
X194105Y109586D01*
X194152Y109648D01*
X194174Y109708D01*
X194206Y109764D01*
X194224Y109839D01*
X194251Y109911D01*
X194256Y109975D01*
X194271Y110038D01*
X194267Y110115D01*
X194273Y110193D01*
X194260Y110256D01*
X194257Y110320D01*
X194231Y110393D01*
X194215Y110469D01*
X194185Y110525D01*
X194164Y110586D01*
X194123Y110643D01*
X194083Y110718D01*
X194024Y110778D01*
X193982Y110835D01*
X192744Y112073D01*
X192744Y116527D01*
X195893Y119676D01*
X200347Y119676D01*
X203496Y116527D01*
X203496Y112073D01*
X201683Y110261D01*
X201626Y110184D01*
X201561Y110113D01*
X201541Y110072D01*
X201514Y110035D01*
X201480Y109945D01*
X201438Y109859D01*
X201432Y109817D01*
X201415Y109772D01*
X201405Y109644D01*
X201391Y109554D01*
X201391Y107579D01*
X199182Y105371D01*
X193022Y99211D01*
X193003Y99185D01*
X192978Y99164D01*
X192918Y99072D01*
X192853Y98985D01*
X192841Y98955D01*
X192824Y98928D01*
X192792Y98823D01*
X192753Y98721D01*
X192751Y98689D01*
X192741Y98658D01*
X192740Y98549D01*
X192731Y98440D01*
X192738Y98408D01*
X192738Y98376D01*
X192767Y98271D01*
X192789Y98164D01*
X192804Y98135D01*
X192813Y98104D01*
X192870Y98011D01*
X192922Y97915D01*
X192944Y97892D01*
X192961Y97864D01*
X193042Y97791D01*
X193118Y97713D01*
X193146Y97697D01*
X193170Y97675D01*
X193269Y97628D01*
X193364Y97574D01*
X193395Y97566D01*
X193424Y97552D01*
X193513Y97538D01*
X193638Y97509D01*
X193687Y97511D01*
X193729Y97505D01*
X317509Y97505D01*
X317604Y97518D01*
X317700Y97523D01*
X317744Y97538D01*
X317789Y97545D01*
X317876Y97584D01*
X317967Y97616D01*
X318001Y97641D01*
X318045Y97661D01*
X318143Y97744D01*
X318216Y97797D01*
X349206Y128788D01*
X354530Y128788D01*
X354625Y128801D01*
X354722Y128806D01*
X354765Y128821D01*
X354810Y128828D01*
X354897Y128867D01*
X354988Y128899D01*
X355022Y128924D01*
X355067Y128944D01*
X355164Y129027D01*
X355237Y129080D01*
X357437Y131281D01*
X361891Y131281D01*
X365040Y128132D01*
X365040Y123678D01*
X361891Y120529D01*
X359943Y120529D01*
X359879Y120520D01*
X359815Y120521D01*
X359740Y120500D01*
X359664Y120489D01*
X359605Y120463D01*
X359543Y120446D01*
X359477Y120405D01*
X359407Y120373D01*
X359358Y120331D01*
X359303Y120298D01*
X359251Y120240D01*
X359193Y120190D01*
X359157Y120136D01*
X359114Y120088D01*
X359081Y120019D01*
X359038Y119954D01*
X359019Y119892D01*
X358991Y119835D01*
X358980Y119765D01*
X358956Y119684D01*
X358955Y119599D01*
X358944Y119530D01*
X358944Y116645D01*
X355795Y113496D01*
X353232Y113496D01*
X353137Y113483D01*
X353041Y113478D01*
X352997Y113463D01*
X352952Y113456D01*
X352865Y113417D01*
X352774Y113385D01*
X352740Y113360D01*
X352696Y113340D01*
X352598Y113257D01*
X352525Y113204D01*
X314791Y75469D01*
X127677Y75469D01*
X126011Y77136D01*
X125934Y77193D01*
X125863Y77258D01*
X125822Y77278D01*
X125785Y77305D01*
X125695Y77339D01*
X125609Y77381D01*
X125567Y77387D01*
X125521Y77404D01*
X125394Y77414D01*
X125304Y77428D01*
X122741Y77428D01*
X119588Y80582D01*
X119590Y80614D01*
X119568Y80721D01*
X119552Y80830D01*
X119539Y80859D01*
X119533Y80891D01*
X119481Y80987D01*
X119436Y81087D01*
X119415Y81111D01*
X119400Y81139D01*
X119324Y81218D01*
X119253Y81301D01*
X119226Y81318D01*
X119203Y81342D01*
X119108Y81395D01*
X119017Y81455D01*
X118986Y81465D01*
X118958Y81481D01*
X118851Y81506D01*
X118747Y81538D01*
X118715Y81538D01*
X118684Y81546D01*
X118574Y81540D01*
X118465Y81541D01*
X118434Y81533D01*
X118402Y81531D01*
X118299Y81495D01*
X118193Y81466D01*
X118166Y81449D01*
X118135Y81439D01*
X118062Y81385D01*
X117953Y81318D01*
X117921Y81282D01*
X117886Y81257D01*
X95843Y59213D01*
X78406Y59213D01*
X78311Y59200D01*
X78214Y59195D01*
X78171Y59180D01*
X78126Y59173D01*
X78039Y59134D01*
X77948Y59102D01*
X77914Y59077D01*
X77869Y59057D01*
X77772Y58974D01*
X77699Y58921D01*
X75887Y57108D01*
X71433Y57108D01*
X68179Y60362D01*
X68128Y60401D01*
X68083Y60447D01*
X68016Y60485D01*
X67954Y60532D01*
X67894Y60554D01*
X67838Y60586D01*
X67762Y60604D01*
X67690Y60631D01*
X67626Y60636D01*
X67563Y60651D01*
X67486Y60647D01*
X67409Y60653D01*
X67346Y60640D01*
X67282Y60636D01*
X67208Y60611D01*
X67133Y60595D01*
X67076Y60565D01*
X67015Y60544D01*
X66959Y60503D01*
X66884Y60463D01*
X66823Y60404D01*
X66766Y60362D01*
X61553Y55149D01*
X42846Y55149D01*
X42751Y55136D01*
X42654Y55131D01*
X42611Y55116D01*
X42566Y55109D01*
X42479Y55070D01*
X42388Y55038D01*
X42354Y55013D01*
X42309Y54993D01*
X42212Y54910D01*
X42139Y54857D01*
X40327Y53044D01*
X35873Y53044D01*
G37*
%LPD*%
%LPC*%
G36*
X181415Y180298D02*
X181415Y180298D01*
X180263Y181451D01*
X180186Y181508D01*
X180115Y181573D01*
X180074Y181593D01*
X180037Y181620D01*
X179947Y181654D01*
X179861Y181696D01*
X179819Y181702D01*
X179774Y181719D01*
X179646Y181729D01*
X179556Y181743D01*
X175914Y181743D01*
X175819Y181730D01*
X175722Y181725D01*
X175679Y181710D01*
X175634Y181703D01*
X175547Y181664D01*
X175456Y181632D01*
X175422Y181607D01*
X175377Y181587D01*
X175280Y181504D01*
X175207Y181451D01*
X174439Y180682D01*
X169985Y180682D01*
X166836Y183831D01*
X166836Y188285D01*
X169985Y191434D01*
X170034Y191434D01*
X170129Y191447D01*
X170225Y191452D01*
X170268Y191467D01*
X170313Y191474D01*
X170401Y191513D01*
X170491Y191545D01*
X170526Y191570D01*
X170570Y191590D01*
X170667Y191673D01*
X170740Y191726D01*
X170855Y191841D01*
X736151Y191841D01*
X736723Y191269D01*
X736799Y191212D01*
X736871Y191147D01*
X736912Y191127D01*
X736948Y191100D01*
X737038Y191066D01*
X737125Y191024D01*
X737167Y191018D01*
X737212Y191001D01*
X737340Y190991D01*
X737429Y190977D01*
X741252Y190977D01*
X741347Y190990D01*
X741444Y190995D01*
X741487Y191010D01*
X741532Y191017D01*
X741619Y191056D01*
X741710Y191088D01*
X741744Y191113D01*
X741789Y191133D01*
X741886Y191216D01*
X741959Y191269D01*
X741993Y191304D01*
X746447Y191304D01*
X749596Y188155D01*
X749596Y183701D01*
X746447Y180552D01*
X741993Y180552D01*
X741959Y180587D01*
X741882Y180644D01*
X741811Y180709D01*
X741770Y180729D01*
X741733Y180756D01*
X741643Y180790D01*
X741557Y180832D01*
X741515Y180838D01*
X741470Y180855D01*
X741342Y180865D01*
X741252Y180879D01*
X736390Y180879D01*
X736295Y180866D01*
X736198Y180861D01*
X736155Y180846D01*
X736110Y180839D01*
X736023Y180800D01*
X735932Y180768D01*
X735898Y180743D01*
X735853Y180723D01*
X735806Y180682D01*
X731325Y180682D01*
X730557Y181451D01*
X730480Y181508D01*
X730409Y181573D01*
X730368Y181593D01*
X730331Y181620D01*
X730241Y181654D01*
X730155Y181696D01*
X730113Y181702D01*
X730068Y181719D01*
X729940Y181729D01*
X729850Y181743D01*
X187728Y181743D01*
X187633Y181730D01*
X187536Y181725D01*
X187493Y181710D01*
X187448Y181703D01*
X187361Y181664D01*
X187270Y181632D01*
X187236Y181607D01*
X187191Y181587D01*
X187094Y181504D01*
X187021Y181451D01*
X185869Y180298D01*
X181415Y180298D01*
G37*
%LPD*%
G36*
X311762Y82024D02*
X311762Y82024D01*
X311858Y82029D01*
X311902Y82044D01*
X311947Y82051D01*
X312034Y82090D01*
X312125Y82122D01*
X312159Y82147D01*
X312203Y82167D01*
X312301Y82250D01*
X312374Y82303D01*
X319328Y89257D01*
X319339Y89272D01*
X319345Y89277D01*
X319351Y89286D01*
X319372Y89304D01*
X319432Y89396D01*
X319497Y89483D01*
X319509Y89513D01*
X319526Y89540D01*
X319558Y89645D01*
X319597Y89747D01*
X319599Y89779D01*
X319609Y89810D01*
X319610Y89919D01*
X319619Y90028D01*
X319612Y90060D01*
X319612Y90092D01*
X319583Y90197D01*
X319561Y90304D01*
X319546Y90333D01*
X319537Y90364D01*
X319480Y90457D01*
X319428Y90553D01*
X319406Y90576D01*
X319389Y90604D01*
X319308Y90677D01*
X319232Y90755D01*
X319204Y90771D01*
X319180Y90793D01*
X319081Y90840D01*
X318986Y90894D01*
X318955Y90902D01*
X318926Y90916D01*
X318837Y90930D01*
X318712Y90959D01*
X318663Y90957D01*
X318621Y90963D01*
X128007Y90963D01*
X127912Y90950D01*
X127816Y90945D01*
X127772Y90930D01*
X127727Y90923D01*
X127640Y90884D01*
X127549Y90852D01*
X127515Y90827D01*
X127471Y90807D01*
X127373Y90724D01*
X127300Y90671D01*
X126515Y89886D01*
X126496Y89860D01*
X126471Y89839D01*
X126411Y89747D01*
X126346Y89660D01*
X126334Y89630D01*
X126317Y89603D01*
X126285Y89498D01*
X126246Y89396D01*
X126244Y89364D01*
X126234Y89333D01*
X126233Y89224D01*
X126224Y89115D01*
X126231Y89083D01*
X126231Y89051D01*
X126260Y88946D01*
X126282Y88839D01*
X126297Y88810D01*
X126306Y88779D01*
X126363Y88686D01*
X126415Y88590D01*
X126437Y88567D01*
X126454Y88539D01*
X126535Y88466D01*
X126611Y88388D01*
X126639Y88372D01*
X126663Y88350D01*
X126761Y88303D01*
X126857Y88249D01*
X126888Y88241D01*
X126917Y88227D01*
X127006Y88213D01*
X127131Y88184D01*
X127179Y88186D01*
X127190Y88185D01*
X130344Y85031D01*
X130344Y83010D01*
X130353Y82946D01*
X130352Y82882D01*
X130373Y82807D01*
X130384Y82731D01*
X130410Y82672D01*
X130427Y82610D01*
X130468Y82544D01*
X130500Y82474D01*
X130542Y82425D01*
X130575Y82370D01*
X130633Y82318D01*
X130683Y82260D01*
X130737Y82224D01*
X130785Y82181D01*
X130854Y82148D01*
X130919Y82105D01*
X130981Y82086D01*
X131038Y82058D01*
X131108Y82047D01*
X131189Y82023D01*
X131274Y82022D01*
X131343Y82011D01*
X311667Y82011D01*
X311762Y82024D01*
G37*
%LPC*%
G36*
X1332101Y136036D02*
X1332101Y136036D01*
X1328952Y139185D01*
X1328952Y143639D01*
X1332101Y146788D01*
X1334305Y146788D01*
X1334400Y146801D01*
X1334496Y146806D01*
X1334539Y146821D01*
X1334584Y146828D01*
X1334672Y146867D01*
X1334763Y146899D01*
X1334797Y146924D01*
X1334841Y146944D01*
X1334938Y147027D01*
X1335012Y147081D01*
X1348936Y161005D01*
X1435938Y161005D01*
X1436002Y161014D01*
X1436066Y161013D01*
X1436141Y161034D01*
X1436217Y161045D01*
X1436276Y161071D01*
X1436338Y161088D01*
X1436404Y161129D01*
X1436474Y161161D01*
X1436523Y161203D01*
X1436578Y161236D01*
X1436630Y161294D01*
X1436688Y161344D01*
X1436724Y161398D01*
X1436767Y161446D01*
X1436800Y161515D01*
X1436843Y161580D01*
X1436862Y161642D01*
X1436890Y161699D01*
X1436901Y161769D01*
X1436925Y161850D01*
X1436926Y161935D01*
X1436937Y162004D01*
X1436937Y166244D01*
X1438556Y167863D01*
X1478944Y167863D01*
X1480563Y166244D01*
X1480563Y151256D01*
X1478944Y149637D01*
X1438556Y149637D01*
X1436937Y151256D01*
X1436937Y152956D01*
X1436929Y153014D01*
X1436929Y153018D01*
X1436928Y153021D01*
X1436929Y153084D01*
X1436908Y153159D01*
X1436897Y153235D01*
X1436871Y153294D01*
X1436854Y153356D01*
X1436813Y153422D01*
X1436781Y153492D01*
X1436739Y153541D01*
X1436706Y153596D01*
X1436648Y153648D01*
X1436598Y153706D01*
X1436544Y153742D01*
X1436496Y153785D01*
X1436427Y153818D01*
X1436362Y153861D01*
X1436300Y153880D01*
X1436243Y153908D01*
X1436173Y153919D01*
X1436092Y153943D01*
X1436007Y153944D01*
X1435938Y153955D01*
X1352270Y153955D01*
X1352175Y153942D01*
X1352078Y153937D01*
X1352035Y153922D01*
X1351990Y153915D01*
X1351903Y153876D01*
X1351812Y153844D01*
X1351778Y153819D01*
X1351733Y153799D01*
X1351636Y153716D01*
X1351563Y153663D01*
X1339996Y142096D01*
X1339939Y142019D01*
X1339874Y141948D01*
X1339854Y141907D01*
X1339827Y141870D01*
X1339793Y141780D01*
X1339751Y141694D01*
X1339745Y141652D01*
X1339727Y141606D01*
X1339718Y141479D01*
X1339704Y141389D01*
X1339704Y139185D01*
X1336555Y136036D01*
X1332101Y136036D01*
G37*
%LPD*%
%LPC*%
G36*
X339305Y83899D02*
X339305Y83899D01*
X336375Y86829D01*
X336375Y90971D01*
X339305Y93901D01*
X343447Y93901D01*
X344885Y92463D01*
X344961Y92406D01*
X345033Y92341D01*
X345074Y92321D01*
X345110Y92294D01*
X345200Y92260D01*
X345287Y92218D01*
X345329Y92212D01*
X345374Y92195D01*
X345502Y92185D01*
X345591Y92171D01*
X503183Y92171D01*
X503278Y92184D01*
X503374Y92189D01*
X503418Y92204D01*
X503463Y92211D01*
X503550Y92250D01*
X503641Y92282D01*
X503675Y92307D01*
X503719Y92327D01*
X503817Y92410D01*
X503890Y92463D01*
X512057Y100630D01*
X512114Y100707D01*
X512179Y100778D01*
X512199Y100819D01*
X512226Y100856D01*
X512260Y100946D01*
X512302Y101032D01*
X512308Y101074D01*
X512325Y101120D01*
X512335Y101247D01*
X512349Y101337D01*
X512349Y123293D01*
X512336Y123388D01*
X512331Y123484D01*
X512316Y123527D01*
X512309Y123572D01*
X512270Y123659D01*
X512238Y123750D01*
X512213Y123785D01*
X512193Y123829D01*
X512110Y123926D01*
X512057Y123999D01*
X510619Y125437D01*
X510619Y129579D01*
X513549Y132509D01*
X517691Y132509D01*
X520621Y129579D01*
X520621Y125437D01*
X519183Y123999D01*
X519126Y123923D01*
X519061Y123851D01*
X519041Y123810D01*
X519014Y123774D01*
X518980Y123684D01*
X518938Y123597D01*
X518932Y123555D01*
X518915Y123510D01*
X518905Y123382D01*
X518891Y123293D01*
X518891Y98213D01*
X506307Y85629D01*
X345591Y85629D01*
X345496Y85616D01*
X345400Y85611D01*
X345357Y85596D01*
X345312Y85589D01*
X345224Y85550D01*
X345134Y85518D01*
X345099Y85493D01*
X345055Y85473D01*
X344958Y85390D01*
X344885Y85337D01*
X343447Y83899D01*
X339305Y83899D01*
G37*
%LPD*%
%LPC*%
G36*
X1438556Y124237D02*
X1438556Y124237D01*
X1436937Y125856D01*
X1436937Y140844D01*
X1438556Y142463D01*
X1478944Y142463D01*
X1480563Y140844D01*
X1480563Y125856D01*
X1478944Y124237D01*
X1438556Y124237D01*
G37*
%LPD*%
%LPC*%
G36*
X1255737Y85423D02*
X1255737Y85423D01*
X1252807Y88353D01*
X1252807Y89308D01*
X1252794Y89403D01*
X1252789Y89499D01*
X1252774Y89542D01*
X1252767Y89587D01*
X1252728Y89674D01*
X1252696Y89765D01*
X1252671Y89800D01*
X1252651Y89844D01*
X1252568Y89941D01*
X1252515Y90014D01*
X1245647Y96882D01*
X1245647Y146450D01*
X1252007Y152810D01*
X1252064Y152887D01*
X1252129Y152958D01*
X1252149Y152999D01*
X1252176Y153035D01*
X1252210Y153125D01*
X1252252Y153212D01*
X1252258Y153254D01*
X1252275Y153299D01*
X1252285Y153427D01*
X1252299Y153516D01*
X1252299Y154471D01*
X1255229Y157401D01*
X1259371Y157401D01*
X1262301Y154471D01*
X1262301Y150329D01*
X1259371Y147399D01*
X1258416Y147399D01*
X1258321Y147386D01*
X1258225Y147381D01*
X1258182Y147366D01*
X1258137Y147359D01*
X1258050Y147320D01*
X1257959Y147288D01*
X1257924Y147263D01*
X1257880Y147243D01*
X1257783Y147160D01*
X1257710Y147107D01*
X1254005Y143402D01*
X1253948Y143325D01*
X1253883Y143254D01*
X1253863Y143213D01*
X1253836Y143177D01*
X1253802Y143087D01*
X1253760Y143000D01*
X1253754Y142958D01*
X1253737Y142913D01*
X1253727Y142785D01*
X1253713Y142696D01*
X1253713Y100636D01*
X1253726Y100541D01*
X1253731Y100445D01*
X1253746Y100402D01*
X1253753Y100357D01*
X1253792Y100270D01*
X1253824Y100179D01*
X1253849Y100144D01*
X1253869Y100100D01*
X1253952Y100003D01*
X1254005Y99930D01*
X1258218Y95717D01*
X1258295Y95660D01*
X1258366Y95595D01*
X1258407Y95575D01*
X1258443Y95548D01*
X1258533Y95514D01*
X1258620Y95472D01*
X1258662Y95466D01*
X1258707Y95449D01*
X1258835Y95439D01*
X1258924Y95425D01*
X1259879Y95425D01*
X1262809Y92495D01*
X1262809Y88353D01*
X1259879Y85423D01*
X1255737Y85423D01*
G37*
%LPD*%
G36*
X1477820Y151642D02*
X1477820Y151642D01*
X1477839Y151640D01*
X1477941Y151662D01*
X1478043Y151679D01*
X1478060Y151688D01*
X1478080Y151692D01*
X1478169Y151745D01*
X1478260Y151794D01*
X1478274Y151808D01*
X1478291Y151818D01*
X1478358Y151897D01*
X1478430Y151972D01*
X1478438Y151990D01*
X1478451Y152005D01*
X1478490Y152101D01*
X1478533Y152195D01*
X1478535Y152215D01*
X1478543Y152233D01*
X1478561Y152400D01*
X1478561Y165100D01*
X1478558Y165120D01*
X1478560Y165139D01*
X1478538Y165241D01*
X1478522Y165343D01*
X1478512Y165360D01*
X1478508Y165380D01*
X1478455Y165469D01*
X1478406Y165560D01*
X1478392Y165574D01*
X1478382Y165591D01*
X1478303Y165658D01*
X1478228Y165730D01*
X1478210Y165738D01*
X1478195Y165751D01*
X1478099Y165790D01*
X1478005Y165833D01*
X1477985Y165835D01*
X1477967Y165843D01*
X1477800Y165861D01*
X1439700Y165861D01*
X1439680Y165858D01*
X1439661Y165860D01*
X1439559Y165838D01*
X1439457Y165822D01*
X1439440Y165812D01*
X1439420Y165808D01*
X1439331Y165755D01*
X1439240Y165706D01*
X1439226Y165692D01*
X1439209Y165682D01*
X1439142Y165603D01*
X1439071Y165528D01*
X1439062Y165510D01*
X1439049Y165495D01*
X1439010Y165399D01*
X1438967Y165305D01*
X1438965Y165285D01*
X1438957Y165267D01*
X1438939Y165100D01*
X1438939Y152400D01*
X1438942Y152380D01*
X1438940Y152361D01*
X1438962Y152259D01*
X1438979Y152157D01*
X1438988Y152140D01*
X1438992Y152120D01*
X1439045Y152031D01*
X1439094Y151940D01*
X1439108Y151926D01*
X1439118Y151909D01*
X1439197Y151842D01*
X1439272Y151771D01*
X1439290Y151762D01*
X1439305Y151749D01*
X1439401Y151710D01*
X1439495Y151667D01*
X1439515Y151665D01*
X1439533Y151657D01*
X1439700Y151639D01*
X1477800Y151639D01*
X1477820Y151642D01*
G37*
G36*
X1477820Y126242D02*
X1477820Y126242D01*
X1477839Y126240D01*
X1477941Y126262D01*
X1478043Y126279D01*
X1478060Y126288D01*
X1478080Y126292D01*
X1478169Y126345D01*
X1478260Y126394D01*
X1478274Y126408D01*
X1478291Y126418D01*
X1478358Y126497D01*
X1478430Y126572D01*
X1478438Y126590D01*
X1478451Y126605D01*
X1478490Y126701D01*
X1478533Y126795D01*
X1478535Y126815D01*
X1478543Y126833D01*
X1478561Y127000D01*
X1478561Y139700D01*
X1478558Y139720D01*
X1478560Y139739D01*
X1478538Y139841D01*
X1478522Y139943D01*
X1478512Y139960D01*
X1478508Y139980D01*
X1478455Y140069D01*
X1478406Y140160D01*
X1478392Y140174D01*
X1478382Y140191D01*
X1478303Y140258D01*
X1478228Y140330D01*
X1478210Y140338D01*
X1478195Y140351D01*
X1478099Y140390D01*
X1478005Y140433D01*
X1477985Y140435D01*
X1477967Y140443D01*
X1477800Y140461D01*
X1439700Y140461D01*
X1439680Y140458D01*
X1439661Y140460D01*
X1439559Y140438D01*
X1439457Y140422D01*
X1439440Y140412D01*
X1439420Y140408D01*
X1439331Y140355D01*
X1439240Y140306D01*
X1439226Y140292D01*
X1439209Y140282D01*
X1439142Y140203D01*
X1439071Y140128D01*
X1439062Y140110D01*
X1439049Y140095D01*
X1439010Y139999D01*
X1438967Y139905D01*
X1438965Y139885D01*
X1438957Y139867D01*
X1438939Y139700D01*
X1438939Y127000D01*
X1438942Y126980D01*
X1438940Y126961D01*
X1438962Y126859D01*
X1438979Y126757D01*
X1438988Y126740D01*
X1438992Y126720D01*
X1439045Y126631D01*
X1439094Y126540D01*
X1439108Y126526D01*
X1439118Y126509D01*
X1439197Y126442D01*
X1439272Y126371D01*
X1439290Y126362D01*
X1439305Y126349D01*
X1439401Y126310D01*
X1439495Y126267D01*
X1439515Y126265D01*
X1439533Y126257D01*
X1439700Y126239D01*
X1477800Y126239D01*
X1477820Y126242D01*
G37*
D10*
X38100Y58420D03*
D11*
X60199Y58420D01*
X70908Y69129D01*
X94529Y69129D01*
X124174Y98774D02*
X187960Y98774D01*
X198120Y108934D01*
X198120Y114300D01*
D10*
X198120Y114300D03*
D11*
X124174Y98774D02*
X94529Y69129D01*
D10*
X12700Y182880D03*
X12700Y175260D03*
X12700Y167640D03*
X12700Y160020D03*
X12700Y152400D03*
X12700Y144780D03*
X12700Y137160D03*
X147320Y185420D03*
X147320Y177800D03*
X147320Y170180D03*
X147320Y162560D03*
X147320Y154940D03*
X147320Y147320D03*
X147320Y139700D03*
X147320Y132080D03*
X426720Y111760D03*
X434340Y111760D03*
X383540Y40640D03*
X391160Y40640D03*
X383540Y33020D03*
X391160Y33020D03*
X398780Y33020D03*
X398780Y40640D03*
X226060Y71120D03*
X233680Y71120D03*
X241300Y71120D03*
X233680Y63500D03*
X241300Y63500D03*
X243840Y154940D03*
X243840Y147320D03*
X243840Y139700D03*
X241300Y119380D03*
X218440Y119380D03*
X137160Y35560D03*
X144780Y35560D03*
X152400Y35560D03*
X137160Y27940D03*
X144780Y27940D03*
X152400Y27940D03*
X287020Y27940D03*
X294640Y27940D03*
X302260Y27940D03*
X287020Y35560D03*
X294640Y35560D03*
X302260Y35560D03*
X513080Y33020D03*
X520700Y33020D03*
X528320Y33020D03*
X513080Y40640D03*
X520700Y40640D03*
X528320Y40640D03*
X632460Y40640D03*
X640080Y40640D03*
X647700Y40640D03*
X632460Y33020D03*
X640080Y33020D03*
X647700Y33020D03*
X767080Y40640D03*
X774700Y40640D03*
X782320Y40640D03*
X767080Y33020D03*
X774700Y33020D03*
X782320Y33020D03*
X906780Y40640D03*
X914400Y40640D03*
X922020Y40640D03*
X906780Y33020D03*
X914400Y33020D03*
X922020Y33020D03*
X1033780Y40640D03*
X1041400Y40640D03*
X1049020Y40640D03*
X1056640Y40640D03*
X1033780Y33020D03*
X1041400Y33020D03*
X1049020Y33020D03*
X1056640Y33020D03*
X1432560Y40640D03*
X1440180Y40640D03*
X1447800Y40640D03*
X1432560Y33020D03*
X1440180Y33020D03*
X1447800Y33020D03*
X1201420Y40640D03*
X1209040Y40640D03*
X1216660Y40640D03*
X1201420Y33020D03*
X1209040Y33020D03*
X1216660Y33020D03*
X1303020Y134620D03*
X1295400Y134620D03*
X1287780Y134620D03*
X1310640Y142240D03*
X1280160Y134620D03*
X736600Y162560D03*
X1262380Y165100D03*
X358140Y177800D03*
X411480Y177800D03*
X287020Y86360D03*
X137160Y86614D03*
X1549400Y40640D03*
X1549400Y33020D03*
X1557020Y40640D03*
X1557020Y33020D03*
X1272540Y134620D03*
X1264920Y134620D03*
X1257300Y134620D03*
X731520Y134620D03*
X739140Y134620D03*
X746760Y134620D03*
X657860Y119380D03*
X665480Y119380D03*
X673100Y119380D03*
X680720Y119380D03*
X1285240Y119380D03*
X1292860Y119380D03*
X1300480Y119380D03*
X12700Y129540D03*
X12700Y121920D03*
X12700Y114300D03*
X20320Y182880D03*
X20320Y175260D03*
X20320Y167640D03*
X20320Y160020D03*
X20320Y152400D03*
X20320Y144780D03*
X20320Y137160D03*
X20320Y129540D03*
X20320Y121920D03*
X20320Y114300D03*
X147320Y124460D03*
X147320Y116840D03*
X177800Y172720D03*
X185420Y172720D03*
X177800Y165100D03*
X185420Y165100D03*
X287020Y154940D03*
X314960Y152400D03*
X398780Y152400D03*
X469900Y147320D03*
X469900Y139700D03*
X469900Y132080D03*
X469900Y124460D03*
X469900Y116840D03*
X477520Y147320D03*
X477520Y139700D03*
X477520Y132080D03*
X477520Y124460D03*
X477520Y116840D03*
X568960Y116840D03*
X568960Y109220D03*
X568960Y101600D03*
X576580Y101600D03*
X576580Y109220D03*
X576580Y116840D03*
X584200Y116840D03*
X584200Y109220D03*
X571500Y165100D03*
X571500Y157480D03*
X360680Y101600D03*
X368300Y101600D03*
X360680Y109220D03*
X368300Y109220D03*
X330200Y137160D03*
X330200Y129540D03*
X337820Y129540D03*
X337820Y137160D03*
X657860Y144780D03*
X665480Y144780D03*
X673100Y144780D03*
X665480Y152400D03*
X701040Y142240D03*
X708660Y134620D03*
X716280Y127000D03*
X427482Y66548D03*
X1386840Y96520D03*
X1386840Y88900D03*
X1386840Y81280D03*
X1394460Y81280D03*
X1394460Y88900D03*
X1394460Y96520D03*
X1402080Y96520D03*
X1402080Y88900D03*
X1402080Y81280D03*
X73660Y62484D03*
D11*
X94488Y62484D01*
X126238Y94234D02*
X319278Y94234D01*
D10*
X359664Y125905D03*
D11*
X350561Y125517D02*
X319278Y94234D01*
X359276Y125517D02*
X359664Y125905D01*
X359276Y125517D02*
X350561Y125517D01*
X126238Y94234D02*
X94488Y62484D01*
D10*
X124968Y82804D03*
D11*
X129032Y78740D01*
X313436Y78740D01*
X353568Y118872D01*
D10*
X353568Y118872D03*
X172212Y186058D03*
D12*
X172946Y186792D01*
X734060Y186792D01*
X734060Y186566D01*
X733552Y186058D01*
D10*
X733552Y186058D03*
X183642Y185674D03*
X744220Y185928D03*
D12*
X734698Y185928D01*
X734060Y186566D01*
D13*
X341376Y88900D03*
D11*
X504952Y88900D01*
X515620Y99568D01*
X515620Y127508D01*
D13*
X515620Y127508D03*
D10*
X104140Y43180D03*
D14*
X116840Y55880D01*
X601980Y55880D01*
X611406Y65306D01*
D13*
X642620Y153844D03*
D14*
X611406Y122630D01*
X611406Y65306D01*
D10*
X228600Y35560D03*
D14*
X241300Y48260D02*
X604520Y48260D01*
X241300Y48260D02*
X228600Y35560D01*
X604520Y48260D02*
X619760Y63500D01*
X619760Y78740D01*
D10*
X619760Y78740D03*
D13*
X1257808Y90424D03*
D14*
X1249680Y144780D02*
X1257300Y152400D01*
X1249680Y144780D02*
X1249680Y98552D01*
X1257808Y90424D01*
D13*
X1257300Y152400D03*
D10*
X1334328Y141412D03*
D15*
X1350396Y157480D01*
X1460020Y157480D01*
M02*
