G04 EAGLE Gerber RS-274X export*
G75*
%MOMM*%
%FSLAX34Y34*%
%LPD*%
%INSolder stop mask SOL*%
%IPPOS*%
%AMOC8*
5,1,8,0,0,1.08239X$1,22.5*%
G01*

G36*
X1477858Y176793D02*
X1477858Y176793D01*
X1477916Y176791D01*
X1477998Y176813D01*
X1478082Y176825D01*
X1478135Y176849D01*
X1478191Y176863D01*
X1478264Y176906D01*
X1478341Y176941D01*
X1478386Y176979D01*
X1478436Y177009D01*
X1478494Y177070D01*
X1478558Y177125D01*
X1478590Y177173D01*
X1478630Y177216D01*
X1478669Y177291D01*
X1478716Y177361D01*
X1478733Y177417D01*
X1478760Y177469D01*
X1478771Y177537D01*
X1478801Y177632D01*
X1478804Y177732D01*
X1478815Y177800D01*
X1478815Y190500D01*
X1478807Y190558D01*
X1478809Y190616D01*
X1478787Y190698D01*
X1478775Y190782D01*
X1478752Y190835D01*
X1478737Y190891D01*
X1478694Y190964D01*
X1478659Y191041D01*
X1478621Y191086D01*
X1478592Y191136D01*
X1478530Y191194D01*
X1478476Y191258D01*
X1478427Y191290D01*
X1478384Y191330D01*
X1478309Y191369D01*
X1478239Y191416D01*
X1478183Y191433D01*
X1478131Y191460D01*
X1478063Y191471D01*
X1477968Y191501D01*
X1477868Y191504D01*
X1477800Y191515D01*
X1439700Y191515D01*
X1439642Y191507D01*
X1439584Y191509D01*
X1439502Y191487D01*
X1439419Y191475D01*
X1439365Y191452D01*
X1439309Y191437D01*
X1439236Y191394D01*
X1439159Y191359D01*
X1439114Y191321D01*
X1439064Y191292D01*
X1439006Y191230D01*
X1438942Y191176D01*
X1438910Y191127D01*
X1438870Y191084D01*
X1438831Y191009D01*
X1438785Y190939D01*
X1438767Y190883D01*
X1438740Y190831D01*
X1438729Y190763D01*
X1438699Y190668D01*
X1438696Y190568D01*
X1438685Y190500D01*
X1438685Y177800D01*
X1438693Y177742D01*
X1438691Y177684D01*
X1438713Y177602D01*
X1438725Y177519D01*
X1438749Y177465D01*
X1438763Y177409D01*
X1438806Y177336D01*
X1438841Y177259D01*
X1438879Y177214D01*
X1438909Y177164D01*
X1438970Y177106D01*
X1439025Y177042D01*
X1439073Y177010D01*
X1439116Y176970D01*
X1439191Y176931D01*
X1439261Y176885D01*
X1439317Y176867D01*
X1439369Y176840D01*
X1439437Y176829D01*
X1439532Y176799D01*
X1439632Y176796D01*
X1439700Y176785D01*
X1477800Y176785D01*
X1477858Y176793D01*
G37*
G36*
X1477858Y151393D02*
X1477858Y151393D01*
X1477916Y151391D01*
X1477998Y151413D01*
X1478082Y151425D01*
X1478135Y151449D01*
X1478191Y151463D01*
X1478264Y151506D01*
X1478341Y151541D01*
X1478386Y151579D01*
X1478436Y151609D01*
X1478494Y151670D01*
X1478558Y151725D01*
X1478590Y151773D01*
X1478630Y151816D01*
X1478669Y151891D01*
X1478716Y151961D01*
X1478733Y152017D01*
X1478760Y152069D01*
X1478771Y152137D01*
X1478801Y152232D01*
X1478804Y152332D01*
X1478815Y152400D01*
X1478815Y165100D01*
X1478807Y165158D01*
X1478809Y165216D01*
X1478787Y165298D01*
X1478775Y165382D01*
X1478752Y165435D01*
X1478737Y165491D01*
X1478694Y165564D01*
X1478659Y165641D01*
X1478621Y165686D01*
X1478592Y165736D01*
X1478530Y165794D01*
X1478476Y165858D01*
X1478427Y165890D01*
X1478384Y165930D01*
X1478309Y165969D01*
X1478239Y166016D01*
X1478183Y166033D01*
X1478131Y166060D01*
X1478063Y166071D01*
X1477968Y166101D01*
X1477868Y166104D01*
X1477800Y166115D01*
X1439700Y166115D01*
X1439642Y166107D01*
X1439584Y166109D01*
X1439502Y166087D01*
X1439419Y166075D01*
X1439365Y166052D01*
X1439309Y166037D01*
X1439236Y165994D01*
X1439159Y165959D01*
X1439114Y165921D01*
X1439064Y165892D01*
X1439006Y165830D01*
X1438942Y165776D01*
X1438910Y165727D01*
X1438870Y165684D01*
X1438831Y165609D01*
X1438785Y165539D01*
X1438767Y165483D01*
X1438740Y165431D01*
X1438729Y165363D01*
X1438699Y165268D01*
X1438696Y165168D01*
X1438685Y165100D01*
X1438685Y152400D01*
X1438693Y152342D01*
X1438691Y152284D01*
X1438713Y152202D01*
X1438725Y152119D01*
X1438749Y152065D01*
X1438763Y152009D01*
X1438806Y151936D01*
X1438841Y151859D01*
X1438879Y151814D01*
X1438909Y151764D01*
X1438970Y151706D01*
X1439025Y151642D01*
X1439073Y151610D01*
X1439116Y151570D01*
X1439191Y151531D01*
X1439261Y151485D01*
X1439317Y151467D01*
X1439369Y151440D01*
X1439437Y151429D01*
X1439532Y151399D01*
X1439632Y151396D01*
X1439700Y151385D01*
X1477800Y151385D01*
X1477858Y151393D01*
G37*
G36*
X1477858Y125993D02*
X1477858Y125993D01*
X1477916Y125991D01*
X1477998Y126013D01*
X1478082Y126025D01*
X1478135Y126049D01*
X1478191Y126063D01*
X1478264Y126106D01*
X1478341Y126141D01*
X1478386Y126179D01*
X1478436Y126209D01*
X1478494Y126270D01*
X1478558Y126325D01*
X1478590Y126373D01*
X1478630Y126416D01*
X1478669Y126491D01*
X1478716Y126561D01*
X1478733Y126617D01*
X1478760Y126669D01*
X1478771Y126737D01*
X1478801Y126832D01*
X1478804Y126932D01*
X1478815Y127000D01*
X1478815Y139700D01*
X1478807Y139758D01*
X1478809Y139816D01*
X1478787Y139898D01*
X1478775Y139982D01*
X1478752Y140035D01*
X1478737Y140091D01*
X1478694Y140164D01*
X1478659Y140241D01*
X1478621Y140286D01*
X1478592Y140336D01*
X1478530Y140394D01*
X1478476Y140458D01*
X1478427Y140490D01*
X1478384Y140530D01*
X1478309Y140569D01*
X1478239Y140616D01*
X1478183Y140633D01*
X1478131Y140660D01*
X1478063Y140671D01*
X1477968Y140701D01*
X1477868Y140704D01*
X1477800Y140715D01*
X1439700Y140715D01*
X1439642Y140707D01*
X1439584Y140709D01*
X1439502Y140687D01*
X1439419Y140675D01*
X1439365Y140652D01*
X1439309Y140637D01*
X1439236Y140594D01*
X1439159Y140559D01*
X1439114Y140521D01*
X1439064Y140492D01*
X1439006Y140430D01*
X1438942Y140376D01*
X1438910Y140327D01*
X1438870Y140284D01*
X1438831Y140209D01*
X1438785Y140139D01*
X1438767Y140083D01*
X1438740Y140031D01*
X1438729Y139963D01*
X1438699Y139868D01*
X1438696Y139768D01*
X1438685Y139700D01*
X1438685Y127000D01*
X1438693Y126942D01*
X1438691Y126884D01*
X1438713Y126802D01*
X1438725Y126719D01*
X1438749Y126665D01*
X1438763Y126609D01*
X1438806Y126536D01*
X1438841Y126459D01*
X1438879Y126414D01*
X1438909Y126364D01*
X1438970Y126306D01*
X1439025Y126242D01*
X1439073Y126210D01*
X1439116Y126170D01*
X1439191Y126131D01*
X1439261Y126085D01*
X1439317Y126067D01*
X1439369Y126040D01*
X1439437Y126029D01*
X1439532Y125999D01*
X1439632Y125996D01*
X1439700Y125985D01*
X1477800Y125985D01*
X1477858Y125993D01*
G37*
M02*
