M48
;GenerationSoftware,Autodesk,EAGLE,9.6.2*%
;CreationDate,2023-03-07T09:57:06Z*%
FMAT,2
ICI,OFF
METRIC,TZ,000.000
T2C0.400
T1C0.450
%
G90
M71
T1
X3810Y5842
X19812Y11430
X1270Y18288
X1270Y17526
X1270Y16764
X1270Y16002
X1270Y15240
X1270Y14478
X1270Y13716
X14732Y18542
X14732Y17780
X14732Y17018
X14732Y16256
X14732Y15494
X14732Y14732
X14732Y13970
X14732Y13208
X42672Y11176
X43434Y11176
X38354Y4064
X39116Y4064
X38354Y3302
X39116Y3302
X39878Y3302
X39878Y4064
X22606Y7112
X23368Y7112
X24130Y7112
X23368Y6350
X24130Y6350
X24384Y15494
X24384Y14732
X24384Y13970
X24130Y11938
X21844Y11938
X13716Y3556
X14478Y3556
X15240Y3556
X13716Y2794
X14478Y2794
X15240Y2794
X28702Y2794
X29464Y2794
X30226Y2794
X28702Y3556
X29464Y3556
X30226Y3556
X51308Y3302
X52070Y3302
X52832Y3302
X51308Y4064
X52070Y4064
X52832Y4064
X63246Y4064
X64008Y4064
X64770Y4064
X63246Y3302
X64008Y3302
X64770Y3302
X76708Y4064
X77470Y4064
X78232Y4064
X76708Y3302
X77470Y3302
X78232Y3302
X90678Y4064
X91440Y4064
X92202Y4064
X90678Y3302
X91440Y3302
X92202Y3302
X103378Y4064
X104140Y4064
X104902Y4064
X105664Y4064
X103378Y3302
X104140Y3302
X104902Y3302
X105664Y3302
X143256Y4064
X144018Y4064
X144780Y4064
X143256Y3302
X144018Y3302
X144780Y3302
X120142Y4064
X120904Y4064
X121666Y4064
X120142Y3302
X120904Y3302
X121666Y3302
X130302Y13462
X129540Y13462
X128778Y13462
X131064Y14224
X128016Y13462
X73660Y16256
X126238Y16510
X35814Y17780
X41148Y17780
X28702Y8636
X13716Y8661
X154940Y4064
X154940Y3302
X155702Y4064
X155702Y3302
X127254Y13462
X126492Y13462
X125730Y13462
X73152Y13462
X73914Y13462
X74676Y13462
X65786Y11938
X66548Y11938
X67310Y11938
X68072Y11938
X128524Y11938
X129286Y11938
X130048Y11938
X1270Y12954
X1270Y12192
X1270Y11430
X2032Y18288
X2032Y17526
X2032Y16764
X2032Y16002
X2032Y15240
X2032Y14478
X2032Y13716
X2032Y12954
X2032Y12192
X2032Y11430
X14732Y12446
X14732Y11684
X17780Y17272
X18542Y17272
X17780Y16510
X18542Y16510
X28702Y15494
X31496Y15240
X39878Y15240
X46990Y14732
X46990Y13970
X46990Y13208
X46990Y12446
X46990Y11684
X47752Y14732
X47752Y13970
X47752Y13208
X47752Y12446
X47752Y11684
X56896Y11684
X56896Y10922
X56896Y10160
X57658Y10160
X57658Y10922
X57658Y11684
X58420Y11684
X58420Y10922
X57150Y16510
X57150Y15748
X36068Y10160
X36830Y10160
X36068Y10922
X36830Y10922
X33020Y13716
X33020Y12954
X33782Y12954
X33782Y13716
X65786Y14478
X66548Y14478
X67310Y14478
X66548Y15240
X70104Y14224
X70866Y13462
X71628Y12700
X42748Y6655
X138684Y9652
X138684Y8890
X138684Y8128
X139446Y8128
X139446Y8890
X139446Y9652
X140208Y9652
X140208Y8890
X140208Y8128
X7366Y6248
X35966Y12590
X12497Y8280
X35357Y11887
X17221Y18606
X73355Y18606
X18364Y18567
X74422Y18593
X10414Y4318
X22860Y3556
X61976Y7874
X133433Y14141
T2
X51562Y12751
X34138Y8890
X125781Y9042
X125730Y15240
X64262Y15384
M30