G04 EAGLE Gerber RS-274X export*
G75*
%MOMM*%
%FSLAX34Y34*%
%LPD*%
%INSolder stop mask CMP*%
%IPPOS*%
%AMOC8*
5,1,8,0,0,1.08239X$1,22.5*%
G01*
%ADD10R,0.812800X1.066800*%
%ADD11R,1.066800X1.574800*%
%ADD12R,1.574800X1.066800*%
%ADD13R,2.550800X2.250800*%
%ADD14R,0.550800X2.050800*%
%ADD15R,0.650800X2.050800*%
%ADD16R,1.550800X0.300800*%
%ADD17R,0.300800X1.550800*%
%ADD18R,1.450800X1.250800*%
%ADD19R,1.050800X1.450800*%
%ADD20R,1.450800X1.050800*%
%ADD21R,2.590800X1.574800*%
%ADD22R,1.050800X0.550800*%
%ADD23R,0.400800X1.850800*%

G36*
X1447858Y176793D02*
X1447858Y176793D01*
X1447916Y176791D01*
X1447998Y176813D01*
X1448082Y176825D01*
X1448135Y176849D01*
X1448191Y176863D01*
X1448264Y176906D01*
X1448341Y176941D01*
X1448386Y176979D01*
X1448436Y177009D01*
X1448494Y177070D01*
X1448558Y177125D01*
X1448590Y177173D01*
X1448630Y177216D01*
X1448669Y177291D01*
X1448716Y177361D01*
X1448733Y177417D01*
X1448760Y177469D01*
X1448771Y177537D01*
X1448801Y177632D01*
X1448804Y177732D01*
X1448815Y177800D01*
X1448815Y190500D01*
X1448807Y190558D01*
X1448809Y190616D01*
X1448787Y190698D01*
X1448775Y190782D01*
X1448752Y190835D01*
X1448737Y190891D01*
X1448694Y190964D01*
X1448659Y191041D01*
X1448621Y191086D01*
X1448592Y191136D01*
X1448530Y191194D01*
X1448476Y191258D01*
X1448427Y191290D01*
X1448384Y191330D01*
X1448309Y191369D01*
X1448239Y191416D01*
X1448183Y191433D01*
X1448131Y191460D01*
X1448063Y191471D01*
X1447968Y191501D01*
X1447868Y191504D01*
X1447800Y191515D01*
X1409700Y191515D01*
X1409642Y191507D01*
X1409584Y191509D01*
X1409502Y191487D01*
X1409419Y191475D01*
X1409365Y191452D01*
X1409309Y191437D01*
X1409236Y191394D01*
X1409159Y191359D01*
X1409114Y191321D01*
X1409064Y191292D01*
X1409006Y191230D01*
X1408942Y191176D01*
X1408910Y191127D01*
X1408870Y191084D01*
X1408831Y191009D01*
X1408785Y190939D01*
X1408767Y190883D01*
X1408740Y190831D01*
X1408729Y190763D01*
X1408699Y190668D01*
X1408696Y190568D01*
X1408685Y190500D01*
X1408685Y177800D01*
X1408693Y177742D01*
X1408691Y177684D01*
X1408713Y177602D01*
X1408725Y177519D01*
X1408749Y177465D01*
X1408763Y177409D01*
X1408806Y177336D01*
X1408841Y177259D01*
X1408879Y177214D01*
X1408909Y177164D01*
X1408970Y177106D01*
X1409025Y177042D01*
X1409073Y177010D01*
X1409116Y176970D01*
X1409191Y176931D01*
X1409261Y176885D01*
X1409317Y176867D01*
X1409369Y176840D01*
X1409437Y176829D01*
X1409532Y176799D01*
X1409632Y176796D01*
X1409700Y176785D01*
X1447800Y176785D01*
X1447858Y176793D01*
G37*
G36*
X1447858Y151393D02*
X1447858Y151393D01*
X1447916Y151391D01*
X1447998Y151413D01*
X1448082Y151425D01*
X1448135Y151449D01*
X1448191Y151463D01*
X1448264Y151506D01*
X1448341Y151541D01*
X1448386Y151579D01*
X1448436Y151609D01*
X1448494Y151670D01*
X1448558Y151725D01*
X1448590Y151773D01*
X1448630Y151816D01*
X1448669Y151891D01*
X1448716Y151961D01*
X1448733Y152017D01*
X1448760Y152069D01*
X1448771Y152137D01*
X1448801Y152232D01*
X1448804Y152332D01*
X1448815Y152400D01*
X1448815Y165100D01*
X1448807Y165158D01*
X1448809Y165216D01*
X1448787Y165298D01*
X1448775Y165382D01*
X1448752Y165435D01*
X1448737Y165491D01*
X1448694Y165564D01*
X1448659Y165641D01*
X1448621Y165686D01*
X1448592Y165736D01*
X1448530Y165794D01*
X1448476Y165858D01*
X1448427Y165890D01*
X1448384Y165930D01*
X1448309Y165969D01*
X1448239Y166016D01*
X1448183Y166033D01*
X1448131Y166060D01*
X1448063Y166071D01*
X1447968Y166101D01*
X1447868Y166104D01*
X1447800Y166115D01*
X1409700Y166115D01*
X1409642Y166107D01*
X1409584Y166109D01*
X1409502Y166087D01*
X1409419Y166075D01*
X1409365Y166052D01*
X1409309Y166037D01*
X1409236Y165994D01*
X1409159Y165959D01*
X1409114Y165921D01*
X1409064Y165892D01*
X1409006Y165830D01*
X1408942Y165776D01*
X1408910Y165727D01*
X1408870Y165684D01*
X1408831Y165609D01*
X1408785Y165539D01*
X1408767Y165483D01*
X1408740Y165431D01*
X1408729Y165363D01*
X1408699Y165268D01*
X1408696Y165168D01*
X1408685Y165100D01*
X1408685Y152400D01*
X1408693Y152342D01*
X1408691Y152284D01*
X1408713Y152202D01*
X1408725Y152119D01*
X1408749Y152065D01*
X1408763Y152009D01*
X1408806Y151936D01*
X1408841Y151859D01*
X1408879Y151814D01*
X1408909Y151764D01*
X1408970Y151706D01*
X1409025Y151642D01*
X1409073Y151610D01*
X1409116Y151570D01*
X1409191Y151531D01*
X1409261Y151485D01*
X1409317Y151467D01*
X1409369Y151440D01*
X1409437Y151429D01*
X1409532Y151399D01*
X1409632Y151396D01*
X1409700Y151385D01*
X1447800Y151385D01*
X1447858Y151393D01*
G37*
G36*
X1447858Y125993D02*
X1447858Y125993D01*
X1447916Y125991D01*
X1447998Y126013D01*
X1448082Y126025D01*
X1448135Y126049D01*
X1448191Y126063D01*
X1448264Y126106D01*
X1448341Y126141D01*
X1448386Y126179D01*
X1448436Y126209D01*
X1448494Y126270D01*
X1448558Y126325D01*
X1448590Y126373D01*
X1448630Y126416D01*
X1448669Y126491D01*
X1448716Y126561D01*
X1448733Y126617D01*
X1448760Y126669D01*
X1448771Y126737D01*
X1448801Y126832D01*
X1448804Y126932D01*
X1448815Y127000D01*
X1448815Y139700D01*
X1448807Y139758D01*
X1448809Y139816D01*
X1448787Y139898D01*
X1448775Y139982D01*
X1448752Y140035D01*
X1448737Y140091D01*
X1448694Y140164D01*
X1448659Y140241D01*
X1448621Y140286D01*
X1448592Y140336D01*
X1448530Y140394D01*
X1448476Y140458D01*
X1448427Y140490D01*
X1448384Y140530D01*
X1448309Y140569D01*
X1448239Y140616D01*
X1448183Y140633D01*
X1448131Y140660D01*
X1448063Y140671D01*
X1447968Y140701D01*
X1447868Y140704D01*
X1447800Y140715D01*
X1409700Y140715D01*
X1409642Y140707D01*
X1409584Y140709D01*
X1409502Y140687D01*
X1409419Y140675D01*
X1409365Y140652D01*
X1409309Y140637D01*
X1409236Y140594D01*
X1409159Y140559D01*
X1409114Y140521D01*
X1409064Y140492D01*
X1409006Y140430D01*
X1408942Y140376D01*
X1408910Y140327D01*
X1408870Y140284D01*
X1408831Y140209D01*
X1408785Y140139D01*
X1408767Y140083D01*
X1408740Y140031D01*
X1408729Y139963D01*
X1408699Y139868D01*
X1408696Y139768D01*
X1408685Y139700D01*
X1408685Y127000D01*
X1408693Y126942D01*
X1408691Y126884D01*
X1408713Y126802D01*
X1408725Y126719D01*
X1408749Y126665D01*
X1408763Y126609D01*
X1408806Y126536D01*
X1408841Y126459D01*
X1408879Y126414D01*
X1408909Y126364D01*
X1408970Y126306D01*
X1409025Y126242D01*
X1409073Y126210D01*
X1409116Y126170D01*
X1409191Y126131D01*
X1409261Y126085D01*
X1409317Y126067D01*
X1409369Y126040D01*
X1409437Y126029D01*
X1409532Y125999D01*
X1409632Y125996D01*
X1409700Y125985D01*
X1447800Y125985D01*
X1447858Y125993D01*
G37*
D10*
X275450Y152400D03*
X257950Y152400D03*
X257950Y86360D03*
X275450Y86360D03*
D11*
X397193Y66040D03*
X415606Y66040D03*
D12*
X302260Y163513D03*
X302260Y181926D03*
D11*
X275907Y58420D03*
X257494Y58420D03*
X328613Y177800D03*
X347026Y177800D03*
D12*
X429260Y141287D03*
X429260Y122874D03*
X228600Y84773D03*
X228600Y103186D03*
D13*
X125820Y122240D03*
X41820Y122240D03*
X125820Y175240D03*
X41820Y175240D03*
D14*
X99820Y119740D03*
X91820Y119740D03*
X83820Y119740D03*
X75820Y119740D03*
X67820Y119740D03*
D11*
X54516Y18796D03*
X77056Y18796D03*
X1242516Y18796D03*
X1265056Y18796D03*
X1374516Y18796D03*
X1397056Y18796D03*
X1506516Y18796D03*
X1529056Y18796D03*
X186516Y18796D03*
X209056Y18796D03*
X318516Y18796D03*
X341056Y18796D03*
X450516Y18796D03*
X473056Y18796D03*
X582516Y18796D03*
X605056Y18796D03*
X714516Y18796D03*
X737056Y18796D03*
X846516Y18796D03*
X869056Y18796D03*
X978516Y18796D03*
X1001056Y18796D03*
X1110516Y18796D03*
X1133056Y18796D03*
D15*
X629920Y93980D03*
X642620Y93980D03*
X655320Y93980D03*
X668020Y93980D03*
X680720Y93980D03*
X693420Y93980D03*
X706120Y93980D03*
X718820Y93980D03*
X718820Y170180D03*
X706120Y170180D03*
X693420Y170180D03*
X680720Y170180D03*
X668020Y170180D03*
X655320Y170180D03*
X642620Y170180D03*
X629920Y170180D03*
D16*
X310060Y139260D03*
X310060Y134260D03*
X310060Y129260D03*
X310060Y124260D03*
X310060Y119260D03*
X310060Y114260D03*
X310060Y109260D03*
X310060Y104260D03*
X310060Y99260D03*
X310060Y94260D03*
X310060Y89260D03*
X310060Y84260D03*
D17*
X325560Y68760D03*
X330560Y68760D03*
X335560Y68760D03*
X340560Y68760D03*
X345560Y68760D03*
X350560Y68760D03*
X355560Y68760D03*
X360560Y68760D03*
X365560Y68760D03*
X370560Y68760D03*
X375560Y68760D03*
X380560Y68760D03*
D16*
X396060Y84260D03*
X396060Y89260D03*
X396060Y94260D03*
X396060Y99260D03*
X396060Y104260D03*
X396060Y109260D03*
X396060Y114260D03*
X396060Y119260D03*
X396060Y124260D03*
X396060Y129260D03*
X396060Y134260D03*
X396060Y139260D03*
D17*
X380560Y154760D03*
X375560Y154760D03*
X370560Y154760D03*
X365560Y154760D03*
X360560Y154760D03*
X355560Y154760D03*
X350560Y154760D03*
X345560Y154760D03*
X340560Y154760D03*
X335560Y154760D03*
X330560Y154760D03*
X325560Y154760D03*
D15*
X1272540Y88900D03*
X1285240Y88900D03*
X1297940Y88900D03*
X1310640Y88900D03*
X1323340Y88900D03*
X1336040Y88900D03*
X1348740Y88900D03*
X1361440Y88900D03*
X1361440Y165100D03*
X1348740Y165100D03*
X1336040Y165100D03*
X1323340Y165100D03*
X1310640Y165100D03*
X1297940Y165100D03*
X1285240Y165100D03*
X1272540Y165100D03*
D18*
X254700Y128880D03*
X254700Y109880D03*
X278700Y109880D03*
X278700Y128880D03*
D19*
X736917Y43180D03*
X715964Y43180D03*
X868997Y43180D03*
X848044Y43180D03*
X1001077Y43180D03*
X980124Y43180D03*
X1133157Y43180D03*
X1112204Y43180D03*
X1397317Y43180D03*
X1376364Y43180D03*
X1265237Y43180D03*
X1244284Y43180D03*
X1529397Y43180D03*
X1508444Y43180D03*
D20*
X228600Y136843D03*
X228600Y157796D03*
D19*
X399605Y177800D03*
X378652Y177800D03*
X208597Y43180D03*
X187644Y43180D03*
X340677Y43180D03*
X319724Y43180D03*
X68897Y76200D03*
X47944Y76200D03*
X112077Y76200D03*
X91124Y76200D03*
X472757Y43180D03*
X451804Y43180D03*
X75657Y42700D03*
X54704Y42700D03*
X603977Y44440D03*
X583024Y44440D03*
D21*
X429260Y96520D03*
X429260Y165100D03*
D22*
X160720Y123800D03*
X160720Y114300D03*
X160720Y104800D03*
X184720Y104800D03*
X184720Y123800D03*
D11*
X160973Y149860D03*
X179386Y149860D03*
D12*
X205740Y138113D03*
X205740Y156526D03*
D11*
X179387Y76200D03*
X160974Y76200D03*
D23*
X497205Y106220D03*
X503705Y106220D03*
X510205Y106220D03*
X516705Y106220D03*
X523205Y106220D03*
X529705Y106220D03*
X536205Y106220D03*
X542705Y106220D03*
X549205Y106220D03*
X555705Y106220D03*
X555705Y163020D03*
X549205Y163020D03*
X542705Y163020D03*
X536205Y163020D03*
X529705Y163020D03*
X523205Y163020D03*
X516705Y163020D03*
X510205Y163020D03*
X503705Y163020D03*
X497205Y163020D03*
M02*
