G04 EAGLE Gerber RS-274X export*
G75*
%MOMM*%
%FSLAX34Y34*%
%LPD*%
%INSilk screen component side CMP*%
%IPPOS*%
%AMOC8*
5,1,8,0,0,1.08239X$1,22.5*%
G01*
%ADD10C,0.000000*%
%ADD11C,0.406400*%
%ADD12C,0.127000*%
%ADD13C,0.076200*%


D10*
X0Y0D02*
X1570000Y0D01*
X0Y0D02*
X0Y200000D01*
X1490000Y200000D01*
X1490000Y120000D01*
X1570000Y120000D01*
X1570000Y0D01*
D11*
X1015492Y119154D02*
X1015492Y152908D01*
X1015492Y119154D02*
X1015496Y118838D01*
X1015507Y118522D01*
X1015527Y118206D01*
X1015554Y117891D01*
X1015588Y117577D01*
X1015630Y117264D01*
X1015680Y116952D01*
X1015738Y116641D01*
X1015803Y116331D01*
X1015875Y116024D01*
X1015955Y115718D01*
X1016042Y115414D01*
X1016137Y115112D01*
X1016239Y114813D01*
X1016349Y114516D01*
X1016465Y114223D01*
X1016589Y113932D01*
X1016719Y113644D01*
X1016857Y113359D01*
X1017002Y113078D01*
X1017153Y112800D01*
X1017311Y112527D01*
X1017476Y112257D01*
X1017647Y111991D01*
X1017825Y111729D01*
X1018009Y111472D01*
X1018199Y111220D01*
X1018395Y110972D01*
X1018597Y110729D01*
X1018805Y110491D01*
X1019019Y110258D01*
X1019239Y110030D01*
X1019464Y109808D01*
X1019694Y109592D01*
X1019929Y109381D01*
X1020170Y109175D01*
X1020415Y108976D01*
X1020665Y108783D01*
X1020920Y108596D01*
X1021180Y108415D01*
X1021443Y108241D01*
X1021711Y108073D01*
X1021983Y107911D01*
X1022259Y107757D01*
X1022538Y107609D01*
X1022821Y107467D01*
X1023107Y107333D01*
X1023397Y107206D01*
X1023689Y107086D01*
X1023984Y106973D01*
X1024282Y106867D01*
X1024583Y106769D01*
X1024886Y106678D01*
X1025190Y106594D01*
X1025497Y106518D01*
X1025806Y106449D01*
X1026116Y106388D01*
X1026428Y106334D01*
X1026740Y106288D01*
X1027054Y106250D01*
X1027369Y106219D01*
X1027684Y106196D01*
X1028000Y106181D01*
X1028316Y106173D01*
X1028632Y106173D01*
X1028948Y106181D01*
X1029264Y106196D01*
X1029579Y106219D01*
X1029894Y106250D01*
X1030208Y106288D01*
X1030520Y106334D01*
X1030832Y106388D01*
X1031142Y106449D01*
X1031451Y106518D01*
X1031758Y106594D01*
X1032062Y106678D01*
X1032365Y106769D01*
X1032666Y106867D01*
X1032964Y106973D01*
X1033259Y107086D01*
X1033551Y107206D01*
X1033841Y107333D01*
X1034127Y107467D01*
X1034410Y107609D01*
X1034689Y107757D01*
X1034965Y107911D01*
X1035237Y108073D01*
X1035505Y108241D01*
X1035768Y108415D01*
X1036028Y108596D01*
X1036283Y108783D01*
X1036533Y108976D01*
X1036778Y109175D01*
X1037019Y109381D01*
X1037254Y109592D01*
X1037484Y109808D01*
X1037709Y110030D01*
X1037929Y110258D01*
X1038143Y110491D01*
X1038351Y110729D01*
X1038553Y110972D01*
X1038749Y111220D01*
X1038939Y111472D01*
X1039123Y111729D01*
X1039301Y111991D01*
X1039472Y112257D01*
X1039637Y112527D01*
X1039795Y112800D01*
X1039946Y113078D01*
X1040091Y113359D01*
X1040229Y113644D01*
X1040359Y113932D01*
X1040483Y114223D01*
X1040599Y114516D01*
X1040709Y114813D01*
X1040811Y115112D01*
X1040906Y115414D01*
X1040993Y115718D01*
X1041073Y116024D01*
X1041145Y116331D01*
X1041210Y116641D01*
X1041268Y116952D01*
X1041318Y117264D01*
X1041360Y117577D01*
X1041394Y117891D01*
X1041421Y118206D01*
X1041441Y118522D01*
X1041452Y118838D01*
X1041456Y119154D01*
X1041456Y152908D01*
X1056156Y137329D02*
X1056156Y90593D01*
X1056156Y137329D02*
X1069138Y137329D01*
X1069326Y137327D01*
X1069514Y137320D01*
X1069702Y137309D01*
X1069890Y137293D01*
X1070077Y137272D01*
X1070263Y137247D01*
X1070449Y137218D01*
X1070634Y137184D01*
X1070819Y137145D01*
X1071002Y137103D01*
X1071184Y137055D01*
X1071365Y137004D01*
X1071545Y136948D01*
X1071723Y136887D01*
X1071900Y136823D01*
X1072075Y136754D01*
X1072249Y136681D01*
X1072420Y136604D01*
X1072590Y136522D01*
X1072758Y136437D01*
X1072923Y136347D01*
X1073087Y136254D01*
X1073248Y136157D01*
X1073406Y136055D01*
X1073563Y135950D01*
X1073716Y135841D01*
X1073867Y135729D01*
X1074015Y135613D01*
X1074161Y135493D01*
X1074303Y135370D01*
X1074442Y135244D01*
X1074579Y135114D01*
X1074712Y134981D01*
X1074842Y134844D01*
X1074968Y134705D01*
X1075091Y134563D01*
X1075211Y134417D01*
X1075327Y134269D01*
X1075439Y134118D01*
X1075548Y133965D01*
X1075653Y133808D01*
X1075755Y133650D01*
X1075852Y133489D01*
X1075945Y133325D01*
X1076035Y133160D01*
X1076120Y132992D01*
X1076202Y132822D01*
X1076279Y132651D01*
X1076352Y132477D01*
X1076421Y132302D01*
X1076485Y132125D01*
X1076546Y131947D01*
X1076602Y131767D01*
X1076653Y131586D01*
X1076701Y131404D01*
X1076743Y131221D01*
X1076782Y131036D01*
X1076816Y130851D01*
X1076845Y130665D01*
X1076870Y130479D01*
X1076891Y130292D01*
X1076907Y130104D01*
X1076918Y129916D01*
X1076925Y129728D01*
X1076927Y129540D01*
X1076928Y129540D02*
X1076928Y113961D01*
X1076927Y113961D02*
X1076925Y113773D01*
X1076918Y113585D01*
X1076907Y113397D01*
X1076891Y113209D01*
X1076870Y113022D01*
X1076845Y112836D01*
X1076816Y112650D01*
X1076782Y112465D01*
X1076743Y112280D01*
X1076701Y112097D01*
X1076653Y111915D01*
X1076602Y111734D01*
X1076546Y111554D01*
X1076485Y111376D01*
X1076421Y111199D01*
X1076352Y111024D01*
X1076279Y110850D01*
X1076202Y110679D01*
X1076120Y110509D01*
X1076035Y110341D01*
X1075945Y110176D01*
X1075852Y110012D01*
X1075755Y109851D01*
X1075653Y109693D01*
X1075548Y109536D01*
X1075439Y109383D01*
X1075327Y109232D01*
X1075211Y109084D01*
X1075091Y108938D01*
X1074968Y108796D01*
X1074842Y108657D01*
X1074712Y108520D01*
X1074579Y108387D01*
X1074442Y108257D01*
X1074303Y108131D01*
X1074161Y108008D01*
X1074015Y107888D01*
X1073867Y107772D01*
X1073716Y107660D01*
X1073563Y107551D01*
X1073406Y107446D01*
X1073248Y107344D01*
X1073087Y107247D01*
X1072923Y107154D01*
X1072758Y107064D01*
X1072590Y106979D01*
X1072420Y106897D01*
X1072249Y106820D01*
X1072075Y106747D01*
X1071900Y106678D01*
X1071723Y106614D01*
X1071545Y106553D01*
X1071365Y106497D01*
X1071184Y106446D01*
X1071002Y106398D01*
X1070819Y106356D01*
X1070634Y106317D01*
X1070449Y106283D01*
X1070263Y106254D01*
X1070077Y106229D01*
X1069890Y106208D01*
X1069702Y106192D01*
X1069514Y106181D01*
X1069326Y106174D01*
X1069138Y106172D01*
X1056156Y106172D01*
X1090591Y113961D02*
X1090591Y152908D01*
X1090592Y113961D02*
X1090594Y113773D01*
X1090601Y113585D01*
X1090612Y113397D01*
X1090628Y113209D01*
X1090649Y113022D01*
X1090674Y112836D01*
X1090703Y112650D01*
X1090737Y112465D01*
X1090776Y112280D01*
X1090818Y112097D01*
X1090866Y111915D01*
X1090917Y111734D01*
X1090973Y111554D01*
X1091034Y111376D01*
X1091098Y111199D01*
X1091167Y111024D01*
X1091240Y110850D01*
X1091317Y110679D01*
X1091399Y110509D01*
X1091484Y110341D01*
X1091574Y110176D01*
X1091667Y110012D01*
X1091764Y109851D01*
X1091866Y109693D01*
X1091971Y109536D01*
X1092080Y109383D01*
X1092192Y109232D01*
X1092308Y109084D01*
X1092428Y108938D01*
X1092551Y108796D01*
X1092677Y108657D01*
X1092807Y108520D01*
X1092940Y108387D01*
X1093077Y108257D01*
X1093216Y108131D01*
X1093358Y108008D01*
X1093504Y107888D01*
X1093652Y107772D01*
X1093803Y107660D01*
X1093956Y107551D01*
X1094113Y107446D01*
X1094271Y107344D01*
X1094432Y107247D01*
X1094596Y107154D01*
X1094761Y107064D01*
X1094929Y106979D01*
X1095099Y106897D01*
X1095270Y106820D01*
X1095444Y106747D01*
X1095619Y106678D01*
X1095796Y106614D01*
X1095974Y106553D01*
X1096154Y106497D01*
X1096335Y106446D01*
X1096517Y106398D01*
X1096700Y106356D01*
X1096885Y106317D01*
X1097070Y106283D01*
X1097256Y106254D01*
X1097442Y106229D01*
X1097629Y106208D01*
X1097817Y106192D01*
X1098005Y106181D01*
X1098193Y106174D01*
X1098381Y106172D01*
X1111024Y106172D02*
X1111024Y137329D01*
X1109726Y150312D02*
X1109726Y152908D01*
X1112322Y152908D01*
X1112322Y150312D01*
X1109726Y150312D01*
X1132590Y106172D02*
X1145572Y106172D01*
X1132590Y106172D02*
X1132402Y106174D01*
X1132214Y106181D01*
X1132026Y106192D01*
X1131838Y106208D01*
X1131651Y106229D01*
X1131465Y106254D01*
X1131279Y106283D01*
X1131094Y106317D01*
X1130909Y106356D01*
X1130726Y106398D01*
X1130544Y106446D01*
X1130363Y106497D01*
X1130183Y106553D01*
X1130005Y106614D01*
X1129828Y106678D01*
X1129653Y106747D01*
X1129479Y106820D01*
X1129308Y106897D01*
X1129138Y106979D01*
X1128970Y107064D01*
X1128805Y107154D01*
X1128641Y107247D01*
X1128480Y107344D01*
X1128322Y107446D01*
X1128165Y107551D01*
X1128012Y107660D01*
X1127861Y107772D01*
X1127713Y107888D01*
X1127567Y108008D01*
X1127425Y108131D01*
X1127286Y108257D01*
X1127149Y108387D01*
X1127016Y108520D01*
X1126886Y108657D01*
X1126760Y108796D01*
X1126637Y108938D01*
X1126517Y109084D01*
X1126401Y109232D01*
X1126289Y109383D01*
X1126180Y109536D01*
X1126075Y109693D01*
X1125973Y109851D01*
X1125876Y110012D01*
X1125783Y110176D01*
X1125693Y110341D01*
X1125608Y110509D01*
X1125526Y110679D01*
X1125449Y110850D01*
X1125376Y111024D01*
X1125307Y111199D01*
X1125243Y111376D01*
X1125182Y111554D01*
X1125126Y111734D01*
X1125075Y111915D01*
X1125027Y112097D01*
X1124985Y112280D01*
X1124946Y112465D01*
X1124912Y112650D01*
X1124883Y112836D01*
X1124858Y113022D01*
X1124837Y113209D01*
X1124821Y113397D01*
X1124810Y113585D01*
X1124803Y113773D01*
X1124801Y113961D01*
X1124801Y129540D01*
X1124803Y129728D01*
X1124810Y129916D01*
X1124821Y130104D01*
X1124837Y130292D01*
X1124858Y130479D01*
X1124883Y130665D01*
X1124912Y130851D01*
X1124946Y131036D01*
X1124985Y131221D01*
X1125027Y131404D01*
X1125075Y131586D01*
X1125126Y131767D01*
X1125182Y131947D01*
X1125243Y132125D01*
X1125307Y132302D01*
X1125376Y132477D01*
X1125449Y132651D01*
X1125526Y132822D01*
X1125608Y132992D01*
X1125693Y133160D01*
X1125783Y133325D01*
X1125876Y133489D01*
X1125973Y133650D01*
X1126075Y133808D01*
X1126180Y133965D01*
X1126289Y134118D01*
X1126401Y134269D01*
X1126517Y134417D01*
X1126637Y134563D01*
X1126760Y134705D01*
X1126886Y134844D01*
X1127016Y134981D01*
X1127149Y135114D01*
X1127286Y135244D01*
X1127425Y135370D01*
X1127567Y135493D01*
X1127713Y135613D01*
X1127861Y135729D01*
X1128012Y135841D01*
X1128165Y135950D01*
X1128322Y136055D01*
X1128480Y136157D01*
X1128641Y136254D01*
X1128805Y136347D01*
X1128970Y136437D01*
X1129138Y136522D01*
X1129308Y136604D01*
X1129479Y136681D01*
X1129653Y136754D01*
X1129828Y136823D01*
X1130005Y136887D01*
X1130183Y136948D01*
X1130363Y137004D01*
X1130544Y137055D01*
X1130726Y137103D01*
X1130909Y137145D01*
X1131094Y137184D01*
X1131279Y137218D01*
X1131465Y137247D01*
X1131651Y137272D01*
X1131838Y137293D01*
X1132026Y137309D01*
X1132214Y137320D01*
X1132402Y137327D01*
X1132590Y137329D01*
X1145572Y137329D01*
X1145572Y98383D01*
X1145570Y98192D01*
X1145563Y98001D01*
X1145551Y97810D01*
X1145534Y97620D01*
X1145513Y97430D01*
X1145488Y97240D01*
X1145457Y97051D01*
X1145422Y96863D01*
X1145383Y96676D01*
X1145339Y96490D01*
X1145290Y96306D01*
X1145237Y96122D01*
X1145179Y95940D01*
X1145117Y95759D01*
X1145050Y95580D01*
X1144979Y95402D01*
X1144904Y95227D01*
X1144824Y95053D01*
X1144740Y94881D01*
X1144652Y94711D01*
X1144560Y94544D01*
X1144464Y94379D01*
X1144364Y94216D01*
X1144259Y94056D01*
X1144151Y93898D01*
X1144039Y93743D01*
X1143923Y93591D01*
X1143804Y93442D01*
X1143681Y93295D01*
X1143554Y93152D01*
X1143424Y93012D01*
X1143291Y92875D01*
X1143154Y92742D01*
X1143014Y92612D01*
X1142871Y92485D01*
X1142724Y92362D01*
X1142575Y92243D01*
X1142423Y92127D01*
X1142268Y92015D01*
X1142110Y91907D01*
X1141950Y91802D01*
X1141787Y91702D01*
X1141622Y91606D01*
X1141455Y91514D01*
X1141285Y91426D01*
X1141113Y91342D01*
X1140939Y91262D01*
X1140764Y91187D01*
X1140586Y91116D01*
X1140407Y91049D01*
X1140226Y90987D01*
X1140044Y90929D01*
X1139860Y90876D01*
X1139676Y90827D01*
X1139490Y90783D01*
X1139303Y90744D01*
X1139115Y90709D01*
X1138926Y90678D01*
X1138737Y90653D01*
X1138547Y90632D01*
X1138356Y90615D01*
X1138165Y90603D01*
X1137974Y90596D01*
X1137783Y90594D01*
X1137783Y90593D02*
X1127397Y90593D01*
X1160328Y106172D02*
X1160328Y152908D01*
X1160328Y137329D02*
X1173311Y137329D01*
X1173499Y137327D01*
X1173687Y137320D01*
X1173875Y137309D01*
X1174063Y137293D01*
X1174250Y137272D01*
X1174436Y137247D01*
X1174622Y137218D01*
X1174807Y137184D01*
X1174992Y137145D01*
X1175175Y137103D01*
X1175357Y137055D01*
X1175538Y137004D01*
X1175718Y136948D01*
X1175896Y136887D01*
X1176073Y136823D01*
X1176248Y136754D01*
X1176422Y136681D01*
X1176593Y136604D01*
X1176763Y136522D01*
X1176931Y136437D01*
X1177096Y136347D01*
X1177260Y136254D01*
X1177421Y136157D01*
X1177579Y136055D01*
X1177736Y135950D01*
X1177889Y135841D01*
X1178040Y135729D01*
X1178188Y135613D01*
X1178334Y135493D01*
X1178476Y135370D01*
X1178615Y135244D01*
X1178752Y135114D01*
X1178885Y134981D01*
X1179015Y134844D01*
X1179141Y134705D01*
X1179264Y134563D01*
X1179384Y134417D01*
X1179500Y134269D01*
X1179612Y134118D01*
X1179721Y133965D01*
X1179826Y133808D01*
X1179928Y133650D01*
X1180025Y133489D01*
X1180118Y133325D01*
X1180208Y133160D01*
X1180293Y132992D01*
X1180375Y132822D01*
X1180452Y132651D01*
X1180525Y132477D01*
X1180594Y132302D01*
X1180658Y132125D01*
X1180719Y131947D01*
X1180775Y131767D01*
X1180826Y131586D01*
X1180874Y131404D01*
X1180916Y131221D01*
X1180955Y131036D01*
X1180989Y130851D01*
X1181018Y130665D01*
X1181043Y130479D01*
X1181064Y130292D01*
X1181080Y130104D01*
X1181091Y129916D01*
X1181098Y129728D01*
X1181100Y129540D01*
X1181100Y106172D01*
X1192191Y137329D02*
X1207770Y137329D01*
X1197384Y152908D02*
X1197384Y113961D01*
X1197386Y113773D01*
X1197393Y113585D01*
X1197404Y113397D01*
X1197420Y113209D01*
X1197441Y113022D01*
X1197466Y112836D01*
X1197495Y112650D01*
X1197529Y112465D01*
X1197568Y112280D01*
X1197610Y112097D01*
X1197658Y111915D01*
X1197709Y111734D01*
X1197765Y111554D01*
X1197826Y111376D01*
X1197890Y111199D01*
X1197959Y111024D01*
X1198032Y110850D01*
X1198109Y110679D01*
X1198191Y110509D01*
X1198276Y110341D01*
X1198366Y110176D01*
X1198459Y110012D01*
X1198557Y109851D01*
X1198658Y109693D01*
X1198763Y109536D01*
X1198872Y109383D01*
X1198984Y109232D01*
X1199100Y109084D01*
X1199220Y108938D01*
X1199343Y108796D01*
X1199469Y108657D01*
X1199599Y108520D01*
X1199732Y108387D01*
X1199869Y108257D01*
X1200008Y108131D01*
X1200150Y108008D01*
X1200296Y107888D01*
X1200444Y107772D01*
X1200595Y107660D01*
X1200748Y107551D01*
X1200905Y107446D01*
X1201063Y107344D01*
X1201224Y107247D01*
X1201388Y107154D01*
X1201553Y107064D01*
X1201721Y106979D01*
X1201891Y106897D01*
X1202062Y106820D01*
X1202236Y106747D01*
X1202411Y106678D01*
X1202588Y106614D01*
X1202766Y106553D01*
X1202946Y106497D01*
X1203127Y106446D01*
X1203309Y106398D01*
X1203492Y106355D01*
X1203677Y106317D01*
X1203862Y106283D01*
X1204048Y106254D01*
X1204234Y106229D01*
X1204421Y106208D01*
X1204609Y106192D01*
X1204797Y106181D01*
X1204985Y106174D01*
X1205173Y106172D01*
X1207770Y106172D01*
D12*
X75946Y25146D02*
X55626Y25146D01*
X55626Y12446D01*
X75946Y12446D01*
X75946Y25146D01*
X74676Y18796D02*
X61976Y18796D01*
X56896Y18796D01*
X61976Y18796D02*
X61976Y23876D01*
X61976Y18796D02*
X61976Y13716D01*
X61976Y18796D02*
X69596Y23876D01*
X69596Y13716D01*
X61976Y18796D01*
X1243626Y25146D02*
X1263946Y25146D01*
X1243626Y25146D02*
X1243626Y12446D01*
X1263946Y12446D01*
X1263946Y25146D01*
X1262676Y18796D02*
X1249976Y18796D01*
X1244896Y18796D01*
X1249976Y18796D02*
X1249976Y23876D01*
X1249976Y18796D02*
X1249976Y13716D01*
X1249976Y18796D02*
X1257596Y23876D01*
X1257596Y13716D01*
X1249976Y18796D01*
X1375626Y25146D02*
X1395946Y25146D01*
X1375626Y25146D02*
X1375626Y12446D01*
X1395946Y12446D01*
X1395946Y25146D01*
X1394676Y18796D02*
X1381976Y18796D01*
X1376896Y18796D01*
X1381976Y18796D02*
X1381976Y23876D01*
X1381976Y18796D02*
X1381976Y13716D01*
X1381976Y18796D02*
X1389596Y23876D01*
X1389596Y13716D01*
X1381976Y18796D01*
X1507626Y25146D02*
X1527946Y25146D01*
X1507626Y25146D02*
X1507626Y12446D01*
X1527946Y12446D01*
X1527946Y25146D01*
X1526676Y18796D02*
X1513976Y18796D01*
X1508896Y18796D01*
X1513976Y18796D02*
X1513976Y23876D01*
X1513976Y18796D02*
X1513976Y13716D01*
X1513976Y18796D02*
X1521596Y23876D01*
X1521596Y13716D01*
X1513976Y18796D01*
X207946Y25146D02*
X187626Y25146D01*
X187626Y12446D01*
X207946Y12446D01*
X207946Y25146D01*
X206676Y18796D02*
X193976Y18796D01*
X188896Y18796D01*
X193976Y18796D02*
X193976Y23876D01*
X193976Y18796D02*
X193976Y13716D01*
X193976Y18796D02*
X201596Y23876D01*
X201596Y13716D01*
X193976Y18796D01*
X319626Y25146D02*
X339946Y25146D01*
X319626Y25146D02*
X319626Y12446D01*
X339946Y12446D01*
X339946Y25146D01*
X338676Y18796D02*
X325976Y18796D01*
X320896Y18796D01*
X325976Y18796D02*
X325976Y23876D01*
X325976Y18796D02*
X325976Y13716D01*
X325976Y18796D02*
X333596Y23876D01*
X333596Y13716D01*
X325976Y18796D01*
X451626Y25146D02*
X471946Y25146D01*
X451626Y25146D02*
X451626Y12446D01*
X471946Y12446D01*
X471946Y25146D01*
X470676Y18796D02*
X457976Y18796D01*
X452896Y18796D01*
X457976Y18796D02*
X457976Y23876D01*
X457976Y18796D02*
X457976Y13716D01*
X457976Y18796D02*
X465596Y23876D01*
X465596Y13716D01*
X457976Y18796D01*
X583626Y25146D02*
X603946Y25146D01*
X583626Y25146D02*
X583626Y12446D01*
X603946Y12446D01*
X603946Y25146D01*
X602676Y18796D02*
X589976Y18796D01*
X584896Y18796D01*
X589976Y18796D02*
X589976Y23876D01*
X589976Y18796D02*
X589976Y13716D01*
X589976Y18796D02*
X597596Y23876D01*
X597596Y13716D01*
X589976Y18796D01*
X715626Y25146D02*
X735946Y25146D01*
X715626Y25146D02*
X715626Y12446D01*
X735946Y12446D01*
X735946Y25146D01*
X734676Y18796D02*
X721976Y18796D01*
X716896Y18796D01*
X721976Y18796D02*
X721976Y23876D01*
X721976Y18796D02*
X721976Y13716D01*
X721976Y18796D02*
X729596Y23876D01*
X729596Y13716D01*
X721976Y18796D01*
X847626Y25146D02*
X867946Y25146D01*
X847626Y25146D02*
X847626Y12446D01*
X867946Y12446D01*
X867946Y25146D01*
X866676Y18796D02*
X853976Y18796D01*
X848896Y18796D01*
X853976Y18796D02*
X853976Y23876D01*
X853976Y18796D02*
X853976Y13716D01*
X853976Y18796D02*
X861596Y23876D01*
X861596Y13716D01*
X853976Y18796D01*
X979626Y25146D02*
X999946Y25146D01*
X979626Y25146D02*
X979626Y12446D01*
X999946Y12446D01*
X999946Y25146D01*
X998676Y18796D02*
X985976Y18796D01*
X980896Y18796D01*
X985976Y18796D02*
X985976Y23876D01*
X985976Y18796D02*
X985976Y13716D01*
X985976Y18796D02*
X993596Y23876D01*
X993596Y13716D01*
X985976Y18796D01*
X1111626Y25146D02*
X1131946Y25146D01*
X1111626Y25146D02*
X1111626Y12446D01*
X1131946Y12446D01*
X1131946Y25146D01*
X1130676Y18796D02*
X1117976Y18796D01*
X1112896Y18796D01*
X1117976Y18796D02*
X1117976Y23876D01*
X1117976Y18796D02*
X1117976Y13716D01*
X1117976Y18796D02*
X1125596Y23876D01*
X1125596Y13716D01*
X1117976Y18796D01*
X732220Y105980D02*
X616520Y105980D01*
X732220Y105980D02*
X732220Y157980D01*
X616520Y157980D01*
X616520Y105980D01*
X617220Y125730D02*
X617378Y125732D01*
X617537Y125738D01*
X617695Y125748D01*
X617852Y125762D01*
X618010Y125779D01*
X618166Y125801D01*
X618323Y125826D01*
X618478Y125856D01*
X618633Y125889D01*
X618787Y125926D01*
X618940Y125967D01*
X619092Y126012D01*
X619242Y126061D01*
X619392Y126113D01*
X619540Y126169D01*
X619687Y126229D01*
X619832Y126292D01*
X619975Y126359D01*
X620117Y126429D01*
X620257Y126503D01*
X620395Y126581D01*
X620531Y126662D01*
X620665Y126746D01*
X620797Y126833D01*
X620927Y126924D01*
X621054Y127018D01*
X621179Y127115D01*
X621302Y127216D01*
X621422Y127319D01*
X621539Y127425D01*
X621654Y127534D01*
X621766Y127646D01*
X621875Y127761D01*
X621981Y127878D01*
X622084Y127998D01*
X622185Y128121D01*
X622282Y128246D01*
X622376Y128373D01*
X622467Y128503D01*
X622554Y128635D01*
X622638Y128769D01*
X622719Y128905D01*
X622797Y129043D01*
X622871Y129183D01*
X622941Y129325D01*
X623008Y129468D01*
X623071Y129613D01*
X623131Y129760D01*
X623187Y129908D01*
X623239Y130058D01*
X623288Y130208D01*
X623333Y130360D01*
X623374Y130513D01*
X623411Y130667D01*
X623444Y130822D01*
X623474Y130977D01*
X623499Y131134D01*
X623521Y131290D01*
X623538Y131448D01*
X623552Y131605D01*
X623562Y131763D01*
X623568Y131922D01*
X623570Y132080D01*
X623568Y132238D01*
X623562Y132397D01*
X623552Y132555D01*
X623538Y132712D01*
X623521Y132870D01*
X623499Y133026D01*
X623474Y133183D01*
X623444Y133338D01*
X623411Y133493D01*
X623374Y133647D01*
X623333Y133800D01*
X623288Y133952D01*
X623239Y134102D01*
X623187Y134252D01*
X623131Y134400D01*
X623071Y134547D01*
X623008Y134692D01*
X622941Y134835D01*
X622871Y134977D01*
X622797Y135117D01*
X622719Y135255D01*
X622638Y135391D01*
X622554Y135525D01*
X622467Y135657D01*
X622376Y135787D01*
X622282Y135914D01*
X622185Y136039D01*
X622084Y136162D01*
X621981Y136282D01*
X621875Y136399D01*
X621766Y136514D01*
X621654Y136626D01*
X621539Y136735D01*
X621422Y136841D01*
X621302Y136944D01*
X621179Y137045D01*
X621054Y137142D01*
X620927Y137236D01*
X620797Y137327D01*
X620665Y137414D01*
X620531Y137498D01*
X620395Y137579D01*
X620257Y137657D01*
X620117Y137731D01*
X619975Y137801D01*
X619832Y137868D01*
X619687Y137931D01*
X619540Y137991D01*
X619392Y138047D01*
X619242Y138099D01*
X619092Y138148D01*
X618940Y138193D01*
X618787Y138234D01*
X618633Y138271D01*
X618478Y138304D01*
X618323Y138334D01*
X618166Y138359D01*
X618010Y138381D01*
X617852Y138398D01*
X617695Y138412D01*
X617537Y138422D01*
X617378Y138428D01*
X617220Y138430D01*
X1259140Y100900D02*
X1374840Y100900D01*
X1374840Y152900D01*
X1259140Y152900D01*
X1259140Y100900D01*
X1259840Y120650D02*
X1259998Y120652D01*
X1260157Y120658D01*
X1260315Y120668D01*
X1260472Y120682D01*
X1260630Y120699D01*
X1260786Y120721D01*
X1260943Y120746D01*
X1261098Y120776D01*
X1261253Y120809D01*
X1261407Y120846D01*
X1261560Y120887D01*
X1261712Y120932D01*
X1261862Y120981D01*
X1262012Y121033D01*
X1262160Y121089D01*
X1262307Y121149D01*
X1262452Y121212D01*
X1262595Y121279D01*
X1262737Y121349D01*
X1262877Y121423D01*
X1263015Y121501D01*
X1263151Y121582D01*
X1263285Y121666D01*
X1263417Y121753D01*
X1263547Y121844D01*
X1263674Y121938D01*
X1263799Y122035D01*
X1263922Y122136D01*
X1264042Y122239D01*
X1264159Y122345D01*
X1264274Y122454D01*
X1264386Y122566D01*
X1264495Y122681D01*
X1264601Y122798D01*
X1264704Y122918D01*
X1264805Y123041D01*
X1264902Y123166D01*
X1264996Y123293D01*
X1265087Y123423D01*
X1265174Y123555D01*
X1265258Y123689D01*
X1265339Y123825D01*
X1265417Y123963D01*
X1265491Y124103D01*
X1265561Y124245D01*
X1265628Y124388D01*
X1265691Y124533D01*
X1265751Y124680D01*
X1265807Y124828D01*
X1265859Y124978D01*
X1265908Y125128D01*
X1265953Y125280D01*
X1265994Y125433D01*
X1266031Y125587D01*
X1266064Y125742D01*
X1266094Y125897D01*
X1266119Y126054D01*
X1266141Y126210D01*
X1266158Y126368D01*
X1266172Y126525D01*
X1266182Y126683D01*
X1266188Y126842D01*
X1266190Y127000D01*
X1266188Y127158D01*
X1266182Y127317D01*
X1266172Y127475D01*
X1266158Y127632D01*
X1266141Y127790D01*
X1266119Y127946D01*
X1266094Y128103D01*
X1266064Y128258D01*
X1266031Y128413D01*
X1265994Y128567D01*
X1265953Y128720D01*
X1265908Y128872D01*
X1265859Y129022D01*
X1265807Y129172D01*
X1265751Y129320D01*
X1265691Y129467D01*
X1265628Y129612D01*
X1265561Y129755D01*
X1265491Y129897D01*
X1265417Y130037D01*
X1265339Y130175D01*
X1265258Y130311D01*
X1265174Y130445D01*
X1265087Y130577D01*
X1264996Y130707D01*
X1264902Y130834D01*
X1264805Y130959D01*
X1264704Y131082D01*
X1264601Y131202D01*
X1264495Y131319D01*
X1264386Y131434D01*
X1264274Y131546D01*
X1264159Y131655D01*
X1264042Y131761D01*
X1263922Y131864D01*
X1263799Y131965D01*
X1263674Y132062D01*
X1263547Y132156D01*
X1263417Y132247D01*
X1263285Y132334D01*
X1263151Y132418D01*
X1263015Y132499D01*
X1262877Y132577D01*
X1262737Y132651D01*
X1262595Y132721D01*
X1262452Y132788D01*
X1262307Y132851D01*
X1262160Y132911D01*
X1262012Y132967D01*
X1261862Y133019D01*
X1261712Y133068D01*
X1261560Y133113D01*
X1261407Y133154D01*
X1261253Y133191D01*
X1261098Y133224D01*
X1260943Y133254D01*
X1260786Y133279D01*
X1260630Y133301D01*
X1260472Y133318D01*
X1260315Y133332D01*
X1260157Y133342D01*
X1259998Y133348D01*
X1259840Y133350D01*
X744440Y34180D02*
X708440Y34180D01*
X744440Y34180D02*
X744440Y52180D01*
X708440Y52180D01*
X708440Y34180D01*
D13*
X714796Y56070D02*
X716433Y61799D01*
X714796Y56070D02*
X718889Y56070D01*
X717661Y57707D02*
X717661Y54433D01*
X722112Y60981D02*
X722112Y61799D01*
X726204Y61799D01*
X724158Y54433D01*
X729427Y58116D02*
X729429Y58269D01*
X729435Y58422D01*
X729444Y58574D01*
X729458Y58727D01*
X729475Y58879D01*
X729496Y59030D01*
X729521Y59181D01*
X729550Y59331D01*
X729582Y59481D01*
X729619Y59629D01*
X729659Y59777D01*
X729702Y59924D01*
X729750Y60069D01*
X729801Y60213D01*
X729855Y60356D01*
X729914Y60498D01*
X729975Y60637D01*
X730041Y60776D01*
X730067Y60846D01*
X730097Y60916D01*
X730130Y60983D01*
X730166Y61049D01*
X730205Y61113D01*
X730248Y61175D01*
X730294Y61234D01*
X730342Y61292D01*
X730393Y61346D01*
X730447Y61399D01*
X730504Y61448D01*
X730563Y61495D01*
X730624Y61538D01*
X730687Y61579D01*
X730752Y61616D01*
X730819Y61651D01*
X730888Y61681D01*
X730958Y61709D01*
X731029Y61732D01*
X731101Y61753D01*
X731174Y61769D01*
X731248Y61782D01*
X731323Y61792D01*
X731398Y61797D01*
X731473Y61799D01*
X731548Y61797D01*
X731623Y61792D01*
X731698Y61782D01*
X731772Y61769D01*
X731845Y61753D01*
X731917Y61732D01*
X731988Y61709D01*
X732058Y61681D01*
X732127Y61651D01*
X732194Y61616D01*
X732259Y61579D01*
X732322Y61538D01*
X732383Y61495D01*
X732442Y61448D01*
X732499Y61399D01*
X732553Y61346D01*
X732604Y61292D01*
X732653Y61234D01*
X732698Y61175D01*
X732741Y61113D01*
X732780Y61049D01*
X732817Y60983D01*
X732849Y60915D01*
X732879Y60846D01*
X732905Y60776D01*
X732970Y60638D01*
X733032Y60498D01*
X733090Y60356D01*
X733145Y60213D01*
X733196Y60069D01*
X733244Y59924D01*
X733287Y59777D01*
X733327Y59630D01*
X733364Y59481D01*
X733396Y59331D01*
X733425Y59181D01*
X733450Y59030D01*
X733471Y58879D01*
X733488Y58727D01*
X733502Y58574D01*
X733511Y58422D01*
X733517Y58269D01*
X733519Y58116D01*
X729426Y58116D02*
X729428Y57963D01*
X729434Y57810D01*
X729443Y57657D01*
X729457Y57505D01*
X729474Y57353D01*
X729495Y57202D01*
X729520Y57051D01*
X729549Y56900D01*
X729581Y56751D01*
X729618Y56602D01*
X729658Y56455D01*
X729701Y56308D01*
X729749Y56163D01*
X729800Y56018D01*
X729855Y55876D01*
X729913Y55734D01*
X729975Y55594D01*
X730040Y55456D01*
X730041Y55456D02*
X730067Y55385D01*
X730097Y55316D01*
X730130Y55249D01*
X730166Y55183D01*
X730205Y55119D01*
X730248Y55057D01*
X730294Y54998D01*
X730342Y54940D01*
X730393Y54886D01*
X730447Y54833D01*
X730504Y54784D01*
X730563Y54737D01*
X730624Y54694D01*
X730687Y54653D01*
X730752Y54616D01*
X730819Y54581D01*
X730888Y54551D01*
X730958Y54523D01*
X731029Y54500D01*
X731101Y54479D01*
X731174Y54463D01*
X731248Y54450D01*
X731323Y54440D01*
X731398Y54435D01*
X731473Y54433D01*
X732905Y55456D02*
X732970Y55594D01*
X733032Y55734D01*
X733090Y55876D01*
X733145Y56019D01*
X733196Y56163D01*
X733244Y56308D01*
X733287Y56455D01*
X733327Y56603D01*
X733364Y56751D01*
X733396Y56901D01*
X733425Y57051D01*
X733450Y57202D01*
X733471Y57353D01*
X733488Y57505D01*
X733502Y57658D01*
X733511Y57810D01*
X733517Y57963D01*
X733519Y58116D01*
X732905Y55456D02*
X732879Y55386D01*
X732849Y55316D01*
X732817Y55249D01*
X732780Y55183D01*
X732741Y55119D01*
X732698Y55057D01*
X732652Y54998D01*
X732604Y54940D01*
X732553Y54886D01*
X732499Y54833D01*
X732442Y54784D01*
X732383Y54737D01*
X732322Y54694D01*
X732259Y54653D01*
X732194Y54616D01*
X732127Y54581D01*
X732058Y54551D01*
X731988Y54523D01*
X731917Y54500D01*
X731845Y54479D01*
X731772Y54463D01*
X731698Y54450D01*
X731623Y54440D01*
X731548Y54435D01*
X731473Y54433D01*
X729836Y56070D02*
X733110Y60162D01*
D12*
X840520Y34180D02*
X876520Y34180D01*
X876520Y52180D01*
X840520Y52180D01*
X840520Y34180D01*
D13*
X849416Y58610D02*
X851053Y64339D01*
X849416Y58610D02*
X853509Y58610D01*
X852281Y60247D02*
X852281Y56973D01*
X856732Y63521D02*
X856732Y64339D01*
X860824Y64339D01*
X858778Y56973D01*
X864047Y60656D02*
X864049Y60809D01*
X864055Y60962D01*
X864064Y61114D01*
X864078Y61267D01*
X864095Y61419D01*
X864116Y61570D01*
X864141Y61721D01*
X864170Y61871D01*
X864202Y62021D01*
X864239Y62169D01*
X864279Y62317D01*
X864322Y62464D01*
X864370Y62609D01*
X864421Y62753D01*
X864475Y62896D01*
X864534Y63038D01*
X864595Y63177D01*
X864661Y63316D01*
X864687Y63386D01*
X864717Y63456D01*
X864750Y63523D01*
X864786Y63589D01*
X864825Y63653D01*
X864868Y63715D01*
X864914Y63774D01*
X864962Y63832D01*
X865013Y63886D01*
X865067Y63939D01*
X865124Y63988D01*
X865183Y64035D01*
X865244Y64078D01*
X865307Y64119D01*
X865372Y64156D01*
X865439Y64191D01*
X865508Y64221D01*
X865578Y64249D01*
X865649Y64272D01*
X865721Y64293D01*
X865794Y64309D01*
X865868Y64322D01*
X865943Y64332D01*
X866018Y64337D01*
X866093Y64339D01*
X866168Y64337D01*
X866243Y64332D01*
X866318Y64322D01*
X866392Y64309D01*
X866465Y64293D01*
X866537Y64272D01*
X866608Y64249D01*
X866678Y64221D01*
X866747Y64191D01*
X866814Y64156D01*
X866879Y64119D01*
X866942Y64078D01*
X867003Y64035D01*
X867062Y63988D01*
X867119Y63939D01*
X867173Y63886D01*
X867224Y63832D01*
X867273Y63774D01*
X867318Y63715D01*
X867361Y63653D01*
X867400Y63589D01*
X867437Y63523D01*
X867469Y63455D01*
X867499Y63386D01*
X867525Y63316D01*
X867590Y63178D01*
X867652Y63038D01*
X867710Y62896D01*
X867765Y62753D01*
X867816Y62609D01*
X867864Y62464D01*
X867907Y62317D01*
X867947Y62170D01*
X867984Y62021D01*
X868016Y61871D01*
X868045Y61721D01*
X868070Y61570D01*
X868091Y61419D01*
X868108Y61267D01*
X868122Y61114D01*
X868131Y60962D01*
X868137Y60809D01*
X868139Y60656D01*
X864046Y60656D02*
X864048Y60503D01*
X864054Y60350D01*
X864063Y60197D01*
X864077Y60045D01*
X864094Y59893D01*
X864115Y59742D01*
X864140Y59591D01*
X864169Y59440D01*
X864201Y59291D01*
X864238Y59142D01*
X864278Y58995D01*
X864321Y58848D01*
X864369Y58703D01*
X864420Y58558D01*
X864475Y58416D01*
X864533Y58274D01*
X864595Y58134D01*
X864660Y57996D01*
X864661Y57996D02*
X864687Y57925D01*
X864717Y57856D01*
X864750Y57789D01*
X864786Y57723D01*
X864825Y57659D01*
X864868Y57597D01*
X864914Y57538D01*
X864962Y57480D01*
X865013Y57426D01*
X865067Y57373D01*
X865124Y57324D01*
X865183Y57277D01*
X865244Y57234D01*
X865307Y57193D01*
X865372Y57156D01*
X865439Y57121D01*
X865508Y57091D01*
X865578Y57063D01*
X865649Y57040D01*
X865721Y57019D01*
X865794Y57003D01*
X865868Y56990D01*
X865943Y56980D01*
X866018Y56975D01*
X866093Y56973D01*
X867525Y57996D02*
X867590Y58134D01*
X867652Y58274D01*
X867710Y58416D01*
X867765Y58559D01*
X867816Y58703D01*
X867864Y58848D01*
X867907Y58995D01*
X867947Y59143D01*
X867984Y59291D01*
X868016Y59441D01*
X868045Y59591D01*
X868070Y59742D01*
X868091Y59893D01*
X868108Y60045D01*
X868122Y60198D01*
X868131Y60350D01*
X868137Y60503D01*
X868139Y60656D01*
X867525Y57996D02*
X867499Y57926D01*
X867469Y57856D01*
X867437Y57789D01*
X867400Y57723D01*
X867361Y57659D01*
X867318Y57597D01*
X867272Y57538D01*
X867224Y57480D01*
X867173Y57426D01*
X867119Y57373D01*
X867062Y57324D01*
X867003Y57277D01*
X866942Y57234D01*
X866879Y57193D01*
X866814Y57156D01*
X866747Y57121D01*
X866678Y57091D01*
X866608Y57063D01*
X866537Y57040D01*
X866465Y57019D01*
X866392Y57003D01*
X866318Y56990D01*
X866243Y56980D01*
X866168Y56975D01*
X866093Y56973D01*
X864456Y58610D02*
X867730Y62702D01*
D12*
X972600Y34180D02*
X1008600Y34180D01*
X1008600Y52180D01*
X972600Y52180D01*
X972600Y34180D01*
D13*
X978956Y56070D02*
X980593Y61799D01*
X978956Y56070D02*
X983049Y56070D01*
X981821Y57707D02*
X981821Y54433D01*
X986272Y60981D02*
X986272Y61799D01*
X990364Y61799D01*
X988318Y54433D01*
X993587Y58116D02*
X993589Y58269D01*
X993595Y58422D01*
X993604Y58574D01*
X993618Y58727D01*
X993635Y58879D01*
X993656Y59030D01*
X993681Y59181D01*
X993710Y59331D01*
X993742Y59481D01*
X993779Y59629D01*
X993819Y59777D01*
X993862Y59924D01*
X993910Y60069D01*
X993961Y60213D01*
X994015Y60356D01*
X994074Y60498D01*
X994135Y60637D01*
X994201Y60776D01*
X994227Y60846D01*
X994257Y60916D01*
X994290Y60983D01*
X994326Y61049D01*
X994365Y61113D01*
X994408Y61175D01*
X994454Y61234D01*
X994502Y61292D01*
X994553Y61346D01*
X994607Y61399D01*
X994664Y61448D01*
X994723Y61495D01*
X994784Y61538D01*
X994847Y61579D01*
X994912Y61616D01*
X994979Y61651D01*
X995048Y61681D01*
X995118Y61709D01*
X995189Y61732D01*
X995261Y61753D01*
X995334Y61769D01*
X995408Y61782D01*
X995483Y61792D01*
X995558Y61797D01*
X995633Y61799D01*
X995708Y61797D01*
X995783Y61792D01*
X995858Y61782D01*
X995932Y61769D01*
X996005Y61753D01*
X996077Y61732D01*
X996148Y61709D01*
X996218Y61681D01*
X996287Y61651D01*
X996354Y61616D01*
X996419Y61579D01*
X996482Y61538D01*
X996543Y61495D01*
X996602Y61448D01*
X996659Y61399D01*
X996713Y61346D01*
X996764Y61292D01*
X996813Y61234D01*
X996858Y61175D01*
X996901Y61113D01*
X996940Y61049D01*
X996977Y60983D01*
X997009Y60915D01*
X997039Y60846D01*
X997065Y60776D01*
X997130Y60638D01*
X997192Y60498D01*
X997250Y60356D01*
X997305Y60213D01*
X997356Y60069D01*
X997404Y59924D01*
X997447Y59777D01*
X997487Y59630D01*
X997524Y59481D01*
X997556Y59331D01*
X997585Y59181D01*
X997610Y59030D01*
X997631Y58879D01*
X997648Y58727D01*
X997662Y58574D01*
X997671Y58422D01*
X997677Y58269D01*
X997679Y58116D01*
X993586Y58116D02*
X993588Y57963D01*
X993594Y57810D01*
X993603Y57657D01*
X993617Y57505D01*
X993634Y57353D01*
X993655Y57202D01*
X993680Y57051D01*
X993709Y56900D01*
X993741Y56751D01*
X993778Y56602D01*
X993818Y56455D01*
X993861Y56308D01*
X993909Y56163D01*
X993960Y56018D01*
X994015Y55876D01*
X994073Y55734D01*
X994135Y55594D01*
X994200Y55456D01*
X994201Y55456D02*
X994227Y55385D01*
X994257Y55316D01*
X994290Y55249D01*
X994326Y55183D01*
X994365Y55119D01*
X994408Y55057D01*
X994454Y54998D01*
X994502Y54940D01*
X994553Y54886D01*
X994607Y54833D01*
X994664Y54784D01*
X994723Y54737D01*
X994784Y54694D01*
X994847Y54653D01*
X994912Y54616D01*
X994979Y54581D01*
X995048Y54551D01*
X995118Y54523D01*
X995189Y54500D01*
X995261Y54479D01*
X995334Y54463D01*
X995408Y54450D01*
X995483Y54440D01*
X995558Y54435D01*
X995633Y54433D01*
X997065Y55456D02*
X997130Y55594D01*
X997192Y55734D01*
X997250Y55876D01*
X997305Y56019D01*
X997356Y56163D01*
X997404Y56308D01*
X997447Y56455D01*
X997487Y56603D01*
X997524Y56751D01*
X997556Y56901D01*
X997585Y57051D01*
X997610Y57202D01*
X997631Y57353D01*
X997648Y57505D01*
X997662Y57658D01*
X997671Y57810D01*
X997677Y57963D01*
X997679Y58116D01*
X997065Y55456D02*
X997039Y55386D01*
X997009Y55316D01*
X996977Y55249D01*
X996940Y55183D01*
X996901Y55119D01*
X996858Y55057D01*
X996812Y54998D01*
X996764Y54940D01*
X996713Y54886D01*
X996659Y54833D01*
X996602Y54784D01*
X996543Y54737D01*
X996482Y54694D01*
X996419Y54653D01*
X996354Y54616D01*
X996287Y54581D01*
X996218Y54551D01*
X996148Y54523D01*
X996077Y54500D01*
X996005Y54479D01*
X995932Y54463D01*
X995858Y54450D01*
X995783Y54440D01*
X995708Y54435D01*
X995633Y54433D01*
X993996Y56070D02*
X997270Y60162D01*
D12*
X1104680Y34180D02*
X1140680Y34180D01*
X1140680Y52180D01*
X1104680Y52180D01*
X1104680Y34180D01*
D13*
X1113576Y56070D02*
X1115213Y61799D01*
X1113576Y56070D02*
X1117669Y56070D01*
X1116441Y57707D02*
X1116441Y54433D01*
X1120892Y60981D02*
X1120892Y61799D01*
X1124984Y61799D01*
X1122938Y54433D01*
X1128207Y58116D02*
X1128209Y58269D01*
X1128215Y58422D01*
X1128224Y58574D01*
X1128238Y58727D01*
X1128255Y58879D01*
X1128276Y59030D01*
X1128301Y59181D01*
X1128330Y59331D01*
X1128362Y59481D01*
X1128399Y59629D01*
X1128439Y59777D01*
X1128482Y59924D01*
X1128530Y60069D01*
X1128581Y60213D01*
X1128635Y60356D01*
X1128694Y60498D01*
X1128755Y60637D01*
X1128821Y60776D01*
X1128847Y60846D01*
X1128877Y60916D01*
X1128910Y60983D01*
X1128946Y61049D01*
X1128985Y61113D01*
X1129028Y61175D01*
X1129074Y61234D01*
X1129122Y61292D01*
X1129173Y61346D01*
X1129227Y61399D01*
X1129284Y61448D01*
X1129343Y61495D01*
X1129404Y61538D01*
X1129467Y61579D01*
X1129532Y61616D01*
X1129599Y61651D01*
X1129668Y61681D01*
X1129738Y61709D01*
X1129809Y61732D01*
X1129881Y61753D01*
X1129954Y61769D01*
X1130028Y61782D01*
X1130103Y61792D01*
X1130178Y61797D01*
X1130253Y61799D01*
X1130328Y61797D01*
X1130403Y61792D01*
X1130478Y61782D01*
X1130552Y61769D01*
X1130625Y61753D01*
X1130697Y61732D01*
X1130768Y61709D01*
X1130838Y61681D01*
X1130907Y61651D01*
X1130974Y61616D01*
X1131039Y61579D01*
X1131102Y61538D01*
X1131163Y61495D01*
X1131222Y61448D01*
X1131279Y61399D01*
X1131333Y61346D01*
X1131384Y61292D01*
X1131433Y61234D01*
X1131478Y61175D01*
X1131521Y61113D01*
X1131560Y61049D01*
X1131597Y60983D01*
X1131629Y60915D01*
X1131659Y60846D01*
X1131685Y60776D01*
X1131750Y60638D01*
X1131812Y60498D01*
X1131870Y60356D01*
X1131925Y60213D01*
X1131976Y60069D01*
X1132024Y59924D01*
X1132067Y59777D01*
X1132107Y59630D01*
X1132144Y59481D01*
X1132176Y59331D01*
X1132205Y59181D01*
X1132230Y59030D01*
X1132251Y58879D01*
X1132268Y58727D01*
X1132282Y58574D01*
X1132291Y58422D01*
X1132297Y58269D01*
X1132299Y58116D01*
X1128206Y58116D02*
X1128208Y57963D01*
X1128214Y57810D01*
X1128223Y57657D01*
X1128237Y57505D01*
X1128254Y57353D01*
X1128275Y57202D01*
X1128300Y57051D01*
X1128329Y56900D01*
X1128361Y56751D01*
X1128398Y56602D01*
X1128438Y56455D01*
X1128481Y56308D01*
X1128529Y56163D01*
X1128580Y56018D01*
X1128635Y55876D01*
X1128693Y55734D01*
X1128755Y55594D01*
X1128820Y55456D01*
X1128821Y55456D02*
X1128847Y55385D01*
X1128877Y55316D01*
X1128910Y55249D01*
X1128946Y55183D01*
X1128985Y55119D01*
X1129028Y55057D01*
X1129074Y54998D01*
X1129122Y54940D01*
X1129173Y54886D01*
X1129227Y54833D01*
X1129284Y54784D01*
X1129343Y54737D01*
X1129404Y54694D01*
X1129467Y54653D01*
X1129532Y54616D01*
X1129599Y54581D01*
X1129668Y54551D01*
X1129738Y54523D01*
X1129809Y54500D01*
X1129881Y54479D01*
X1129954Y54463D01*
X1130028Y54450D01*
X1130103Y54440D01*
X1130178Y54435D01*
X1130253Y54433D01*
X1131685Y55456D02*
X1131750Y55594D01*
X1131812Y55734D01*
X1131870Y55876D01*
X1131925Y56019D01*
X1131976Y56163D01*
X1132024Y56308D01*
X1132067Y56455D01*
X1132107Y56603D01*
X1132144Y56751D01*
X1132176Y56901D01*
X1132205Y57051D01*
X1132230Y57202D01*
X1132251Y57353D01*
X1132268Y57505D01*
X1132282Y57658D01*
X1132291Y57810D01*
X1132297Y57963D01*
X1132299Y58116D01*
X1131685Y55456D02*
X1131659Y55386D01*
X1131629Y55316D01*
X1131597Y55249D01*
X1131560Y55183D01*
X1131521Y55119D01*
X1131478Y55057D01*
X1131432Y54998D01*
X1131384Y54940D01*
X1131333Y54886D01*
X1131279Y54833D01*
X1131222Y54784D01*
X1131163Y54737D01*
X1131102Y54694D01*
X1131039Y54653D01*
X1130974Y54616D01*
X1130907Y54581D01*
X1130838Y54551D01*
X1130768Y54523D01*
X1130697Y54500D01*
X1130625Y54479D01*
X1130552Y54463D01*
X1130478Y54450D01*
X1130403Y54440D01*
X1130328Y54435D01*
X1130253Y54433D01*
X1128616Y56070D02*
X1131890Y60162D01*
D12*
X1368840Y34180D02*
X1404840Y34180D01*
X1404840Y52180D01*
X1368840Y52180D01*
X1368840Y34180D01*
D13*
X1377736Y56070D02*
X1379373Y61799D01*
X1377736Y56070D02*
X1381829Y56070D01*
X1380601Y57707D02*
X1380601Y54433D01*
X1385052Y60981D02*
X1385052Y61799D01*
X1389144Y61799D01*
X1387098Y54433D01*
X1392367Y58116D02*
X1392369Y58269D01*
X1392375Y58422D01*
X1392384Y58574D01*
X1392398Y58727D01*
X1392415Y58879D01*
X1392436Y59030D01*
X1392461Y59181D01*
X1392490Y59331D01*
X1392522Y59481D01*
X1392559Y59629D01*
X1392599Y59777D01*
X1392642Y59924D01*
X1392690Y60069D01*
X1392741Y60213D01*
X1392795Y60356D01*
X1392854Y60498D01*
X1392915Y60637D01*
X1392981Y60776D01*
X1393007Y60846D01*
X1393037Y60916D01*
X1393070Y60983D01*
X1393106Y61049D01*
X1393145Y61113D01*
X1393188Y61175D01*
X1393234Y61234D01*
X1393282Y61292D01*
X1393333Y61346D01*
X1393387Y61399D01*
X1393444Y61448D01*
X1393503Y61495D01*
X1393564Y61538D01*
X1393627Y61579D01*
X1393692Y61616D01*
X1393759Y61651D01*
X1393828Y61681D01*
X1393898Y61709D01*
X1393969Y61732D01*
X1394041Y61753D01*
X1394114Y61769D01*
X1394188Y61782D01*
X1394263Y61792D01*
X1394338Y61797D01*
X1394413Y61799D01*
X1394488Y61797D01*
X1394563Y61792D01*
X1394638Y61782D01*
X1394712Y61769D01*
X1394785Y61753D01*
X1394857Y61732D01*
X1394928Y61709D01*
X1394998Y61681D01*
X1395067Y61651D01*
X1395134Y61616D01*
X1395199Y61579D01*
X1395262Y61538D01*
X1395323Y61495D01*
X1395382Y61448D01*
X1395439Y61399D01*
X1395493Y61346D01*
X1395544Y61292D01*
X1395593Y61234D01*
X1395638Y61175D01*
X1395681Y61113D01*
X1395720Y61049D01*
X1395757Y60983D01*
X1395789Y60915D01*
X1395819Y60846D01*
X1395845Y60776D01*
X1395910Y60638D01*
X1395972Y60498D01*
X1396030Y60356D01*
X1396085Y60213D01*
X1396136Y60069D01*
X1396184Y59924D01*
X1396227Y59777D01*
X1396267Y59630D01*
X1396304Y59481D01*
X1396336Y59331D01*
X1396365Y59181D01*
X1396390Y59030D01*
X1396411Y58879D01*
X1396428Y58727D01*
X1396442Y58574D01*
X1396451Y58422D01*
X1396457Y58269D01*
X1396459Y58116D01*
X1392366Y58116D02*
X1392368Y57963D01*
X1392374Y57810D01*
X1392383Y57657D01*
X1392397Y57505D01*
X1392414Y57353D01*
X1392435Y57202D01*
X1392460Y57051D01*
X1392489Y56900D01*
X1392521Y56751D01*
X1392558Y56602D01*
X1392598Y56455D01*
X1392641Y56308D01*
X1392689Y56163D01*
X1392740Y56018D01*
X1392795Y55876D01*
X1392853Y55734D01*
X1392915Y55594D01*
X1392980Y55456D01*
X1392981Y55456D02*
X1393007Y55385D01*
X1393037Y55316D01*
X1393070Y55249D01*
X1393106Y55183D01*
X1393145Y55119D01*
X1393188Y55057D01*
X1393234Y54998D01*
X1393282Y54940D01*
X1393333Y54886D01*
X1393387Y54833D01*
X1393444Y54784D01*
X1393503Y54737D01*
X1393564Y54694D01*
X1393627Y54653D01*
X1393692Y54616D01*
X1393759Y54581D01*
X1393828Y54551D01*
X1393898Y54523D01*
X1393969Y54500D01*
X1394041Y54479D01*
X1394114Y54463D01*
X1394188Y54450D01*
X1394263Y54440D01*
X1394338Y54435D01*
X1394413Y54433D01*
X1395845Y55456D02*
X1395910Y55594D01*
X1395972Y55734D01*
X1396030Y55876D01*
X1396085Y56019D01*
X1396136Y56163D01*
X1396184Y56308D01*
X1396227Y56455D01*
X1396267Y56603D01*
X1396304Y56751D01*
X1396336Y56901D01*
X1396365Y57051D01*
X1396390Y57202D01*
X1396411Y57353D01*
X1396428Y57505D01*
X1396442Y57658D01*
X1396451Y57810D01*
X1396457Y57963D01*
X1396459Y58116D01*
X1395845Y55456D02*
X1395819Y55386D01*
X1395789Y55316D01*
X1395757Y55249D01*
X1395720Y55183D01*
X1395681Y55119D01*
X1395638Y55057D01*
X1395592Y54998D01*
X1395544Y54940D01*
X1395493Y54886D01*
X1395439Y54833D01*
X1395382Y54784D01*
X1395323Y54737D01*
X1395262Y54694D01*
X1395199Y54653D01*
X1395134Y54616D01*
X1395067Y54581D01*
X1394998Y54551D01*
X1394928Y54523D01*
X1394857Y54500D01*
X1394785Y54479D01*
X1394712Y54463D01*
X1394638Y54450D01*
X1394563Y54440D01*
X1394488Y54435D01*
X1394413Y54433D01*
X1392776Y56070D02*
X1396050Y60162D01*
D12*
X1272760Y34180D02*
X1236760Y34180D01*
X1272760Y34180D02*
X1272760Y52180D01*
X1236760Y52180D01*
X1236760Y34180D01*
D13*
X1245656Y56070D02*
X1247293Y61799D01*
X1245656Y56070D02*
X1249749Y56070D01*
X1248521Y57707D02*
X1248521Y54433D01*
X1252972Y60981D02*
X1252972Y61799D01*
X1257064Y61799D01*
X1255018Y54433D01*
X1260287Y58116D02*
X1260289Y58269D01*
X1260295Y58422D01*
X1260304Y58574D01*
X1260318Y58727D01*
X1260335Y58879D01*
X1260356Y59030D01*
X1260381Y59181D01*
X1260410Y59331D01*
X1260442Y59481D01*
X1260479Y59629D01*
X1260519Y59777D01*
X1260562Y59924D01*
X1260610Y60069D01*
X1260661Y60213D01*
X1260715Y60356D01*
X1260774Y60498D01*
X1260835Y60637D01*
X1260901Y60776D01*
X1260927Y60846D01*
X1260957Y60916D01*
X1260990Y60983D01*
X1261026Y61049D01*
X1261065Y61113D01*
X1261108Y61175D01*
X1261154Y61234D01*
X1261202Y61292D01*
X1261253Y61346D01*
X1261307Y61399D01*
X1261364Y61448D01*
X1261423Y61495D01*
X1261484Y61538D01*
X1261547Y61579D01*
X1261612Y61616D01*
X1261679Y61651D01*
X1261748Y61681D01*
X1261818Y61709D01*
X1261889Y61732D01*
X1261961Y61753D01*
X1262034Y61769D01*
X1262108Y61782D01*
X1262183Y61792D01*
X1262258Y61797D01*
X1262333Y61799D01*
X1262408Y61797D01*
X1262483Y61792D01*
X1262558Y61782D01*
X1262632Y61769D01*
X1262705Y61753D01*
X1262777Y61732D01*
X1262848Y61709D01*
X1262918Y61681D01*
X1262987Y61651D01*
X1263054Y61616D01*
X1263119Y61579D01*
X1263182Y61538D01*
X1263243Y61495D01*
X1263302Y61448D01*
X1263359Y61399D01*
X1263413Y61346D01*
X1263464Y61292D01*
X1263513Y61234D01*
X1263558Y61175D01*
X1263601Y61113D01*
X1263640Y61049D01*
X1263677Y60983D01*
X1263709Y60915D01*
X1263739Y60846D01*
X1263765Y60776D01*
X1263830Y60638D01*
X1263892Y60498D01*
X1263950Y60356D01*
X1264005Y60213D01*
X1264056Y60069D01*
X1264104Y59924D01*
X1264147Y59777D01*
X1264187Y59630D01*
X1264224Y59481D01*
X1264256Y59331D01*
X1264285Y59181D01*
X1264310Y59030D01*
X1264331Y58879D01*
X1264348Y58727D01*
X1264362Y58574D01*
X1264371Y58422D01*
X1264377Y58269D01*
X1264379Y58116D01*
X1260286Y58116D02*
X1260288Y57963D01*
X1260294Y57810D01*
X1260303Y57657D01*
X1260317Y57505D01*
X1260334Y57353D01*
X1260355Y57202D01*
X1260380Y57051D01*
X1260409Y56900D01*
X1260441Y56751D01*
X1260478Y56602D01*
X1260518Y56455D01*
X1260561Y56308D01*
X1260609Y56163D01*
X1260660Y56018D01*
X1260715Y55876D01*
X1260773Y55734D01*
X1260835Y55594D01*
X1260900Y55456D01*
X1260901Y55456D02*
X1260927Y55385D01*
X1260957Y55316D01*
X1260990Y55249D01*
X1261026Y55183D01*
X1261065Y55119D01*
X1261108Y55057D01*
X1261154Y54998D01*
X1261202Y54940D01*
X1261253Y54886D01*
X1261307Y54833D01*
X1261364Y54784D01*
X1261423Y54737D01*
X1261484Y54694D01*
X1261547Y54653D01*
X1261612Y54616D01*
X1261679Y54581D01*
X1261748Y54551D01*
X1261818Y54523D01*
X1261889Y54500D01*
X1261961Y54479D01*
X1262034Y54463D01*
X1262108Y54450D01*
X1262183Y54440D01*
X1262258Y54435D01*
X1262333Y54433D01*
X1263765Y55456D02*
X1263830Y55594D01*
X1263892Y55734D01*
X1263950Y55876D01*
X1264005Y56019D01*
X1264056Y56163D01*
X1264104Y56308D01*
X1264147Y56455D01*
X1264187Y56603D01*
X1264224Y56751D01*
X1264256Y56901D01*
X1264285Y57051D01*
X1264310Y57202D01*
X1264331Y57353D01*
X1264348Y57505D01*
X1264362Y57658D01*
X1264371Y57810D01*
X1264377Y57963D01*
X1264379Y58116D01*
X1263765Y55456D02*
X1263739Y55386D01*
X1263709Y55316D01*
X1263677Y55249D01*
X1263640Y55183D01*
X1263601Y55119D01*
X1263558Y55057D01*
X1263512Y54998D01*
X1263464Y54940D01*
X1263413Y54886D01*
X1263359Y54833D01*
X1263302Y54784D01*
X1263243Y54737D01*
X1263182Y54694D01*
X1263119Y54653D01*
X1263054Y54616D01*
X1262987Y54581D01*
X1262918Y54551D01*
X1262848Y54523D01*
X1262777Y54500D01*
X1262705Y54479D01*
X1262632Y54463D01*
X1262558Y54450D01*
X1262483Y54440D01*
X1262408Y54435D01*
X1262333Y54433D01*
X1260696Y56070D02*
X1263970Y60162D01*
D12*
X1500920Y34180D02*
X1536920Y34180D01*
X1536920Y52180D01*
X1500920Y52180D01*
X1500920Y34180D01*
D13*
X1507276Y56070D02*
X1508913Y61799D01*
X1507276Y56070D02*
X1511369Y56070D01*
X1510141Y57707D02*
X1510141Y54433D01*
X1514592Y60981D02*
X1514592Y61799D01*
X1518684Y61799D01*
X1516638Y54433D01*
X1521907Y58116D02*
X1521909Y58269D01*
X1521915Y58422D01*
X1521924Y58574D01*
X1521938Y58727D01*
X1521955Y58879D01*
X1521976Y59030D01*
X1522001Y59181D01*
X1522030Y59331D01*
X1522062Y59481D01*
X1522099Y59629D01*
X1522139Y59777D01*
X1522182Y59924D01*
X1522230Y60069D01*
X1522281Y60213D01*
X1522335Y60356D01*
X1522394Y60498D01*
X1522455Y60637D01*
X1522521Y60776D01*
X1522547Y60846D01*
X1522577Y60916D01*
X1522610Y60983D01*
X1522646Y61049D01*
X1522685Y61113D01*
X1522728Y61175D01*
X1522774Y61234D01*
X1522822Y61292D01*
X1522873Y61346D01*
X1522927Y61399D01*
X1522984Y61448D01*
X1523043Y61495D01*
X1523104Y61538D01*
X1523167Y61579D01*
X1523232Y61616D01*
X1523299Y61651D01*
X1523368Y61681D01*
X1523438Y61709D01*
X1523509Y61732D01*
X1523581Y61753D01*
X1523654Y61769D01*
X1523728Y61782D01*
X1523803Y61792D01*
X1523878Y61797D01*
X1523953Y61799D01*
X1524028Y61797D01*
X1524103Y61792D01*
X1524178Y61782D01*
X1524252Y61769D01*
X1524325Y61753D01*
X1524397Y61732D01*
X1524468Y61709D01*
X1524538Y61681D01*
X1524607Y61651D01*
X1524674Y61616D01*
X1524739Y61579D01*
X1524802Y61538D01*
X1524863Y61495D01*
X1524922Y61448D01*
X1524979Y61399D01*
X1525033Y61346D01*
X1525084Y61292D01*
X1525133Y61234D01*
X1525178Y61175D01*
X1525221Y61113D01*
X1525260Y61049D01*
X1525297Y60983D01*
X1525329Y60915D01*
X1525359Y60846D01*
X1525385Y60776D01*
X1525450Y60638D01*
X1525512Y60498D01*
X1525570Y60356D01*
X1525625Y60213D01*
X1525676Y60069D01*
X1525724Y59924D01*
X1525767Y59777D01*
X1525807Y59630D01*
X1525844Y59481D01*
X1525876Y59331D01*
X1525905Y59181D01*
X1525930Y59030D01*
X1525951Y58879D01*
X1525968Y58727D01*
X1525982Y58574D01*
X1525991Y58422D01*
X1525997Y58269D01*
X1525999Y58116D01*
X1521906Y58116D02*
X1521908Y57963D01*
X1521914Y57810D01*
X1521923Y57657D01*
X1521937Y57505D01*
X1521954Y57353D01*
X1521975Y57202D01*
X1522000Y57051D01*
X1522029Y56900D01*
X1522061Y56751D01*
X1522098Y56602D01*
X1522138Y56455D01*
X1522181Y56308D01*
X1522229Y56163D01*
X1522280Y56018D01*
X1522335Y55876D01*
X1522393Y55734D01*
X1522455Y55594D01*
X1522520Y55456D01*
X1522521Y55456D02*
X1522547Y55385D01*
X1522577Y55316D01*
X1522610Y55249D01*
X1522646Y55183D01*
X1522685Y55119D01*
X1522728Y55057D01*
X1522774Y54998D01*
X1522822Y54940D01*
X1522873Y54886D01*
X1522927Y54833D01*
X1522984Y54784D01*
X1523043Y54737D01*
X1523104Y54694D01*
X1523167Y54653D01*
X1523232Y54616D01*
X1523299Y54581D01*
X1523368Y54551D01*
X1523438Y54523D01*
X1523509Y54500D01*
X1523581Y54479D01*
X1523654Y54463D01*
X1523728Y54450D01*
X1523803Y54440D01*
X1523878Y54435D01*
X1523953Y54433D01*
X1525385Y55456D02*
X1525450Y55594D01*
X1525512Y55734D01*
X1525570Y55876D01*
X1525625Y56019D01*
X1525676Y56163D01*
X1525724Y56308D01*
X1525767Y56455D01*
X1525807Y56603D01*
X1525844Y56751D01*
X1525876Y56901D01*
X1525905Y57051D01*
X1525930Y57202D01*
X1525951Y57353D01*
X1525968Y57505D01*
X1525982Y57658D01*
X1525991Y57810D01*
X1525997Y57963D01*
X1525999Y58116D01*
X1525385Y55456D02*
X1525359Y55386D01*
X1525329Y55316D01*
X1525297Y55249D01*
X1525260Y55183D01*
X1525221Y55119D01*
X1525178Y55057D01*
X1525132Y54998D01*
X1525084Y54940D01*
X1525033Y54886D01*
X1524979Y54833D01*
X1524922Y54784D01*
X1524863Y54737D01*
X1524802Y54694D01*
X1524739Y54653D01*
X1524674Y54616D01*
X1524607Y54581D01*
X1524538Y54551D01*
X1524468Y54523D01*
X1524397Y54500D01*
X1524325Y54479D01*
X1524252Y54463D01*
X1524178Y54450D01*
X1524103Y54440D01*
X1524028Y54435D01*
X1523953Y54433D01*
X1522316Y56070D02*
X1525590Y60162D01*
D12*
X216120Y34180D02*
X180120Y34180D01*
X216120Y34180D02*
X216120Y52180D01*
X180120Y52180D01*
X180120Y34180D01*
D13*
X189016Y56070D02*
X190653Y61799D01*
X189016Y56070D02*
X193109Y56070D01*
X191881Y57707D02*
X191881Y54433D01*
X196332Y60981D02*
X196332Y61799D01*
X200424Y61799D01*
X198378Y54433D01*
X203647Y58116D02*
X203649Y58269D01*
X203655Y58422D01*
X203664Y58574D01*
X203678Y58727D01*
X203695Y58879D01*
X203716Y59030D01*
X203741Y59181D01*
X203770Y59331D01*
X203802Y59481D01*
X203839Y59629D01*
X203879Y59777D01*
X203922Y59924D01*
X203970Y60069D01*
X204021Y60213D01*
X204075Y60356D01*
X204134Y60498D01*
X204195Y60637D01*
X204261Y60776D01*
X204287Y60846D01*
X204317Y60916D01*
X204350Y60983D01*
X204386Y61049D01*
X204425Y61113D01*
X204468Y61175D01*
X204514Y61234D01*
X204562Y61292D01*
X204613Y61346D01*
X204667Y61399D01*
X204724Y61448D01*
X204783Y61495D01*
X204844Y61538D01*
X204907Y61579D01*
X204972Y61616D01*
X205039Y61651D01*
X205108Y61681D01*
X205178Y61709D01*
X205249Y61732D01*
X205321Y61753D01*
X205394Y61769D01*
X205468Y61782D01*
X205543Y61792D01*
X205618Y61797D01*
X205693Y61799D01*
X205768Y61797D01*
X205843Y61792D01*
X205918Y61782D01*
X205992Y61769D01*
X206065Y61753D01*
X206137Y61732D01*
X206208Y61709D01*
X206278Y61681D01*
X206347Y61651D01*
X206414Y61616D01*
X206479Y61579D01*
X206542Y61538D01*
X206603Y61495D01*
X206662Y61448D01*
X206719Y61399D01*
X206773Y61346D01*
X206824Y61292D01*
X206873Y61234D01*
X206918Y61175D01*
X206961Y61113D01*
X207000Y61049D01*
X207037Y60983D01*
X207069Y60915D01*
X207099Y60846D01*
X207125Y60776D01*
X207190Y60638D01*
X207252Y60498D01*
X207310Y60356D01*
X207365Y60213D01*
X207416Y60069D01*
X207464Y59924D01*
X207507Y59777D01*
X207547Y59630D01*
X207584Y59481D01*
X207616Y59331D01*
X207645Y59181D01*
X207670Y59030D01*
X207691Y58879D01*
X207708Y58727D01*
X207722Y58574D01*
X207731Y58422D01*
X207737Y58269D01*
X207739Y58116D01*
X203646Y58116D02*
X203648Y57963D01*
X203654Y57810D01*
X203663Y57657D01*
X203677Y57505D01*
X203694Y57353D01*
X203715Y57202D01*
X203740Y57051D01*
X203769Y56900D01*
X203801Y56751D01*
X203838Y56602D01*
X203878Y56455D01*
X203921Y56308D01*
X203969Y56163D01*
X204020Y56018D01*
X204075Y55876D01*
X204133Y55734D01*
X204195Y55594D01*
X204260Y55456D01*
X204261Y55456D02*
X204287Y55385D01*
X204317Y55316D01*
X204350Y55249D01*
X204386Y55183D01*
X204425Y55119D01*
X204468Y55057D01*
X204514Y54998D01*
X204562Y54940D01*
X204613Y54886D01*
X204667Y54833D01*
X204724Y54784D01*
X204783Y54737D01*
X204844Y54694D01*
X204907Y54653D01*
X204972Y54616D01*
X205039Y54581D01*
X205108Y54551D01*
X205178Y54523D01*
X205249Y54500D01*
X205321Y54479D01*
X205394Y54463D01*
X205468Y54450D01*
X205543Y54440D01*
X205618Y54435D01*
X205693Y54433D01*
X207125Y55456D02*
X207190Y55594D01*
X207252Y55734D01*
X207310Y55876D01*
X207365Y56019D01*
X207416Y56163D01*
X207464Y56308D01*
X207507Y56455D01*
X207547Y56603D01*
X207584Y56751D01*
X207616Y56901D01*
X207645Y57051D01*
X207670Y57202D01*
X207691Y57353D01*
X207708Y57505D01*
X207722Y57658D01*
X207731Y57810D01*
X207737Y57963D01*
X207739Y58116D01*
X207125Y55456D02*
X207099Y55386D01*
X207069Y55316D01*
X207037Y55249D01*
X207000Y55183D01*
X206961Y55119D01*
X206918Y55057D01*
X206872Y54998D01*
X206824Y54940D01*
X206773Y54886D01*
X206719Y54833D01*
X206662Y54784D01*
X206603Y54737D01*
X206542Y54694D01*
X206479Y54653D01*
X206414Y54616D01*
X206347Y54581D01*
X206278Y54551D01*
X206208Y54523D01*
X206137Y54500D01*
X206065Y54479D01*
X205992Y54463D01*
X205918Y54450D01*
X205843Y54440D01*
X205768Y54435D01*
X205693Y54433D01*
X204056Y56070D02*
X207330Y60162D01*
D12*
X312200Y34180D02*
X348200Y34180D01*
X348200Y52180D01*
X312200Y52180D01*
X312200Y34180D01*
D13*
X321096Y58610D02*
X322733Y64339D01*
X321096Y58610D02*
X325189Y58610D01*
X323961Y60247D02*
X323961Y56973D01*
X328412Y63521D02*
X328412Y64339D01*
X332504Y64339D01*
X330458Y56973D01*
X335727Y60656D02*
X335729Y60809D01*
X335735Y60962D01*
X335744Y61114D01*
X335758Y61267D01*
X335775Y61419D01*
X335796Y61570D01*
X335821Y61721D01*
X335850Y61871D01*
X335882Y62021D01*
X335919Y62169D01*
X335959Y62317D01*
X336002Y62464D01*
X336050Y62609D01*
X336101Y62753D01*
X336155Y62896D01*
X336214Y63038D01*
X336275Y63177D01*
X336341Y63316D01*
X336367Y63386D01*
X336397Y63456D01*
X336430Y63523D01*
X336466Y63589D01*
X336505Y63653D01*
X336548Y63715D01*
X336594Y63774D01*
X336642Y63832D01*
X336693Y63886D01*
X336747Y63939D01*
X336804Y63988D01*
X336863Y64035D01*
X336924Y64078D01*
X336987Y64119D01*
X337052Y64156D01*
X337119Y64191D01*
X337188Y64221D01*
X337258Y64249D01*
X337329Y64272D01*
X337401Y64293D01*
X337474Y64309D01*
X337548Y64322D01*
X337623Y64332D01*
X337698Y64337D01*
X337773Y64339D01*
X337848Y64337D01*
X337923Y64332D01*
X337998Y64322D01*
X338072Y64309D01*
X338145Y64293D01*
X338217Y64272D01*
X338288Y64249D01*
X338358Y64221D01*
X338427Y64191D01*
X338494Y64156D01*
X338559Y64119D01*
X338622Y64078D01*
X338683Y64035D01*
X338742Y63988D01*
X338799Y63939D01*
X338853Y63886D01*
X338904Y63832D01*
X338953Y63774D01*
X338998Y63715D01*
X339041Y63653D01*
X339080Y63589D01*
X339117Y63523D01*
X339149Y63455D01*
X339179Y63386D01*
X339205Y63316D01*
X339270Y63178D01*
X339332Y63038D01*
X339390Y62896D01*
X339445Y62753D01*
X339496Y62609D01*
X339544Y62464D01*
X339587Y62317D01*
X339627Y62170D01*
X339664Y62021D01*
X339696Y61871D01*
X339725Y61721D01*
X339750Y61570D01*
X339771Y61419D01*
X339788Y61267D01*
X339802Y61114D01*
X339811Y60962D01*
X339817Y60809D01*
X339819Y60656D01*
X335726Y60656D02*
X335728Y60503D01*
X335734Y60350D01*
X335743Y60197D01*
X335757Y60045D01*
X335774Y59893D01*
X335795Y59742D01*
X335820Y59591D01*
X335849Y59440D01*
X335881Y59291D01*
X335918Y59142D01*
X335958Y58995D01*
X336001Y58848D01*
X336049Y58703D01*
X336100Y58558D01*
X336155Y58416D01*
X336213Y58274D01*
X336275Y58134D01*
X336340Y57996D01*
X336341Y57996D02*
X336367Y57925D01*
X336397Y57856D01*
X336430Y57789D01*
X336466Y57723D01*
X336505Y57659D01*
X336548Y57597D01*
X336594Y57538D01*
X336642Y57480D01*
X336693Y57426D01*
X336747Y57373D01*
X336804Y57324D01*
X336863Y57277D01*
X336924Y57234D01*
X336987Y57193D01*
X337052Y57156D01*
X337119Y57121D01*
X337188Y57091D01*
X337258Y57063D01*
X337329Y57040D01*
X337401Y57019D01*
X337474Y57003D01*
X337548Y56990D01*
X337623Y56980D01*
X337698Y56975D01*
X337773Y56973D01*
X339205Y57996D02*
X339270Y58134D01*
X339332Y58274D01*
X339390Y58416D01*
X339445Y58559D01*
X339496Y58703D01*
X339544Y58848D01*
X339587Y58995D01*
X339627Y59143D01*
X339664Y59291D01*
X339696Y59441D01*
X339725Y59591D01*
X339750Y59742D01*
X339771Y59893D01*
X339788Y60045D01*
X339802Y60198D01*
X339811Y60350D01*
X339817Y60503D01*
X339819Y60656D01*
X339205Y57996D02*
X339179Y57926D01*
X339149Y57856D01*
X339117Y57789D01*
X339080Y57723D01*
X339041Y57659D01*
X338998Y57597D01*
X338952Y57538D01*
X338904Y57480D01*
X338853Y57426D01*
X338799Y57373D01*
X338742Y57324D01*
X338683Y57277D01*
X338622Y57234D01*
X338559Y57193D01*
X338494Y57156D01*
X338427Y57121D01*
X338358Y57091D01*
X338288Y57063D01*
X338217Y57040D01*
X338145Y57019D01*
X338072Y57003D01*
X337998Y56990D01*
X337923Y56980D01*
X337848Y56975D01*
X337773Y56973D01*
X336136Y58610D02*
X339410Y62702D01*
D12*
X444280Y34180D02*
X480280Y34180D01*
X480280Y52180D01*
X444280Y52180D01*
X444280Y34180D01*
D13*
X453176Y56070D02*
X454813Y61799D01*
X453176Y56070D02*
X457269Y56070D01*
X456041Y57707D02*
X456041Y54433D01*
X460492Y60981D02*
X460492Y61799D01*
X464584Y61799D01*
X462538Y54433D01*
X467807Y58116D02*
X467809Y58269D01*
X467815Y58422D01*
X467824Y58574D01*
X467838Y58727D01*
X467855Y58879D01*
X467876Y59030D01*
X467901Y59181D01*
X467930Y59331D01*
X467962Y59481D01*
X467999Y59629D01*
X468039Y59777D01*
X468082Y59924D01*
X468130Y60069D01*
X468181Y60213D01*
X468235Y60356D01*
X468294Y60498D01*
X468355Y60637D01*
X468421Y60776D01*
X468447Y60846D01*
X468477Y60916D01*
X468510Y60983D01*
X468546Y61049D01*
X468585Y61113D01*
X468628Y61175D01*
X468674Y61234D01*
X468722Y61292D01*
X468773Y61346D01*
X468827Y61399D01*
X468884Y61448D01*
X468943Y61495D01*
X469004Y61538D01*
X469067Y61579D01*
X469132Y61616D01*
X469199Y61651D01*
X469268Y61681D01*
X469338Y61709D01*
X469409Y61732D01*
X469481Y61753D01*
X469554Y61769D01*
X469628Y61782D01*
X469703Y61792D01*
X469778Y61797D01*
X469853Y61799D01*
X469928Y61797D01*
X470003Y61792D01*
X470078Y61782D01*
X470152Y61769D01*
X470225Y61753D01*
X470297Y61732D01*
X470368Y61709D01*
X470438Y61681D01*
X470507Y61651D01*
X470574Y61616D01*
X470639Y61579D01*
X470702Y61538D01*
X470763Y61495D01*
X470822Y61448D01*
X470879Y61399D01*
X470933Y61346D01*
X470984Y61292D01*
X471033Y61234D01*
X471078Y61175D01*
X471121Y61113D01*
X471160Y61049D01*
X471197Y60983D01*
X471229Y60915D01*
X471259Y60846D01*
X471285Y60776D01*
X471350Y60638D01*
X471412Y60498D01*
X471470Y60356D01*
X471525Y60213D01*
X471576Y60069D01*
X471624Y59924D01*
X471667Y59777D01*
X471707Y59630D01*
X471744Y59481D01*
X471776Y59331D01*
X471805Y59181D01*
X471830Y59030D01*
X471851Y58879D01*
X471868Y58727D01*
X471882Y58574D01*
X471891Y58422D01*
X471897Y58269D01*
X471899Y58116D01*
X467806Y58116D02*
X467808Y57963D01*
X467814Y57810D01*
X467823Y57657D01*
X467837Y57505D01*
X467854Y57353D01*
X467875Y57202D01*
X467900Y57051D01*
X467929Y56900D01*
X467961Y56751D01*
X467998Y56602D01*
X468038Y56455D01*
X468081Y56308D01*
X468129Y56163D01*
X468180Y56018D01*
X468235Y55876D01*
X468293Y55734D01*
X468355Y55594D01*
X468420Y55456D01*
X468421Y55456D02*
X468447Y55385D01*
X468477Y55316D01*
X468510Y55249D01*
X468546Y55183D01*
X468585Y55119D01*
X468628Y55057D01*
X468674Y54998D01*
X468722Y54940D01*
X468773Y54886D01*
X468827Y54833D01*
X468884Y54784D01*
X468943Y54737D01*
X469004Y54694D01*
X469067Y54653D01*
X469132Y54616D01*
X469199Y54581D01*
X469268Y54551D01*
X469338Y54523D01*
X469409Y54500D01*
X469481Y54479D01*
X469554Y54463D01*
X469628Y54450D01*
X469703Y54440D01*
X469778Y54435D01*
X469853Y54433D01*
X471285Y55456D02*
X471350Y55594D01*
X471412Y55734D01*
X471470Y55876D01*
X471525Y56019D01*
X471576Y56163D01*
X471624Y56308D01*
X471667Y56455D01*
X471707Y56603D01*
X471744Y56751D01*
X471776Y56901D01*
X471805Y57051D01*
X471830Y57202D01*
X471851Y57353D01*
X471868Y57505D01*
X471882Y57658D01*
X471891Y57810D01*
X471897Y57963D01*
X471899Y58116D01*
X471285Y55456D02*
X471259Y55386D01*
X471229Y55316D01*
X471197Y55249D01*
X471160Y55183D01*
X471121Y55119D01*
X471078Y55057D01*
X471032Y54998D01*
X470984Y54940D01*
X470933Y54886D01*
X470879Y54833D01*
X470822Y54784D01*
X470763Y54737D01*
X470702Y54694D01*
X470639Y54653D01*
X470574Y54616D01*
X470507Y54581D01*
X470438Y54551D01*
X470368Y54523D01*
X470297Y54500D01*
X470225Y54479D01*
X470152Y54463D01*
X470078Y54450D01*
X470003Y54440D01*
X469928Y54435D01*
X469853Y54433D01*
X468216Y56070D02*
X471490Y60162D01*
D12*
X83180Y33700D02*
X47180Y33700D01*
X83180Y33700D02*
X83180Y51700D01*
X47180Y51700D01*
X47180Y33700D01*
D13*
X23056Y40350D02*
X24693Y46079D01*
X23056Y40350D02*
X27149Y40350D01*
X25921Y41987D02*
X25921Y38713D01*
X30372Y45261D02*
X30372Y46079D01*
X34464Y46079D01*
X32418Y38713D01*
X37687Y42396D02*
X37689Y42549D01*
X37695Y42702D01*
X37704Y42854D01*
X37718Y43007D01*
X37735Y43159D01*
X37756Y43310D01*
X37781Y43461D01*
X37810Y43611D01*
X37842Y43761D01*
X37879Y43909D01*
X37919Y44057D01*
X37962Y44204D01*
X38010Y44349D01*
X38061Y44493D01*
X38115Y44636D01*
X38174Y44778D01*
X38235Y44917D01*
X38301Y45056D01*
X38327Y45126D01*
X38357Y45196D01*
X38390Y45263D01*
X38426Y45329D01*
X38465Y45393D01*
X38508Y45455D01*
X38554Y45514D01*
X38602Y45572D01*
X38653Y45626D01*
X38707Y45679D01*
X38764Y45728D01*
X38823Y45775D01*
X38884Y45818D01*
X38947Y45859D01*
X39012Y45896D01*
X39079Y45931D01*
X39148Y45961D01*
X39218Y45989D01*
X39289Y46012D01*
X39361Y46033D01*
X39434Y46049D01*
X39508Y46062D01*
X39583Y46072D01*
X39658Y46077D01*
X39733Y46079D01*
X39808Y46077D01*
X39883Y46072D01*
X39958Y46062D01*
X40032Y46049D01*
X40105Y46033D01*
X40177Y46012D01*
X40248Y45989D01*
X40318Y45961D01*
X40387Y45931D01*
X40454Y45896D01*
X40519Y45859D01*
X40582Y45818D01*
X40643Y45775D01*
X40702Y45728D01*
X40759Y45679D01*
X40813Y45626D01*
X40864Y45572D01*
X40913Y45514D01*
X40958Y45455D01*
X41001Y45393D01*
X41040Y45329D01*
X41077Y45263D01*
X41109Y45195D01*
X41139Y45126D01*
X41165Y45056D01*
X41230Y44918D01*
X41292Y44778D01*
X41350Y44636D01*
X41405Y44493D01*
X41456Y44349D01*
X41504Y44204D01*
X41547Y44057D01*
X41587Y43910D01*
X41624Y43761D01*
X41656Y43611D01*
X41685Y43461D01*
X41710Y43310D01*
X41731Y43159D01*
X41748Y43007D01*
X41762Y42854D01*
X41771Y42702D01*
X41777Y42549D01*
X41779Y42396D01*
X37686Y42396D02*
X37688Y42243D01*
X37694Y42090D01*
X37703Y41937D01*
X37717Y41785D01*
X37734Y41633D01*
X37755Y41482D01*
X37780Y41331D01*
X37809Y41180D01*
X37841Y41031D01*
X37878Y40882D01*
X37918Y40735D01*
X37961Y40588D01*
X38009Y40443D01*
X38060Y40298D01*
X38115Y40156D01*
X38173Y40014D01*
X38235Y39874D01*
X38300Y39736D01*
X38301Y39736D02*
X38327Y39665D01*
X38357Y39596D01*
X38390Y39529D01*
X38426Y39463D01*
X38465Y39399D01*
X38508Y39337D01*
X38554Y39278D01*
X38602Y39220D01*
X38653Y39166D01*
X38707Y39113D01*
X38764Y39064D01*
X38823Y39017D01*
X38884Y38974D01*
X38947Y38933D01*
X39012Y38896D01*
X39079Y38861D01*
X39148Y38831D01*
X39218Y38803D01*
X39289Y38780D01*
X39361Y38759D01*
X39434Y38743D01*
X39508Y38730D01*
X39583Y38720D01*
X39658Y38715D01*
X39733Y38713D01*
X41165Y39736D02*
X41230Y39874D01*
X41292Y40014D01*
X41350Y40156D01*
X41405Y40299D01*
X41456Y40443D01*
X41504Y40588D01*
X41547Y40735D01*
X41587Y40883D01*
X41624Y41031D01*
X41656Y41181D01*
X41685Y41331D01*
X41710Y41482D01*
X41731Y41633D01*
X41748Y41785D01*
X41762Y41938D01*
X41771Y42090D01*
X41777Y42243D01*
X41779Y42396D01*
X41165Y39736D02*
X41139Y39666D01*
X41109Y39596D01*
X41077Y39529D01*
X41040Y39463D01*
X41001Y39399D01*
X40958Y39337D01*
X40912Y39278D01*
X40864Y39220D01*
X40813Y39166D01*
X40759Y39113D01*
X40702Y39064D01*
X40643Y39017D01*
X40582Y38974D01*
X40519Y38933D01*
X40454Y38896D01*
X40387Y38861D01*
X40318Y38831D01*
X40248Y38803D01*
X40177Y38780D01*
X40105Y38759D01*
X40032Y38743D01*
X39958Y38730D01*
X39883Y38720D01*
X39808Y38715D01*
X39733Y38713D01*
X38096Y40350D02*
X41370Y44442D01*
D12*
X575500Y35440D02*
X611500Y35440D01*
X611500Y53440D01*
X575500Y53440D01*
X575500Y35440D01*
D13*
X584396Y57330D02*
X586033Y63059D01*
X584396Y57330D02*
X588489Y57330D01*
X587261Y58967D02*
X587261Y55693D01*
X591712Y62241D02*
X591712Y63059D01*
X595804Y63059D01*
X593758Y55693D01*
X599027Y59376D02*
X599029Y59529D01*
X599035Y59682D01*
X599044Y59834D01*
X599058Y59987D01*
X599075Y60139D01*
X599096Y60290D01*
X599121Y60441D01*
X599150Y60591D01*
X599182Y60741D01*
X599219Y60889D01*
X599259Y61037D01*
X599302Y61184D01*
X599350Y61329D01*
X599401Y61473D01*
X599455Y61616D01*
X599514Y61758D01*
X599575Y61897D01*
X599641Y62036D01*
X599667Y62106D01*
X599697Y62176D01*
X599730Y62243D01*
X599766Y62309D01*
X599805Y62373D01*
X599848Y62435D01*
X599894Y62494D01*
X599942Y62552D01*
X599993Y62606D01*
X600047Y62659D01*
X600104Y62708D01*
X600163Y62755D01*
X600224Y62798D01*
X600287Y62839D01*
X600352Y62876D01*
X600419Y62911D01*
X600488Y62941D01*
X600558Y62969D01*
X600629Y62992D01*
X600701Y63013D01*
X600774Y63029D01*
X600848Y63042D01*
X600923Y63052D01*
X600998Y63057D01*
X601073Y63059D01*
X601148Y63057D01*
X601223Y63052D01*
X601298Y63042D01*
X601372Y63029D01*
X601445Y63013D01*
X601517Y62992D01*
X601588Y62969D01*
X601658Y62941D01*
X601727Y62911D01*
X601794Y62876D01*
X601859Y62839D01*
X601922Y62798D01*
X601983Y62755D01*
X602042Y62708D01*
X602099Y62659D01*
X602153Y62606D01*
X602204Y62552D01*
X602253Y62494D01*
X602298Y62435D01*
X602341Y62373D01*
X602380Y62309D01*
X602417Y62243D01*
X602449Y62175D01*
X602479Y62106D01*
X602505Y62036D01*
X602570Y61898D01*
X602632Y61758D01*
X602690Y61616D01*
X602745Y61473D01*
X602796Y61329D01*
X602844Y61184D01*
X602887Y61037D01*
X602927Y60890D01*
X602964Y60741D01*
X602996Y60591D01*
X603025Y60441D01*
X603050Y60290D01*
X603071Y60139D01*
X603088Y59987D01*
X603102Y59834D01*
X603111Y59682D01*
X603117Y59529D01*
X603119Y59376D01*
X599026Y59376D02*
X599028Y59223D01*
X599034Y59070D01*
X599043Y58917D01*
X599057Y58765D01*
X599074Y58613D01*
X599095Y58462D01*
X599120Y58311D01*
X599149Y58160D01*
X599181Y58011D01*
X599218Y57862D01*
X599258Y57715D01*
X599301Y57568D01*
X599349Y57423D01*
X599400Y57278D01*
X599455Y57136D01*
X599513Y56994D01*
X599575Y56854D01*
X599640Y56716D01*
X599641Y56716D02*
X599667Y56645D01*
X599697Y56576D01*
X599730Y56509D01*
X599766Y56443D01*
X599805Y56379D01*
X599848Y56317D01*
X599894Y56258D01*
X599942Y56200D01*
X599993Y56146D01*
X600047Y56093D01*
X600104Y56044D01*
X600163Y55997D01*
X600224Y55954D01*
X600287Y55913D01*
X600352Y55876D01*
X600419Y55841D01*
X600488Y55811D01*
X600558Y55783D01*
X600629Y55760D01*
X600701Y55739D01*
X600774Y55723D01*
X600848Y55710D01*
X600923Y55700D01*
X600998Y55695D01*
X601073Y55693D01*
X602505Y56716D02*
X602570Y56854D01*
X602632Y56994D01*
X602690Y57136D01*
X602745Y57279D01*
X602796Y57423D01*
X602844Y57568D01*
X602887Y57715D01*
X602927Y57863D01*
X602964Y58011D01*
X602996Y58161D01*
X603025Y58311D01*
X603050Y58462D01*
X603071Y58613D01*
X603088Y58765D01*
X603102Y58918D01*
X603111Y59070D01*
X603117Y59223D01*
X603119Y59376D01*
X602505Y56716D02*
X602479Y56646D01*
X602449Y56576D01*
X602417Y56509D01*
X602380Y56443D01*
X602341Y56379D01*
X602298Y56317D01*
X602252Y56258D01*
X602204Y56200D01*
X602153Y56146D01*
X602099Y56093D01*
X602042Y56044D01*
X601983Y55997D01*
X601922Y55954D01*
X601859Y55913D01*
X601794Y55876D01*
X601727Y55841D01*
X601658Y55811D01*
X601588Y55783D01*
X601517Y55760D01*
X601445Y55739D01*
X601372Y55723D01*
X601298Y55710D01*
X601223Y55700D01*
X601148Y55695D01*
X601073Y55693D01*
X599436Y57330D02*
X602710Y61422D01*
X587538Y155379D02*
X585901Y157426D01*
X593267Y157426D01*
X593267Y159472D02*
X593267Y155379D01*
X589584Y162695D02*
X589431Y162697D01*
X589278Y162703D01*
X589126Y162712D01*
X588973Y162726D01*
X588821Y162743D01*
X588670Y162764D01*
X588519Y162789D01*
X588369Y162818D01*
X588219Y162850D01*
X588071Y162887D01*
X587923Y162927D01*
X587776Y162970D01*
X587631Y163018D01*
X587487Y163069D01*
X587344Y163123D01*
X587202Y163182D01*
X587063Y163243D01*
X586924Y163309D01*
X586854Y163335D01*
X586784Y163365D01*
X586717Y163398D01*
X586651Y163434D01*
X586587Y163473D01*
X586525Y163516D01*
X586466Y163562D01*
X586408Y163610D01*
X586354Y163661D01*
X586301Y163715D01*
X586252Y163772D01*
X586205Y163831D01*
X586162Y163892D01*
X586121Y163955D01*
X586084Y164020D01*
X586049Y164087D01*
X586019Y164156D01*
X585991Y164226D01*
X585968Y164297D01*
X585947Y164369D01*
X585931Y164442D01*
X585918Y164516D01*
X585908Y164591D01*
X585903Y164666D01*
X585901Y164741D01*
X585903Y164816D01*
X585908Y164891D01*
X585918Y164966D01*
X585931Y165040D01*
X585947Y165113D01*
X585968Y165185D01*
X585991Y165256D01*
X586019Y165326D01*
X586049Y165395D01*
X586084Y165462D01*
X586121Y165527D01*
X586162Y165590D01*
X586205Y165651D01*
X586252Y165710D01*
X586301Y165767D01*
X586354Y165821D01*
X586408Y165872D01*
X586466Y165921D01*
X586525Y165966D01*
X586587Y166009D01*
X586651Y166048D01*
X586717Y166085D01*
X586785Y166117D01*
X586854Y166147D01*
X586924Y166173D01*
X587062Y166238D01*
X587202Y166300D01*
X587344Y166358D01*
X587487Y166413D01*
X587631Y166464D01*
X587776Y166512D01*
X587923Y166555D01*
X588070Y166595D01*
X588219Y166632D01*
X588369Y166664D01*
X588519Y166693D01*
X588670Y166718D01*
X588821Y166739D01*
X588973Y166756D01*
X589126Y166770D01*
X589278Y166779D01*
X589431Y166785D01*
X589584Y166787D01*
X589584Y162695D02*
X589737Y162697D01*
X589890Y162703D01*
X590042Y162712D01*
X590195Y162726D01*
X590347Y162743D01*
X590498Y162764D01*
X590649Y162789D01*
X590799Y162818D01*
X590949Y162850D01*
X591097Y162887D01*
X591245Y162927D01*
X591392Y162970D01*
X591537Y163018D01*
X591681Y163069D01*
X591824Y163123D01*
X591966Y163182D01*
X592105Y163243D01*
X592244Y163309D01*
X592315Y163335D01*
X592384Y163365D01*
X592451Y163398D01*
X592517Y163434D01*
X592581Y163473D01*
X592643Y163516D01*
X592702Y163562D01*
X592760Y163610D01*
X592814Y163661D01*
X592867Y163715D01*
X592916Y163772D01*
X592963Y163831D01*
X593006Y163892D01*
X593047Y163955D01*
X593084Y164020D01*
X593119Y164087D01*
X593149Y164156D01*
X593177Y164226D01*
X593200Y164297D01*
X593221Y164369D01*
X593237Y164442D01*
X593250Y164516D01*
X593260Y164591D01*
X593265Y164666D01*
X593267Y164741D01*
X592244Y166173D02*
X592106Y166238D01*
X591966Y166300D01*
X591824Y166358D01*
X591681Y166413D01*
X591537Y166464D01*
X591392Y166512D01*
X591245Y166555D01*
X591098Y166595D01*
X590949Y166632D01*
X590799Y166664D01*
X590649Y166693D01*
X590498Y166718D01*
X590347Y166739D01*
X590195Y166756D01*
X590042Y166770D01*
X589890Y166779D01*
X589737Y166785D01*
X589584Y166787D01*
X592244Y166173D02*
X592314Y166147D01*
X592384Y166117D01*
X592451Y166084D01*
X592517Y166048D01*
X592581Y166009D01*
X592643Y165966D01*
X592702Y165920D01*
X592760Y165872D01*
X592814Y165821D01*
X592867Y165767D01*
X592916Y165710D01*
X592963Y165651D01*
X593006Y165590D01*
X593047Y165527D01*
X593084Y165462D01*
X593119Y165395D01*
X593149Y165326D01*
X593177Y165256D01*
X593200Y165185D01*
X593221Y165113D01*
X593237Y165040D01*
X593250Y164966D01*
X593260Y164891D01*
X593265Y164816D01*
X593267Y164741D01*
X591630Y163104D02*
X587538Y166378D01*
X588356Y170175D02*
X592039Y170175D01*
X592108Y170177D01*
X592176Y170183D01*
X592245Y170192D01*
X592312Y170206D01*
X592379Y170223D01*
X592445Y170244D01*
X592509Y170268D01*
X592572Y170297D01*
X592633Y170328D01*
X592692Y170363D01*
X592750Y170401D01*
X592805Y170443D01*
X592857Y170487D01*
X592907Y170535D01*
X592955Y170585D01*
X592999Y170637D01*
X593041Y170692D01*
X593079Y170750D01*
X593114Y170809D01*
X593145Y170870D01*
X593174Y170933D01*
X593198Y170997D01*
X593219Y171063D01*
X593236Y171130D01*
X593250Y171197D01*
X593259Y171266D01*
X593265Y171334D01*
X593267Y171403D01*
X593267Y173449D01*
X588356Y173449D01*
M02*
