M48
;GenerationSoftware,Autodesk,EAGLE,9.6.2*%
;CreationDate,2023-02-24T11:28:31Z*%
FMAT,2
ICI,OFF
METRIC,TZ,000.000
T2C0.400
T1C0.450
%
G90
M71
T1
X38354Y4064
X39116Y4064
X38354Y3302
X39116Y3302
X39878Y3302
X39878Y4064
X13716Y3556
X14478Y3556
X15240Y3556
X13716Y2794
X14478Y2794
X15240Y2794
X28702Y2794
X29464Y2794
X30226Y2794
X28702Y3556
X29464Y3556
X30226Y3556
X51308Y3302
X52070Y3302
X52832Y3302
X51308Y4064
X52070Y4064
X52832Y4064
X63246Y4064
X64008Y4064
X64770Y4064
X63246Y3302
X64008Y3302
X64770Y3302
X76708Y4064
X77470Y4064
X78232Y4064
X76708Y3302
X77470Y3302
X78232Y3302
X90678Y4064
X91440Y4064
X92202Y4064
X90678Y3302
X91440Y3302
X92202Y3302
X103378Y4064
X104140Y4064
X104902Y4064
X105664Y4064
X103378Y3302
X104140Y3302
X104902Y3302
X105664Y3302
X143256Y4064
X144018Y4064
X144780Y4064
X143256Y3302
X144018Y3302
X144780Y3302
X120142Y4064
X120904Y4064
X121666Y4064
X120142Y3302
X120904Y3302
X121666Y3302
X130302Y13462
X129540Y13462
X128778Y13462
X131064Y14224
X128016Y13462
X73660Y16256
X126238Y16510
X154940Y4064
X154940Y3302
X155702Y4064
X155702Y3302
X127254Y13462
X126492Y13462
X125730Y13462
X73152Y13462
X73914Y13462
X74676Y13462
X68072Y12192
X69596Y12192
X68834Y12192
X68834Y12954
X128524Y11938
X129286Y11938
X130048Y11938
X56896Y11684
X56896Y10922
X56896Y10160
X57658Y10160
X57658Y10922
X57658Y11684
X58420Y11684
X58420Y10922
X65786Y14478
X66548Y14478
X67310Y14478
X66548Y15240
X70104Y14224
X70866Y13462
X71628Y12700
X138684Y9652
X138684Y8890
X138684Y8128
X139446Y8128
X139446Y8890
X139446Y9652
X140208Y9652
X140208Y8890
X140208Y8128
X1270Y11684
X1270Y10922
X1270Y10160
X1270Y9398
X1270Y8636
X1270Y7874
X1270Y7112
X1270Y6350
X1270Y5588
X2032Y11684
X2032Y10922
X2032Y10160
X2032Y9398
X2032Y8636
X2032Y7874
X2032Y7112
X2032Y6350
X2032Y5588
X7874Y14478
X8636Y14478
X9398Y14478
X10160Y14478
X10922Y14478
X11684Y14478
X12446Y14478
X7874Y17018
X8636Y17018
X9398Y17018
X56896Y17018
X57658Y17018
X58420Y17018
X56896Y14478
X57658Y14478
X58420Y14478
X56134Y14478
X55372Y14478
X54610Y14478
X74422Y10160
X74422Y9398
X74422Y8636
X119888Y9398
X120650Y9398
X121412Y9398
X119888Y8636
X120650Y8636
X119888Y7874
X73355Y18606
X74422Y18593
X10414Y4318
X133433Y14141
X22860Y3556
X61976Y7874
T2
X125781Y9042
X125730Y15240
X64262Y15384
X6604Y12192
M30