G04 EAGLE Gerber RS-274X export*
G75*
%MOMM*%
%FSLAX34Y34*%
%LPD*%
%INComponent side*%
%IPPOS*%
%AMOC8*
5,1,8,0,0,1.08239X$1,22.5*%
G01*
%ADD10R,1.016000X1.524000*%
%ADD11R,0.600000X2.000000*%
%ADD12R,1.000000X1.400000*%
%ADD13R,1.524000X1.016000*%
%ADD14P,0.730613X8X22.500000*%
%ADD15C,0.609600*%
%ADD16C,0.508000*%
%ADD17C,0.406400*%
%ADD18C,0.304800*%
%ADD19P,0.649434X8X22.500000*%
%ADD20C,0.254000*%

G36*
X1564064Y5010D02*
X1564064Y5010D01*
X1564128Y5009D01*
X1564203Y5030D01*
X1564279Y5041D01*
X1564338Y5067D01*
X1564400Y5084D01*
X1564466Y5125D01*
X1564536Y5157D01*
X1564585Y5199D01*
X1564640Y5232D01*
X1564692Y5290D01*
X1564750Y5340D01*
X1564786Y5394D01*
X1564829Y5442D01*
X1564862Y5511D01*
X1564905Y5576D01*
X1564924Y5638D01*
X1564952Y5695D01*
X1564963Y5765D01*
X1564987Y5846D01*
X1564988Y5931D01*
X1564999Y6000D01*
X1564999Y114000D01*
X1564990Y114064D01*
X1564991Y114128D01*
X1564970Y114203D01*
X1564959Y114279D01*
X1564933Y114338D01*
X1564916Y114400D01*
X1564875Y114466D01*
X1564843Y114536D01*
X1564801Y114585D01*
X1564768Y114640D01*
X1564710Y114692D01*
X1564660Y114750D01*
X1564606Y114786D01*
X1564558Y114829D01*
X1564489Y114862D01*
X1564424Y114905D01*
X1564362Y114924D01*
X1564305Y114952D01*
X1564235Y114963D01*
X1564154Y114987D01*
X1564069Y114988D01*
X1564000Y114999D01*
X1487929Y114999D01*
X1484999Y117929D01*
X1484999Y194000D01*
X1484990Y194064D01*
X1484991Y194128D01*
X1484970Y194203D01*
X1484959Y194279D01*
X1484933Y194338D01*
X1484916Y194400D01*
X1484875Y194466D01*
X1484843Y194536D01*
X1484801Y194585D01*
X1484768Y194640D01*
X1484710Y194692D01*
X1484660Y194750D01*
X1484606Y194786D01*
X1484558Y194829D01*
X1484489Y194862D01*
X1484424Y194905D01*
X1484362Y194924D01*
X1484305Y194952D01*
X1484235Y194963D01*
X1484154Y194987D01*
X1484069Y194988D01*
X1484000Y194999D01*
X1479620Y194999D01*
X1479588Y194995D01*
X1479556Y194997D01*
X1479449Y194975D01*
X1479341Y194959D01*
X1479312Y194946D01*
X1479280Y194940D01*
X1479184Y194888D01*
X1479084Y194843D01*
X1479060Y194822D01*
X1479031Y194807D01*
X1478953Y194731D01*
X1478870Y194660D01*
X1478852Y194633D01*
X1478829Y194610D01*
X1478775Y194515D01*
X1478715Y194424D01*
X1478706Y194393D01*
X1478690Y194365D01*
X1478665Y194259D01*
X1478633Y194154D01*
X1478632Y194122D01*
X1478625Y194091D01*
X1478631Y193981D01*
X1478629Y193872D01*
X1478638Y193841D01*
X1478639Y193809D01*
X1478675Y193706D01*
X1478704Y193600D01*
X1478721Y193573D01*
X1478732Y193542D01*
X1478785Y193469D01*
X1478853Y193360D01*
X1478889Y193328D01*
X1478914Y193293D01*
X1480563Y191644D01*
X1480563Y176656D01*
X1478944Y175037D01*
X1438556Y175037D01*
X1436937Y176656D01*
X1436937Y180744D01*
X1436928Y180808D01*
X1436929Y180872D01*
X1436908Y180947D01*
X1436897Y181023D01*
X1436871Y181082D01*
X1436854Y181144D01*
X1436813Y181210D01*
X1436781Y181280D01*
X1436739Y181329D01*
X1436706Y181384D01*
X1436648Y181436D01*
X1436598Y181494D01*
X1436544Y181530D01*
X1436496Y181573D01*
X1436427Y181606D01*
X1436362Y181649D01*
X1436300Y181668D01*
X1436243Y181696D01*
X1436173Y181707D01*
X1436092Y181731D01*
X1436007Y181732D01*
X1435938Y181743D01*
X1354788Y181743D01*
X1354724Y181734D01*
X1354660Y181735D01*
X1354585Y181714D01*
X1354509Y181703D01*
X1354450Y181677D01*
X1354388Y181660D01*
X1354322Y181619D01*
X1354252Y181587D01*
X1354203Y181545D01*
X1354148Y181512D01*
X1354096Y181454D01*
X1354038Y181404D01*
X1354002Y181350D01*
X1353959Y181302D01*
X1353926Y181233D01*
X1353883Y181168D01*
X1353864Y181106D01*
X1353836Y181049D01*
X1353825Y180979D01*
X1353801Y180898D01*
X1353800Y180813D01*
X1353789Y180744D01*
X1353789Y162852D01*
X1353788Y162851D01*
X1353782Y162810D01*
X1353765Y162764D01*
X1353755Y162636D01*
X1353741Y162547D01*
X1353741Y154271D01*
X1352569Y153099D01*
X1350154Y153099D01*
X1350122Y153095D01*
X1350090Y153097D01*
X1349983Y153075D01*
X1349875Y153059D01*
X1349846Y153046D01*
X1349814Y153040D01*
X1349717Y152988D01*
X1349618Y152943D01*
X1349594Y152922D01*
X1349565Y152907D01*
X1349487Y152831D01*
X1349404Y152760D01*
X1349386Y152733D01*
X1349363Y152710D01*
X1349309Y152615D01*
X1349249Y152524D01*
X1349240Y152493D01*
X1349224Y152465D01*
X1349199Y152358D01*
X1349167Y152254D01*
X1349166Y152222D01*
X1349159Y152191D01*
X1349165Y152081D01*
X1349163Y151972D01*
X1349172Y151941D01*
X1349173Y151909D01*
X1349209Y151806D01*
X1349238Y151700D01*
X1349255Y151673D01*
X1349266Y151642D01*
X1349319Y151569D01*
X1349386Y151460D01*
X1349423Y151428D01*
X1349448Y151393D01*
X1352342Y148499D01*
X1354606Y146235D01*
X1354630Y146182D01*
X1354662Y146091D01*
X1354687Y146057D01*
X1354707Y146013D01*
X1354790Y145915D01*
X1354843Y145842D01*
X1362502Y138183D01*
X1362579Y138126D01*
X1362650Y138061D01*
X1362691Y138041D01*
X1362728Y138014D01*
X1362818Y137980D01*
X1362904Y137938D01*
X1362946Y137932D01*
X1362992Y137915D01*
X1363119Y137905D01*
X1363209Y137891D01*
X1435938Y137891D01*
X1436002Y137900D01*
X1436066Y137899D01*
X1436141Y137920D01*
X1436217Y137931D01*
X1436276Y137957D01*
X1436338Y137974D01*
X1436404Y138015D01*
X1436474Y138047D01*
X1436523Y138089D01*
X1436578Y138122D01*
X1436630Y138180D01*
X1436688Y138230D01*
X1436724Y138284D01*
X1436767Y138332D01*
X1436800Y138401D01*
X1436843Y138466D01*
X1436862Y138528D01*
X1436890Y138585D01*
X1436901Y138655D01*
X1436925Y138736D01*
X1436926Y138821D01*
X1436937Y138890D01*
X1436937Y140844D01*
X1438556Y142463D01*
X1478944Y142463D01*
X1480563Y140844D01*
X1480563Y125856D01*
X1478944Y124237D01*
X1438556Y124237D01*
X1436937Y125856D01*
X1436937Y130350D01*
X1436928Y130414D01*
X1436929Y130478D01*
X1436908Y130553D01*
X1436897Y130629D01*
X1436871Y130688D01*
X1436854Y130750D01*
X1436813Y130816D01*
X1436781Y130886D01*
X1436739Y130935D01*
X1436706Y130990D01*
X1436648Y131042D01*
X1436598Y131100D01*
X1436544Y131136D01*
X1436496Y131179D01*
X1436427Y131212D01*
X1436362Y131255D01*
X1436300Y131274D01*
X1436243Y131302D01*
X1436173Y131313D01*
X1436092Y131337D01*
X1436007Y131338D01*
X1435938Y131349D01*
X1360085Y131349D01*
X1357877Y133558D01*
X1350218Y141217D01*
X1347954Y143481D01*
X1347930Y143534D01*
X1347898Y143624D01*
X1347873Y143659D01*
X1347853Y143703D01*
X1347770Y143800D01*
X1347717Y143873D01*
X1341360Y150230D01*
X1340175Y151415D01*
X1340149Y151435D01*
X1340128Y151459D01*
X1340036Y151519D01*
X1339949Y151585D01*
X1339919Y151596D01*
X1339892Y151614D01*
X1339787Y151646D01*
X1339685Y151684D01*
X1339653Y151687D01*
X1339622Y151696D01*
X1339513Y151698D01*
X1339404Y151706D01*
X1339372Y151699D01*
X1339340Y151700D01*
X1339235Y151671D01*
X1339128Y151648D01*
X1339099Y151633D01*
X1339068Y151625D01*
X1338975Y151567D01*
X1338879Y151516D01*
X1338856Y151493D01*
X1338828Y151477D01*
X1338755Y151396D01*
X1338677Y151319D01*
X1338661Y151291D01*
X1338639Y151267D01*
X1338592Y151169D01*
X1338538Y151074D01*
X1338530Y151042D01*
X1338516Y151013D01*
X1338502Y150924D01*
X1338473Y150799D01*
X1338475Y150751D01*
X1338469Y150709D01*
X1338469Y145288D01*
X1338482Y145193D01*
X1338487Y145096D01*
X1338502Y145053D01*
X1338509Y145008D01*
X1338548Y144921D01*
X1338580Y144830D01*
X1338605Y144796D01*
X1338625Y144751D01*
X1338708Y144654D01*
X1338761Y144581D01*
X1339704Y143639D01*
X1339704Y139185D01*
X1336555Y136036D01*
X1334351Y136036D01*
X1334256Y136023D01*
X1334160Y136018D01*
X1334116Y136003D01*
X1334072Y135997D01*
X1333984Y135957D01*
X1333893Y135925D01*
X1333859Y135900D01*
X1333815Y135880D01*
X1333717Y135797D01*
X1333644Y135744D01*
X1306857Y108956D01*
X716131Y108956D01*
X688806Y136281D01*
X688755Y136320D01*
X688710Y136366D01*
X688642Y136404D01*
X688580Y136451D01*
X688520Y136473D01*
X688464Y136505D01*
X688389Y136523D01*
X688317Y136550D01*
X688253Y136555D01*
X688190Y136570D01*
X688112Y136566D01*
X688035Y136572D01*
X687973Y136559D01*
X687908Y136555D01*
X687835Y136530D01*
X687759Y136514D01*
X687703Y136484D01*
X687642Y136463D01*
X687585Y136422D01*
X687510Y136382D01*
X687450Y136323D01*
X687393Y136281D01*
X676976Y125865D01*
X674619Y123507D01*
X73026Y123507D01*
X72931Y123494D01*
X72835Y123489D01*
X72792Y123474D01*
X72747Y123467D01*
X72659Y123428D01*
X72568Y123396D01*
X72534Y123371D01*
X72490Y123351D01*
X72392Y123268D01*
X72319Y123215D01*
X71333Y122229D01*
X71276Y122152D01*
X71211Y122080D01*
X71191Y122040D01*
X71164Y122003D01*
X71130Y121913D01*
X71088Y121827D01*
X71082Y121785D01*
X71065Y121739D01*
X71055Y121612D01*
X71041Y121522D01*
X71041Y119849D01*
X68111Y116919D01*
X63969Y116919D01*
X61039Y119849D01*
X61039Y123991D01*
X63897Y126849D01*
X63917Y126875D01*
X63941Y126896D01*
X64001Y126988D01*
X64067Y127075D01*
X64078Y127105D01*
X64096Y127132D01*
X64128Y127237D01*
X64166Y127339D01*
X64169Y127371D01*
X64178Y127402D01*
X64180Y127511D01*
X64188Y127620D01*
X64181Y127652D01*
X64182Y127684D01*
X64153Y127789D01*
X64130Y127896D01*
X64115Y127925D01*
X64107Y127956D01*
X64049Y128049D01*
X63998Y128145D01*
X63975Y128168D01*
X63958Y128196D01*
X63877Y128269D01*
X63801Y128347D01*
X63773Y128363D01*
X63749Y128385D01*
X63651Y128432D01*
X63556Y128486D01*
X63524Y128494D01*
X63495Y128508D01*
X63406Y128522D01*
X63281Y128551D01*
X63233Y128549D01*
X63191Y128555D01*
X51562Y128555D01*
X51498Y128546D01*
X51434Y128547D01*
X51359Y128526D01*
X51283Y128515D01*
X51224Y128489D01*
X51162Y128472D01*
X51096Y128431D01*
X51026Y128399D01*
X50977Y128357D01*
X50922Y128324D01*
X50870Y128266D01*
X50812Y128216D01*
X50776Y128162D01*
X50733Y128114D01*
X50700Y128045D01*
X50657Y127980D01*
X50638Y127918D01*
X50610Y127861D01*
X50599Y127791D01*
X50575Y127710D01*
X50574Y127625D01*
X50563Y127556D01*
X50563Y125856D01*
X48944Y124237D01*
X8556Y124237D01*
X6707Y126086D01*
X6681Y126106D01*
X6660Y126130D01*
X6568Y126190D01*
X6481Y126256D01*
X6451Y126267D01*
X6424Y126285D01*
X6319Y126317D01*
X6217Y126355D01*
X6185Y126358D01*
X6154Y126367D01*
X6045Y126369D01*
X5936Y126377D01*
X5904Y126370D01*
X5872Y126371D01*
X5767Y126342D01*
X5660Y126319D01*
X5631Y126304D01*
X5600Y126296D01*
X5507Y126238D01*
X5411Y126187D01*
X5388Y126164D01*
X5360Y126147D01*
X5287Y126066D01*
X5209Y125990D01*
X5193Y125962D01*
X5171Y125938D01*
X5124Y125840D01*
X5070Y125745D01*
X5062Y125713D01*
X5048Y125684D01*
X5034Y125595D01*
X5005Y125470D01*
X5007Y125422D01*
X5001Y125380D01*
X5001Y6000D01*
X5010Y5936D01*
X5009Y5872D01*
X5030Y5797D01*
X5041Y5721D01*
X5067Y5662D01*
X5084Y5600D01*
X5125Y5534D01*
X5157Y5464D01*
X5199Y5415D01*
X5232Y5360D01*
X5290Y5308D01*
X5340Y5250D01*
X5394Y5214D01*
X5442Y5171D01*
X5511Y5138D01*
X5576Y5095D01*
X5638Y5076D01*
X5695Y5048D01*
X5765Y5037D01*
X5846Y5013D01*
X5931Y5012D01*
X6000Y5001D01*
X1564000Y5001D01*
X1564064Y5010D01*
G37*
G36*
X1256360Y145261D02*
X1256360Y145261D01*
X1256392Y145259D01*
X1256499Y145281D01*
X1256607Y145297D01*
X1256636Y145310D01*
X1256668Y145316D01*
X1256764Y145368D01*
X1256864Y145413D01*
X1256888Y145434D01*
X1256917Y145449D01*
X1256995Y145525D01*
X1257078Y145596D01*
X1257096Y145623D01*
X1257119Y145646D01*
X1257172Y145740D01*
X1257233Y145832D01*
X1257242Y145863D01*
X1257258Y145891D01*
X1257283Y145997D01*
X1257315Y146102D01*
X1257315Y146134D01*
X1257323Y146166D01*
X1257317Y146275D01*
X1257319Y146384D01*
X1257310Y146415D01*
X1257309Y146447D01*
X1257273Y146550D01*
X1257244Y146656D01*
X1257227Y146683D01*
X1257216Y146714D01*
X1257163Y146787D01*
X1257095Y146896D01*
X1257059Y146928D01*
X1257034Y146963D01*
X1256890Y147107D01*
X1256813Y147164D01*
X1256742Y147229D01*
X1256701Y147249D01*
X1256665Y147276D01*
X1256575Y147310D01*
X1256488Y147352D01*
X1256446Y147358D01*
X1256401Y147375D01*
X1256273Y147385D01*
X1256184Y147399D01*
X1255229Y147399D01*
X1252299Y150329D01*
X1252299Y154471D01*
X1255229Y157401D01*
X1259371Y157401D01*
X1262301Y154471D01*
X1262301Y153516D01*
X1262314Y153421D01*
X1262319Y153325D01*
X1262334Y153282D01*
X1262341Y153237D01*
X1262380Y153150D01*
X1262412Y153059D01*
X1262437Y153024D01*
X1262457Y152980D01*
X1262540Y152883D01*
X1262593Y152810D01*
X1263790Y151613D01*
X1263867Y151556D01*
X1263938Y151491D01*
X1263979Y151471D01*
X1264015Y151444D01*
X1264105Y151410D01*
X1264192Y151368D01*
X1264234Y151362D01*
X1264279Y151345D01*
X1264407Y151335D01*
X1264496Y151321D01*
X1268077Y151321D01*
X1268109Y151325D01*
X1268141Y151323D01*
X1268248Y151345D01*
X1268357Y151361D01*
X1268386Y151374D01*
X1268418Y151380D01*
X1268514Y151432D01*
X1268614Y151477D01*
X1268638Y151498D01*
X1268667Y151513D01*
X1268745Y151589D01*
X1268828Y151660D01*
X1268846Y151687D01*
X1268869Y151710D01*
X1268922Y151805D01*
X1268982Y151896D01*
X1268992Y151927D01*
X1269008Y151955D01*
X1269033Y152061D01*
X1269065Y152166D01*
X1269065Y152198D01*
X1269073Y152229D01*
X1269067Y152339D01*
X1269068Y152448D01*
X1269060Y152479D01*
X1269058Y152511D01*
X1269022Y152614D01*
X1268993Y152720D01*
X1268976Y152747D01*
X1268966Y152778D01*
X1268912Y152851D01*
X1268845Y152960D01*
X1268809Y152992D01*
X1268784Y153027D01*
X1267539Y154271D01*
X1267539Y162547D01*
X1267526Y162642D01*
X1267521Y162738D01*
X1267506Y162781D01*
X1267499Y162826D01*
X1267491Y162844D01*
X1267491Y178851D01*
X1267478Y178946D01*
X1267473Y179042D01*
X1267458Y179085D01*
X1267451Y179130D01*
X1267412Y179218D01*
X1267380Y179308D01*
X1267355Y179343D01*
X1267335Y179387D01*
X1267267Y179467D01*
X1267240Y179510D01*
X1267220Y179529D01*
X1267199Y179557D01*
X1265305Y181451D01*
X1265229Y181508D01*
X1265157Y181573D01*
X1265116Y181593D01*
X1265080Y181620D01*
X1264990Y181654D01*
X1264903Y181696D01*
X1264861Y181702D01*
X1264816Y181719D01*
X1264688Y181729D01*
X1264599Y181743D01*
X748052Y181743D01*
X747956Y181730D01*
X747860Y181725D01*
X747817Y181710D01*
X747772Y181703D01*
X747685Y181664D01*
X747594Y181632D01*
X747560Y181607D01*
X747515Y181587D01*
X747418Y181504D01*
X747345Y181451D01*
X746447Y180552D01*
X741993Y180552D01*
X741829Y180717D01*
X741752Y180774D01*
X741681Y180839D01*
X741640Y180859D01*
X741603Y180886D01*
X741513Y180920D01*
X741427Y180962D01*
X741385Y180968D01*
X741340Y180985D01*
X741212Y180995D01*
X741122Y181009D01*
X736520Y181009D01*
X736425Y180996D01*
X736328Y180991D01*
X736285Y180976D01*
X736240Y180969D01*
X736153Y180930D01*
X736062Y180898D01*
X736028Y180873D01*
X735983Y180853D01*
X735886Y180770D01*
X735813Y180717D01*
X735779Y180682D01*
X731325Y180682D01*
X731291Y180717D01*
X731214Y180774D01*
X731143Y180839D01*
X731102Y180859D01*
X731065Y180886D01*
X730975Y180920D01*
X730889Y180962D01*
X730847Y180968D01*
X730802Y180985D01*
X730674Y180995D01*
X730584Y181009D01*
X724820Y181009D01*
X724756Y181000D01*
X724692Y181001D01*
X724617Y180980D01*
X724541Y180969D01*
X724482Y180943D01*
X724420Y180926D01*
X724354Y180885D01*
X724284Y180853D01*
X724235Y180811D01*
X724180Y180778D01*
X724128Y180720D01*
X724070Y180670D01*
X724034Y180616D01*
X723991Y180568D01*
X723958Y180499D01*
X723915Y180434D01*
X723896Y180372D01*
X723868Y180315D01*
X723857Y180245D01*
X723833Y180164D01*
X723832Y180079D01*
X723821Y180010D01*
X723821Y159351D01*
X722618Y158148D01*
X722557Y158139D01*
X722498Y158113D01*
X722436Y158096D01*
X722370Y158055D01*
X722300Y158023D01*
X722251Y157981D01*
X722196Y157948D01*
X722144Y157890D01*
X722086Y157840D01*
X722050Y157786D01*
X722007Y157738D01*
X721974Y157669D01*
X721931Y157604D01*
X721912Y157542D01*
X721884Y157485D01*
X721873Y157415D01*
X721849Y157334D01*
X721848Y157249D01*
X721837Y157180D01*
X721837Y152750D01*
X721850Y152655D01*
X721855Y152559D01*
X721870Y152516D01*
X721877Y152471D01*
X721916Y152383D01*
X721948Y152292D01*
X721973Y152258D01*
X721993Y152214D01*
X722076Y152117D01*
X722129Y152043D01*
X728623Y145549D01*
X728700Y145492D01*
X728771Y145427D01*
X728812Y145407D01*
X728849Y145380D01*
X728939Y145346D01*
X729025Y145304D01*
X729067Y145298D01*
X729113Y145281D01*
X729240Y145271D01*
X729330Y145257D01*
X1256328Y145257D01*
X1256360Y145261D01*
G37*
G36*
X668781Y135618D02*
X668781Y135618D01*
X668877Y135623D01*
X668920Y135638D01*
X668965Y135645D01*
X669053Y135684D01*
X669144Y135716D01*
X669178Y135741D01*
X669222Y135761D01*
X669320Y135844D01*
X669393Y135897D01*
X676903Y143407D01*
X676960Y143484D01*
X677025Y143556D01*
X677045Y143596D01*
X677072Y143633D01*
X677106Y143723D01*
X677148Y143809D01*
X677154Y143851D01*
X677171Y143897D01*
X677181Y144024D01*
X677195Y144114D01*
X677195Y157461D01*
X677182Y157557D01*
X677177Y157653D01*
X677162Y157696D01*
X677155Y157741D01*
X677116Y157828D01*
X677084Y157919D01*
X677059Y157953D01*
X677039Y157998D01*
X676956Y158095D01*
X676903Y158168D01*
X675719Y159351D01*
X675719Y181009D01*
X676891Y182181D01*
X677775Y182181D01*
X677870Y182194D01*
X677966Y182199D01*
X678010Y182214D01*
X678055Y182221D01*
X678142Y182260D01*
X678233Y182292D01*
X678267Y182317D01*
X678311Y182337D01*
X678409Y182420D01*
X678482Y182473D01*
X680770Y184761D01*
X680789Y184787D01*
X680814Y184808D01*
X680874Y184900D01*
X680939Y184987D01*
X680951Y185017D01*
X680968Y185044D01*
X681000Y185149D01*
X681039Y185251D01*
X681041Y185283D01*
X681051Y185314D01*
X681052Y185423D01*
X681061Y185532D01*
X681054Y185564D01*
X681054Y185596D01*
X681025Y185701D01*
X681003Y185808D01*
X680988Y185837D01*
X680979Y185868D01*
X680922Y185961D01*
X680870Y186057D01*
X680848Y186080D01*
X680831Y186108D01*
X680750Y186181D01*
X680674Y186259D01*
X680646Y186275D01*
X680622Y186297D01*
X680523Y186344D01*
X680428Y186398D01*
X680397Y186406D01*
X680368Y186420D01*
X680279Y186434D01*
X680154Y186463D01*
X680105Y186461D01*
X680063Y186467D01*
X643093Y186467D01*
X642998Y186454D01*
X642902Y186449D01*
X642859Y186434D01*
X642814Y186427D01*
X642726Y186388D01*
X642636Y186356D01*
X642601Y186331D01*
X642557Y186311D01*
X642460Y186228D01*
X642387Y186175D01*
X640099Y183887D01*
X640079Y183861D01*
X640055Y183840D01*
X639995Y183748D01*
X639929Y183661D01*
X639918Y183631D01*
X639900Y183604D01*
X639868Y183499D01*
X639830Y183397D01*
X639827Y183365D01*
X639818Y183334D01*
X639816Y183225D01*
X639808Y183116D01*
X639815Y183084D01*
X639814Y183052D01*
X639843Y182947D01*
X639866Y182840D01*
X639881Y182811D01*
X639889Y182780D01*
X639947Y182687D01*
X639998Y182591D01*
X640020Y182568D01*
X640037Y182540D01*
X640119Y182467D01*
X640195Y182389D01*
X640223Y182373D01*
X640247Y182351D01*
X640345Y182304D01*
X640440Y182250D01*
X640472Y182242D01*
X640501Y182228D01*
X640590Y182214D01*
X640715Y182185D01*
X640763Y182187D01*
X640805Y182181D01*
X646449Y182181D01*
X647621Y181009D01*
X647621Y159351D01*
X646609Y158340D01*
X646571Y158289D01*
X646525Y158244D01*
X646487Y158176D01*
X646440Y158114D01*
X646417Y158054D01*
X646386Y157998D01*
X646368Y157923D01*
X646341Y157850D01*
X646336Y157786D01*
X646321Y157724D01*
X646325Y157646D01*
X646319Y157569D01*
X646332Y157506D01*
X646335Y157442D01*
X646361Y157369D01*
X646376Y157293D01*
X646407Y157236D01*
X646428Y157176D01*
X646469Y157119D01*
X646509Y157044D01*
X646568Y156983D01*
X646609Y156927D01*
X647621Y155915D01*
X647621Y154638D01*
X647625Y154606D01*
X647623Y154574D01*
X647645Y154467D01*
X647661Y154359D01*
X647674Y154329D01*
X647680Y154298D01*
X647732Y154201D01*
X647777Y154102D01*
X647798Y154077D01*
X647813Y154049D01*
X647889Y153971D01*
X647960Y153887D01*
X647987Y153870D01*
X648010Y153847D01*
X648105Y153793D01*
X648196Y153733D01*
X648227Y153723D01*
X648255Y153708D01*
X648361Y153682D01*
X648466Y153651D01*
X648498Y153650D01*
X648529Y153643D01*
X648639Y153648D01*
X648748Y153647D01*
X648779Y153655D01*
X648811Y153657D01*
X648914Y153693D01*
X649020Y153722D01*
X649047Y153739D01*
X649078Y153750D01*
X649151Y153803D01*
X649260Y153870D01*
X649292Y153906D01*
X649327Y153931D01*
X651503Y156107D01*
X651560Y156184D01*
X651625Y156256D01*
X651645Y156296D01*
X651672Y156333D01*
X651706Y156423D01*
X651748Y156509D01*
X651754Y156551D01*
X651771Y156597D01*
X651781Y156724D01*
X651782Y156728D01*
X651783Y156733D01*
X651783Y156738D01*
X651795Y156814D01*
X651795Y157461D01*
X651782Y157557D01*
X651777Y157653D01*
X651762Y157696D01*
X651755Y157741D01*
X651716Y157828D01*
X651684Y157919D01*
X651659Y157953D01*
X651639Y157998D01*
X651556Y158095D01*
X651503Y158168D01*
X650319Y159351D01*
X650319Y181009D01*
X651491Y182181D01*
X659149Y182181D01*
X660321Y181009D01*
X660321Y159351D01*
X659137Y158168D01*
X659080Y158091D01*
X659015Y158020D01*
X658995Y157979D01*
X658968Y157942D01*
X658934Y157853D01*
X658892Y157766D01*
X658886Y157724D01*
X658869Y157679D01*
X658859Y157551D01*
X658845Y157461D01*
X658845Y153480D01*
X649160Y143795D01*
X628460Y143795D01*
X626103Y146153D01*
X616387Y155869D01*
X616361Y155888D01*
X616340Y155913D01*
X616248Y155973D01*
X616161Y156038D01*
X616131Y156049D01*
X616104Y156067D01*
X615999Y156099D01*
X615897Y156138D01*
X615865Y156140D01*
X615834Y156149D01*
X615725Y156151D01*
X615616Y156159D01*
X615584Y156153D01*
X615552Y156153D01*
X615447Y156124D01*
X615340Y156102D01*
X615311Y156087D01*
X615280Y156078D01*
X615187Y156021D01*
X615091Y155969D01*
X615068Y155947D01*
X615040Y155930D01*
X614967Y155849D01*
X614889Y155773D01*
X614873Y155744D01*
X614851Y155721D01*
X614804Y155622D01*
X614750Y155527D01*
X614742Y155496D01*
X614728Y155467D01*
X614714Y155378D01*
X614685Y155253D01*
X614687Y155204D01*
X614681Y155162D01*
X614681Y152813D01*
X605520Y152813D01*
X605456Y152804D01*
X605392Y152805D01*
X605318Y152784D01*
X605241Y152773D01*
X605182Y152747D01*
X605120Y152730D01*
X605054Y152689D01*
X604984Y152657D01*
X604935Y152615D01*
X604880Y152582D01*
X604829Y152524D01*
X604770Y152474D01*
X604734Y152420D01*
X604691Y152372D01*
X604658Y152303D01*
X604615Y152238D01*
X604596Y152176D01*
X604568Y152119D01*
X604558Y152049D01*
X604533Y151968D01*
X604532Y151883D01*
X604521Y151814D01*
X604521Y150813D01*
X604519Y150813D01*
X604519Y151814D01*
X604510Y151878D01*
X604511Y151942D01*
X604490Y152016D01*
X604479Y152093D01*
X604453Y152152D01*
X604436Y152214D01*
X604395Y152280D01*
X604363Y152350D01*
X604321Y152399D01*
X604288Y152454D01*
X604230Y152506D01*
X604180Y152564D01*
X604126Y152600D01*
X604078Y152643D01*
X604009Y152676D01*
X603944Y152719D01*
X603882Y152738D01*
X603824Y152766D01*
X603755Y152776D01*
X603674Y152801D01*
X603589Y152802D01*
X603520Y152813D01*
X594359Y152813D01*
X594359Y155496D01*
X594350Y155560D01*
X594351Y155624D01*
X594330Y155699D01*
X594319Y155775D01*
X594293Y155834D01*
X594276Y155896D01*
X594235Y155962D01*
X594203Y156032D01*
X594161Y156081D01*
X594128Y156136D01*
X594070Y156188D01*
X594020Y156246D01*
X593966Y156282D01*
X593918Y156325D01*
X593849Y156358D01*
X593784Y156401D01*
X593722Y156420D01*
X593665Y156448D01*
X593595Y156459D01*
X593514Y156483D01*
X593429Y156484D01*
X593360Y156495D01*
X51562Y156495D01*
X51498Y156486D01*
X51434Y156487D01*
X51359Y156466D01*
X51283Y156455D01*
X51224Y156429D01*
X51162Y156412D01*
X51096Y156371D01*
X51026Y156339D01*
X50977Y156297D01*
X50922Y156264D01*
X50870Y156206D01*
X50812Y156156D01*
X50776Y156102D01*
X50733Y156054D01*
X50700Y155985D01*
X50657Y155920D01*
X50638Y155858D01*
X50610Y155801D01*
X50599Y155731D01*
X50575Y155650D01*
X50574Y155565D01*
X50563Y155496D01*
X50563Y151256D01*
X48944Y149637D01*
X8556Y149637D01*
X6707Y151486D01*
X6681Y151506D01*
X6660Y151530D01*
X6568Y151590D01*
X6481Y151656D01*
X6451Y151667D01*
X6424Y151685D01*
X6319Y151717D01*
X6217Y151755D01*
X6185Y151758D01*
X6154Y151767D01*
X6045Y151769D01*
X5936Y151777D01*
X5904Y151770D01*
X5872Y151771D01*
X5767Y151742D01*
X5660Y151719D01*
X5631Y151704D01*
X5600Y151696D01*
X5507Y151638D01*
X5411Y151587D01*
X5388Y151564D01*
X5360Y151547D01*
X5287Y151466D01*
X5209Y151390D01*
X5193Y151362D01*
X5171Y151338D01*
X5124Y151240D01*
X5070Y151145D01*
X5062Y151113D01*
X5048Y151084D01*
X5034Y150995D01*
X5005Y150870D01*
X5007Y150822D01*
X5001Y150780D01*
X5001Y141320D01*
X5005Y141288D01*
X5003Y141256D01*
X5025Y141149D01*
X5041Y141041D01*
X5054Y141012D01*
X5060Y140980D01*
X5112Y140884D01*
X5157Y140784D01*
X5178Y140760D01*
X5193Y140731D01*
X5269Y140653D01*
X5340Y140570D01*
X5367Y140552D01*
X5390Y140529D01*
X5485Y140475D01*
X5576Y140415D01*
X5607Y140406D01*
X5635Y140390D01*
X5741Y140365D01*
X5846Y140333D01*
X5878Y140332D01*
X5909Y140325D01*
X6019Y140331D01*
X6128Y140329D01*
X6159Y140338D01*
X6191Y140339D01*
X6294Y140375D01*
X6400Y140404D01*
X6427Y140421D01*
X6458Y140432D01*
X6531Y140485D01*
X6640Y140553D01*
X6672Y140589D01*
X6707Y140614D01*
X8556Y142463D01*
X48944Y142463D01*
X50563Y140844D01*
X50563Y136604D01*
X50572Y136540D01*
X50571Y136476D01*
X50592Y136401D01*
X50603Y136325D01*
X50629Y136266D01*
X50646Y136204D01*
X50687Y136138D01*
X50719Y136068D01*
X50761Y136019D01*
X50794Y135964D01*
X50852Y135912D01*
X50902Y135854D01*
X50956Y135818D01*
X51004Y135775D01*
X51073Y135742D01*
X51138Y135699D01*
X51200Y135680D01*
X51257Y135652D01*
X51327Y135641D01*
X51408Y135617D01*
X51493Y135616D01*
X51562Y135605D01*
X668686Y135605D01*
X668781Y135618D01*
G37*
%LPC*%
G36*
X708607Y9175D02*
X708607Y9175D01*
X707435Y10347D01*
X707435Y27245D01*
X708607Y28417D01*
X710932Y28417D01*
X710996Y28426D01*
X711060Y28425D01*
X711135Y28446D01*
X711211Y28457D01*
X711270Y28483D01*
X711332Y28500D01*
X711398Y28541D01*
X711468Y28573D01*
X711517Y28615D01*
X711572Y28648D01*
X711624Y28706D01*
X711682Y28756D01*
X711718Y28810D01*
X711761Y28858D01*
X711794Y28927D01*
X711837Y28992D01*
X711856Y29054D01*
X711884Y29111D01*
X711895Y29181D01*
X711919Y29262D01*
X711920Y29347D01*
X711931Y29416D01*
X711931Y33180D01*
X711922Y33244D01*
X711923Y33308D01*
X711902Y33383D01*
X711891Y33459D01*
X711865Y33518D01*
X711848Y33580D01*
X711807Y33646D01*
X711775Y33716D01*
X711733Y33765D01*
X711700Y33820D01*
X711642Y33872D01*
X711592Y33930D01*
X711538Y33966D01*
X711490Y34009D01*
X711421Y34042D01*
X711356Y34085D01*
X711294Y34104D01*
X711237Y34132D01*
X711167Y34143D01*
X711086Y34167D01*
X711001Y34168D01*
X710932Y34179D01*
X710135Y34179D01*
X708963Y35351D01*
X708963Y50848D01*
X708954Y50912D01*
X708955Y50976D01*
X708934Y51051D01*
X708923Y51127D01*
X708897Y51186D01*
X708880Y51248D01*
X708839Y51314D01*
X708807Y51384D01*
X708765Y51433D01*
X708732Y51488D01*
X708674Y51540D01*
X708624Y51598D01*
X708570Y51634D01*
X708522Y51677D01*
X708453Y51710D01*
X708388Y51753D01*
X708326Y51772D01*
X708269Y51800D01*
X708199Y51811D01*
X708118Y51835D01*
X708033Y51836D01*
X707964Y51847D01*
X704450Y51847D01*
X676687Y79610D01*
X676687Y81769D01*
X676674Y81864D01*
X676669Y81961D01*
X676654Y82004D01*
X676647Y82049D01*
X676608Y82136D01*
X676576Y82227D01*
X676551Y82261D01*
X676531Y82306D01*
X676448Y82403D01*
X676395Y82476D01*
X675719Y83151D01*
X675719Y104809D01*
X676891Y105981D01*
X684549Y105981D01*
X685721Y104809D01*
X685721Y83111D01*
X685720Y83110D01*
X685674Y83048D01*
X685651Y82988D01*
X685619Y82932D01*
X685601Y82856D01*
X685574Y82784D01*
X685569Y82720D01*
X685554Y82657D01*
X685558Y82580D01*
X685552Y82503D01*
X685565Y82440D01*
X685569Y82376D01*
X685594Y82302D01*
X685610Y82227D01*
X685640Y82170D01*
X685661Y82109D01*
X685702Y82053D01*
X685742Y81978D01*
X685802Y81917D01*
X685843Y81860D01*
X687681Y80022D01*
X687707Y80002D01*
X687728Y79978D01*
X687820Y79918D01*
X687907Y79852D01*
X687937Y79841D01*
X687964Y79823D01*
X688069Y79791D01*
X688171Y79753D01*
X688203Y79750D01*
X688234Y79741D01*
X688343Y79740D01*
X688452Y79731D01*
X688484Y79738D01*
X688516Y79737D01*
X688621Y79766D01*
X688728Y79789D01*
X688757Y79804D01*
X688788Y79812D01*
X688881Y79870D01*
X688977Y79921D01*
X689000Y79944D01*
X689028Y79961D01*
X689101Y80042D01*
X689179Y80118D01*
X689195Y80146D01*
X689217Y80170D01*
X689264Y80268D01*
X689318Y80363D01*
X689326Y80395D01*
X689340Y80424D01*
X689354Y80513D01*
X689383Y80638D01*
X689381Y80686D01*
X689387Y80728D01*
X689387Y81769D01*
X689374Y81864D01*
X689369Y81961D01*
X689354Y82004D01*
X689347Y82049D01*
X689308Y82136D01*
X689276Y82227D01*
X689251Y82261D01*
X689231Y82306D01*
X689148Y82403D01*
X689095Y82476D01*
X688419Y83151D01*
X688419Y104809D01*
X689591Y105981D01*
X697249Y105981D01*
X698421Y104809D01*
X698421Y83151D01*
X697745Y82476D01*
X697688Y82399D01*
X697623Y82328D01*
X697603Y82287D01*
X697576Y82250D01*
X697542Y82160D01*
X697500Y82074D01*
X697494Y82032D01*
X697477Y81986D01*
X697467Y81859D01*
X697453Y81769D01*
X697453Y80824D01*
X697466Y80729D01*
X697471Y80633D01*
X697486Y80590D01*
X697493Y80545D01*
X697532Y80458D01*
X697564Y80367D01*
X697589Y80332D01*
X697609Y80288D01*
X697692Y80191D01*
X697745Y80118D01*
X700381Y77482D01*
X700407Y77462D01*
X700428Y77438D01*
X700520Y77378D01*
X700607Y77312D01*
X700637Y77301D01*
X700664Y77283D01*
X700769Y77251D01*
X700871Y77213D01*
X700903Y77210D01*
X700934Y77201D01*
X701043Y77200D01*
X701152Y77191D01*
X701184Y77198D01*
X701216Y77197D01*
X701321Y77226D01*
X701428Y77249D01*
X701457Y77264D01*
X701488Y77272D01*
X701581Y77330D01*
X701677Y77381D01*
X701700Y77404D01*
X701728Y77421D01*
X701801Y77502D01*
X701879Y77578D01*
X701895Y77606D01*
X701917Y77630D01*
X701964Y77728D01*
X702018Y77823D01*
X702026Y77855D01*
X702040Y77884D01*
X702054Y77973D01*
X702083Y78098D01*
X702081Y78146D01*
X702087Y78188D01*
X702087Y81769D01*
X702074Y81864D01*
X702069Y81961D01*
X702054Y82004D01*
X702047Y82049D01*
X702008Y82136D01*
X701976Y82227D01*
X701951Y82261D01*
X701931Y82306D01*
X701848Y82403D01*
X701795Y82476D01*
X701119Y83151D01*
X701119Y104809D01*
X702291Y105981D01*
X709949Y105981D01*
X711121Y104809D01*
X711121Y83151D01*
X710445Y82476D01*
X710388Y82399D01*
X710323Y82328D01*
X710303Y82287D01*
X710276Y82250D01*
X710242Y82160D01*
X710200Y82074D01*
X710194Y82032D01*
X710177Y81986D01*
X710167Y81859D01*
X710153Y81769D01*
X710153Y78284D01*
X710166Y78189D01*
X710171Y78093D01*
X710186Y78050D01*
X710193Y78005D01*
X710232Y77918D01*
X710264Y77827D01*
X710289Y77792D01*
X710309Y77748D01*
X710392Y77651D01*
X710445Y77578D01*
X713594Y74429D01*
X713671Y74372D01*
X713742Y74307D01*
X713783Y74287D01*
X713819Y74260D01*
X713909Y74226D01*
X713996Y74184D01*
X714038Y74178D01*
X714083Y74161D01*
X714211Y74151D01*
X714300Y74137D01*
X978046Y74137D01*
X994633Y57550D01*
X994633Y53720D01*
X994642Y53656D01*
X994641Y53592D01*
X994662Y53517D01*
X994673Y53441D01*
X994699Y53382D01*
X994716Y53320D01*
X994757Y53254D01*
X994789Y53184D01*
X994831Y53135D01*
X994864Y53080D01*
X994922Y53028D01*
X994972Y52970D01*
X995026Y52934D01*
X995074Y52891D01*
X995143Y52858D01*
X995208Y52815D01*
X995270Y52796D01*
X995327Y52768D01*
X995397Y52757D01*
X995478Y52733D01*
X995563Y52732D01*
X995632Y52721D01*
X999078Y52721D01*
X999078Y44180D01*
X999087Y44116D01*
X999086Y44052D01*
X999107Y43978D01*
X999118Y43901D01*
X999144Y43842D01*
X999161Y43780D01*
X999202Y43714D01*
X999234Y43644D01*
X999276Y43595D01*
X999309Y43540D01*
X999367Y43489D01*
X999417Y43430D01*
X999471Y43394D01*
X999519Y43351D01*
X999588Y43318D01*
X999653Y43275D01*
X999715Y43256D01*
X999772Y43228D01*
X999842Y43218D01*
X999923Y43193D01*
X1000008Y43192D01*
X1000077Y43181D01*
X1001078Y43181D01*
X1001078Y43179D01*
X1000077Y43179D01*
X1000013Y43170D01*
X999949Y43171D01*
X999874Y43150D01*
X999798Y43139D01*
X999739Y43113D01*
X999677Y43096D01*
X999611Y43055D01*
X999541Y43023D01*
X999492Y42981D01*
X999437Y42948D01*
X999385Y42890D01*
X999327Y42840D01*
X999291Y42786D01*
X999248Y42738D01*
X999215Y42669D01*
X999172Y42604D01*
X999153Y42542D01*
X999125Y42484D01*
X999115Y42415D01*
X999090Y42334D01*
X999089Y42249D01*
X999078Y42180D01*
X999078Y33639D01*
X995632Y33639D01*
X995568Y33630D01*
X995504Y33631D01*
X995429Y33610D01*
X995353Y33599D01*
X995294Y33573D01*
X995232Y33556D01*
X995166Y33515D01*
X995096Y33483D01*
X995047Y33441D01*
X994992Y33408D01*
X994940Y33350D01*
X994882Y33300D01*
X994846Y33246D01*
X994803Y33198D01*
X994770Y33129D01*
X994727Y33064D01*
X994708Y33002D01*
X994680Y32945D01*
X994669Y32875D01*
X994645Y32794D01*
X994644Y32709D01*
X994633Y32640D01*
X994633Y30024D01*
X994646Y29929D01*
X994651Y29833D01*
X994666Y29790D01*
X994673Y29745D01*
X994712Y29658D01*
X994744Y29567D01*
X994769Y29532D01*
X994789Y29488D01*
X994872Y29391D01*
X994902Y29350D01*
X994907Y29342D01*
X994909Y29340D01*
X994925Y29318D01*
X995534Y28709D01*
X995611Y28652D01*
X995682Y28587D01*
X995723Y28567D01*
X995759Y28540D01*
X995849Y28506D01*
X995936Y28464D01*
X995978Y28458D01*
X996023Y28441D01*
X996151Y28431D01*
X996240Y28417D01*
X1006965Y28417D01*
X1008137Y27245D01*
X1008137Y10347D01*
X1006965Y9175D01*
X995147Y9175D01*
X993975Y10347D01*
X993975Y18448D01*
X993962Y18543D01*
X993957Y18639D01*
X993942Y18682D01*
X993935Y18727D01*
X993896Y18814D01*
X993864Y18905D01*
X993839Y18940D01*
X993819Y18984D01*
X993736Y19081D01*
X993683Y19154D01*
X987303Y25534D01*
X987277Y25554D01*
X987256Y25578D01*
X987164Y25638D01*
X987077Y25704D01*
X987047Y25715D01*
X987020Y25733D01*
X986915Y25765D01*
X986813Y25803D01*
X986781Y25806D01*
X986750Y25815D01*
X986641Y25816D01*
X986532Y25825D01*
X986500Y25818D01*
X986468Y25819D01*
X986363Y25790D01*
X986256Y25767D01*
X986227Y25752D01*
X986196Y25744D01*
X986103Y25686D01*
X986007Y25635D01*
X985984Y25612D01*
X985956Y25595D01*
X985883Y25514D01*
X985805Y25438D01*
X985789Y25410D01*
X985767Y25386D01*
X985720Y25288D01*
X985666Y25193D01*
X985658Y25161D01*
X985644Y25132D01*
X985630Y25043D01*
X985601Y24918D01*
X985603Y24870D01*
X985597Y24828D01*
X985597Y10347D01*
X984425Y9175D01*
X972607Y9175D01*
X971435Y10347D01*
X971435Y27245D01*
X972607Y28417D01*
X975092Y28417D01*
X975156Y28426D01*
X975220Y28425D01*
X975295Y28446D01*
X975371Y28457D01*
X975430Y28483D01*
X975492Y28500D01*
X975558Y28541D01*
X975628Y28573D01*
X975677Y28615D01*
X975732Y28648D01*
X975784Y28706D01*
X975842Y28756D01*
X975878Y28810D01*
X975921Y28858D01*
X975954Y28927D01*
X975997Y28992D01*
X976016Y29054D01*
X976044Y29111D01*
X976055Y29181D01*
X976079Y29262D01*
X976080Y29347D01*
X976091Y29416D01*
X976091Y33180D01*
X976082Y33244D01*
X976083Y33308D01*
X976062Y33383D01*
X976051Y33459D01*
X976025Y33518D01*
X976008Y33580D01*
X975967Y33646D01*
X975935Y33716D01*
X975893Y33765D01*
X975860Y33820D01*
X975802Y33872D01*
X975752Y33930D01*
X975698Y33966D01*
X975650Y34009D01*
X975581Y34042D01*
X975516Y34085D01*
X975454Y34104D01*
X975397Y34132D01*
X975327Y34143D01*
X975246Y34167D01*
X975161Y34168D01*
X975092Y34179D01*
X974295Y34179D01*
X973123Y35351D01*
X973123Y51009D01*
X974295Y52181D01*
X985568Y52181D01*
X985632Y52190D01*
X985696Y52189D01*
X985771Y52210D01*
X985847Y52221D01*
X985906Y52247D01*
X985968Y52264D01*
X986034Y52305D01*
X986104Y52337D01*
X986153Y52379D01*
X986208Y52412D01*
X986260Y52470D01*
X986318Y52520D01*
X986354Y52574D01*
X986397Y52622D01*
X986430Y52691D01*
X986473Y52756D01*
X986492Y52818D01*
X986520Y52875D01*
X986531Y52945D01*
X986555Y53026D01*
X986556Y53110D01*
X986567Y53180D01*
X986567Y53796D01*
X986554Y53891D01*
X986549Y53987D01*
X986534Y54030D01*
X986527Y54075D01*
X986488Y54162D01*
X986456Y54253D01*
X986431Y54288D01*
X986411Y54332D01*
X986328Y54429D01*
X986275Y54502D01*
X974998Y65779D01*
X974921Y65836D01*
X974850Y65901D01*
X974809Y65921D01*
X974773Y65948D01*
X974683Y65982D01*
X974596Y66024D01*
X974554Y66030D01*
X974509Y66047D01*
X974381Y66057D01*
X974292Y66071D01*
X853904Y66071D01*
X853872Y66067D01*
X853840Y66069D01*
X853733Y66047D01*
X853625Y66031D01*
X853596Y66018D01*
X853564Y66012D01*
X853468Y65960D01*
X853368Y65915D01*
X853344Y65894D01*
X853315Y65879D01*
X853237Y65803D01*
X853154Y65732D01*
X853136Y65705D01*
X853113Y65682D01*
X853059Y65587D01*
X852999Y65496D01*
X852990Y65465D01*
X852974Y65437D01*
X852949Y65330D01*
X852917Y65226D01*
X852917Y65194D01*
X852909Y65163D01*
X852915Y65053D01*
X852913Y64944D01*
X852922Y64913D01*
X852923Y64881D01*
X852959Y64778D01*
X852988Y64672D01*
X853005Y64645D01*
X853016Y64614D01*
X853069Y64541D01*
X853137Y64432D01*
X853173Y64400D01*
X853198Y64365D01*
X859898Y57665D01*
X862553Y55010D01*
X862553Y53720D01*
X862562Y53656D01*
X862561Y53592D01*
X862582Y53517D01*
X862593Y53441D01*
X862619Y53382D01*
X862636Y53320D01*
X862677Y53254D01*
X862709Y53184D01*
X862751Y53135D01*
X862784Y53080D01*
X862842Y53028D01*
X862892Y52970D01*
X862946Y52934D01*
X862994Y52891D01*
X863063Y52858D01*
X863128Y52815D01*
X863190Y52796D01*
X863247Y52768D01*
X863317Y52757D01*
X863398Y52733D01*
X863483Y52732D01*
X863552Y52721D01*
X866998Y52721D01*
X866998Y44180D01*
X867007Y44116D01*
X867006Y44052D01*
X867027Y43978D01*
X867038Y43901D01*
X867064Y43842D01*
X867081Y43780D01*
X867122Y43714D01*
X867154Y43644D01*
X867196Y43595D01*
X867229Y43540D01*
X867287Y43489D01*
X867337Y43430D01*
X867391Y43394D01*
X867439Y43351D01*
X867508Y43318D01*
X867573Y43275D01*
X867635Y43256D01*
X867692Y43228D01*
X867762Y43218D01*
X867843Y43193D01*
X867928Y43192D01*
X867997Y43181D01*
X868998Y43181D01*
X868998Y43179D01*
X867997Y43179D01*
X867933Y43170D01*
X867869Y43171D01*
X867794Y43150D01*
X867718Y43139D01*
X867659Y43113D01*
X867597Y43096D01*
X867531Y43055D01*
X867461Y43023D01*
X867412Y42981D01*
X867357Y42948D01*
X867305Y42890D01*
X867247Y42840D01*
X867211Y42786D01*
X867168Y42738D01*
X867135Y42669D01*
X867092Y42604D01*
X867073Y42542D01*
X867045Y42484D01*
X867035Y42415D01*
X867010Y42334D01*
X867009Y42249D01*
X866998Y42180D01*
X866998Y33639D01*
X863552Y33639D01*
X863488Y33630D01*
X863424Y33631D01*
X863349Y33610D01*
X863273Y33599D01*
X863214Y33573D01*
X863152Y33556D01*
X863086Y33515D01*
X863016Y33483D01*
X862967Y33441D01*
X862912Y33408D01*
X862860Y33350D01*
X862802Y33300D01*
X862766Y33246D01*
X862723Y33198D01*
X862690Y33129D01*
X862647Y33064D01*
X862628Y33002D01*
X862600Y32945D01*
X862589Y32875D01*
X862565Y32794D01*
X862564Y32709D01*
X862553Y32640D01*
X862553Y31416D01*
X862566Y31321D01*
X862571Y31225D01*
X862586Y31182D01*
X862593Y31137D01*
X862632Y31050D01*
X862664Y30959D01*
X862689Y30924D01*
X862709Y30880D01*
X862792Y30783D01*
X862845Y30710D01*
X864846Y28709D01*
X864923Y28652D01*
X864994Y28587D01*
X865035Y28567D01*
X865071Y28540D01*
X865161Y28506D01*
X865248Y28464D01*
X865290Y28458D01*
X865335Y28441D01*
X865463Y28431D01*
X865552Y28417D01*
X874965Y28417D01*
X876137Y27245D01*
X876137Y10347D01*
X874965Y9175D01*
X863147Y9175D01*
X861975Y10347D01*
X861975Y19760D01*
X861962Y19855D01*
X861957Y19951D01*
X861942Y19994D01*
X861935Y20039D01*
X861896Y20126D01*
X861864Y20217D01*
X861839Y20252D01*
X861819Y20296D01*
X861736Y20393D01*
X861683Y20466D01*
X857142Y25006D01*
X857142Y25007D01*
X855303Y26846D01*
X855277Y26866D01*
X855256Y26890D01*
X855164Y26950D01*
X855077Y27016D01*
X855047Y27027D01*
X855020Y27045D01*
X854915Y27077D01*
X854813Y27115D01*
X854781Y27118D01*
X854750Y27127D01*
X854641Y27128D01*
X854532Y27137D01*
X854500Y27130D01*
X854468Y27131D01*
X854363Y27102D01*
X854256Y27079D01*
X854227Y27064D01*
X854196Y27056D01*
X854103Y26998D01*
X854007Y26947D01*
X853984Y26924D01*
X853956Y26907D01*
X853883Y26826D01*
X853805Y26750D01*
X853789Y26722D01*
X853767Y26698D01*
X853720Y26600D01*
X853666Y26505D01*
X853658Y26473D01*
X853644Y26444D01*
X853630Y26355D01*
X853601Y26230D01*
X853603Y26182D01*
X853597Y26140D01*
X853597Y10347D01*
X852425Y9175D01*
X840607Y9175D01*
X839435Y10347D01*
X839435Y27245D01*
X840607Y28417D01*
X843012Y28417D01*
X843076Y28426D01*
X843140Y28425D01*
X843215Y28446D01*
X843291Y28457D01*
X843350Y28483D01*
X843412Y28500D01*
X843478Y28541D01*
X843548Y28573D01*
X843597Y28615D01*
X843652Y28648D01*
X843704Y28706D01*
X843762Y28756D01*
X843798Y28810D01*
X843841Y28858D01*
X843874Y28927D01*
X843917Y28992D01*
X843936Y29054D01*
X843964Y29111D01*
X843975Y29181D01*
X843999Y29262D01*
X844000Y29347D01*
X844011Y29416D01*
X844011Y33180D01*
X844002Y33244D01*
X844003Y33308D01*
X843982Y33383D01*
X843971Y33459D01*
X843945Y33518D01*
X843928Y33580D01*
X843887Y33646D01*
X843855Y33716D01*
X843813Y33765D01*
X843780Y33820D01*
X843722Y33872D01*
X843672Y33930D01*
X843618Y33966D01*
X843570Y34009D01*
X843501Y34042D01*
X843436Y34085D01*
X843374Y34104D01*
X843317Y34132D01*
X843247Y34143D01*
X843166Y34167D01*
X843081Y34168D01*
X843012Y34179D01*
X842215Y34179D01*
X841043Y35351D01*
X841043Y51009D01*
X842215Y52181D01*
X851564Y52181D01*
X851596Y52185D01*
X851628Y52183D01*
X851735Y52205D01*
X851843Y52221D01*
X851872Y52234D01*
X851904Y52240D01*
X852000Y52292D01*
X852100Y52337D01*
X852124Y52358D01*
X852153Y52373D01*
X852231Y52449D01*
X852314Y52520D01*
X852332Y52547D01*
X852355Y52570D01*
X852409Y52665D01*
X852469Y52756D01*
X852478Y52787D01*
X852494Y52815D01*
X852519Y52922D01*
X852551Y53026D01*
X852551Y53058D01*
X852559Y53089D01*
X852553Y53199D01*
X852555Y53308D01*
X852546Y53339D01*
X852545Y53371D01*
X852509Y53474D01*
X852480Y53580D01*
X852463Y53607D01*
X852452Y53638D01*
X852399Y53711D01*
X852331Y53820D01*
X852295Y53852D01*
X852270Y53887D01*
X846982Y59175D01*
X846905Y59232D01*
X846834Y59297D01*
X846793Y59317D01*
X846757Y59344D01*
X846667Y59378D01*
X846580Y59420D01*
X846538Y59426D01*
X846493Y59443D01*
X846365Y59453D01*
X846276Y59467D01*
X725888Y59467D01*
X725856Y59463D01*
X725824Y59465D01*
X725717Y59443D01*
X725609Y59427D01*
X725580Y59414D01*
X725548Y59408D01*
X725452Y59356D01*
X725352Y59311D01*
X725328Y59290D01*
X725299Y59275D01*
X725221Y59199D01*
X725138Y59128D01*
X725120Y59101D01*
X725097Y59078D01*
X725043Y58983D01*
X724983Y58892D01*
X724974Y58861D01*
X724958Y58833D01*
X724933Y58727D01*
X724901Y58622D01*
X724901Y58590D01*
X724893Y58559D01*
X724899Y58449D01*
X724897Y58340D01*
X724906Y58309D01*
X724907Y58277D01*
X724943Y58174D01*
X724972Y58068D01*
X724989Y58041D01*
X725000Y58010D01*
X725053Y57937D01*
X725121Y57828D01*
X725157Y57796D01*
X725182Y57761D01*
X727818Y55125D01*
X730102Y52841D01*
X730170Y52790D01*
X730233Y52731D01*
X730283Y52706D01*
X730327Y52672D01*
X730408Y52642D01*
X730484Y52603D01*
X730539Y52592D01*
X730591Y52572D01*
X730677Y52566D01*
X730761Y52550D01*
X730812Y52555D01*
X730873Y52551D01*
X730982Y52574D01*
X731067Y52583D01*
X731582Y52721D01*
X734918Y52721D01*
X734918Y44180D01*
X734927Y44116D01*
X734926Y44052D01*
X734947Y43978D01*
X734958Y43901D01*
X734984Y43842D01*
X735001Y43780D01*
X735042Y43714D01*
X735074Y43644D01*
X735116Y43595D01*
X735149Y43540D01*
X735207Y43489D01*
X735257Y43430D01*
X735311Y43394D01*
X735359Y43351D01*
X735428Y43318D01*
X735493Y43275D01*
X735555Y43256D01*
X735612Y43228D01*
X735682Y43218D01*
X735763Y43193D01*
X735848Y43192D01*
X735917Y43181D01*
X736918Y43181D01*
X736918Y43179D01*
X735917Y43179D01*
X735853Y43170D01*
X735789Y43171D01*
X735714Y43150D01*
X735638Y43139D01*
X735579Y43113D01*
X735517Y43096D01*
X735451Y43055D01*
X735381Y43023D01*
X735332Y42981D01*
X735277Y42948D01*
X735225Y42890D01*
X735167Y42840D01*
X735131Y42786D01*
X735088Y42738D01*
X735055Y42669D01*
X735012Y42604D01*
X734993Y42542D01*
X734965Y42484D01*
X734955Y42415D01*
X734930Y42334D01*
X734929Y42249D01*
X734918Y42180D01*
X734918Y33639D01*
X731472Y33639D01*
X731408Y33630D01*
X731344Y33631D01*
X731269Y33610D01*
X731193Y33599D01*
X731134Y33573D01*
X731072Y33556D01*
X731006Y33515D01*
X730936Y33483D01*
X730887Y33441D01*
X730832Y33408D01*
X730780Y33350D01*
X730722Y33300D01*
X730686Y33246D01*
X730643Y33198D01*
X730610Y33129D01*
X730567Y33064D01*
X730548Y33002D01*
X730520Y32945D01*
X730509Y32875D01*
X730485Y32794D01*
X730484Y32709D01*
X730473Y32640D01*
X730473Y30024D01*
X730486Y29929D01*
X730491Y29833D01*
X730506Y29790D01*
X730513Y29745D01*
X730552Y29658D01*
X730584Y29567D01*
X730609Y29532D01*
X730629Y29488D01*
X730712Y29391D01*
X730742Y29350D01*
X730747Y29342D01*
X730749Y29340D01*
X730765Y29318D01*
X731374Y28709D01*
X731451Y28652D01*
X731522Y28587D01*
X731563Y28567D01*
X731599Y28540D01*
X731689Y28506D01*
X731776Y28464D01*
X731818Y28458D01*
X731863Y28441D01*
X731991Y28431D01*
X732080Y28417D01*
X742965Y28417D01*
X744137Y27245D01*
X744137Y10347D01*
X742965Y9175D01*
X731147Y9175D01*
X729975Y10347D01*
X729975Y18288D01*
X729962Y18383D01*
X729957Y18479D01*
X729942Y18522D01*
X729935Y18567D01*
X729896Y18654D01*
X729864Y18745D01*
X729839Y18780D01*
X729819Y18824D01*
X729736Y18921D01*
X729683Y18994D01*
X723303Y25374D01*
X723277Y25394D01*
X723256Y25418D01*
X723164Y25478D01*
X723077Y25544D01*
X723047Y25555D01*
X723020Y25573D01*
X722915Y25605D01*
X722813Y25643D01*
X722781Y25646D01*
X722750Y25655D01*
X722641Y25656D01*
X722532Y25665D01*
X722500Y25658D01*
X722468Y25659D01*
X722363Y25630D01*
X722256Y25607D01*
X722227Y25592D01*
X722196Y25584D01*
X722103Y25526D01*
X722007Y25475D01*
X721984Y25452D01*
X721956Y25435D01*
X721883Y25354D01*
X721805Y25278D01*
X721789Y25250D01*
X721767Y25226D01*
X721720Y25128D01*
X721666Y25033D01*
X721658Y25001D01*
X721644Y24972D01*
X721630Y24883D01*
X721601Y24758D01*
X721603Y24710D01*
X721597Y24668D01*
X721597Y10347D01*
X720425Y9175D01*
X708607Y9175D01*
G37*
%LPD*%
G36*
X593964Y163554D02*
X593964Y163554D01*
X594028Y163553D01*
X594103Y163574D01*
X594179Y163585D01*
X594238Y163611D01*
X594300Y163628D01*
X594366Y163669D01*
X594436Y163701D01*
X594485Y163743D01*
X594540Y163776D01*
X594592Y163834D01*
X594650Y163884D01*
X594686Y163938D01*
X594729Y163986D01*
X594762Y164055D01*
X594805Y164120D01*
X594824Y164182D01*
X594852Y164239D01*
X594863Y164309D01*
X594887Y164390D01*
X594888Y164475D01*
X594899Y164544D01*
X594899Y174800D01*
X594890Y174864D01*
X594891Y174928D01*
X594870Y175003D01*
X594859Y175079D01*
X594833Y175138D01*
X594816Y175200D01*
X594775Y175266D01*
X594743Y175336D01*
X594701Y175385D01*
X594668Y175440D01*
X594610Y175492D01*
X594560Y175550D01*
X594506Y175586D01*
X594458Y175629D01*
X594389Y175662D01*
X594324Y175705D01*
X594262Y175724D01*
X594205Y175752D01*
X594135Y175763D01*
X594054Y175787D01*
X593969Y175788D01*
X593900Y175799D01*
X50120Y175799D01*
X50025Y175786D01*
X49929Y175781D01*
X49886Y175766D01*
X49841Y175759D01*
X49754Y175720D01*
X49663Y175688D01*
X49628Y175663D01*
X49584Y175643D01*
X49487Y175560D01*
X49414Y175507D01*
X48944Y175037D01*
X8556Y175037D01*
X6707Y176886D01*
X6681Y176906D01*
X6660Y176930D01*
X6568Y176990D01*
X6481Y177056D01*
X6451Y177067D01*
X6424Y177085D01*
X6319Y177117D01*
X6217Y177155D01*
X6185Y177158D01*
X6154Y177167D01*
X6045Y177169D01*
X5936Y177177D01*
X5904Y177170D01*
X5872Y177171D01*
X5767Y177142D01*
X5660Y177119D01*
X5631Y177104D01*
X5600Y177096D01*
X5507Y177038D01*
X5411Y176987D01*
X5388Y176964D01*
X5360Y176947D01*
X5287Y176866D01*
X5209Y176790D01*
X5193Y176762D01*
X5171Y176738D01*
X5124Y176640D01*
X5070Y176545D01*
X5062Y176513D01*
X5048Y176484D01*
X5034Y176395D01*
X5005Y176270D01*
X5007Y176222D01*
X5001Y176180D01*
X5001Y166720D01*
X5005Y166688D01*
X5003Y166656D01*
X5025Y166549D01*
X5041Y166441D01*
X5054Y166412D01*
X5060Y166380D01*
X5112Y166284D01*
X5157Y166184D01*
X5178Y166160D01*
X5193Y166131D01*
X5269Y166053D01*
X5340Y165970D01*
X5367Y165952D01*
X5390Y165929D01*
X5485Y165875D01*
X5576Y165815D01*
X5607Y165806D01*
X5635Y165790D01*
X5741Y165765D01*
X5846Y165733D01*
X5878Y165732D01*
X5909Y165725D01*
X6019Y165731D01*
X6128Y165729D01*
X6159Y165738D01*
X6191Y165739D01*
X6294Y165775D01*
X6400Y165804D01*
X6427Y165821D01*
X6458Y165832D01*
X6531Y165885D01*
X6640Y165953D01*
X6672Y165989D01*
X6707Y166014D01*
X8556Y167863D01*
X48944Y167863D01*
X50563Y166244D01*
X50563Y164544D01*
X50572Y164480D01*
X50571Y164416D01*
X50592Y164341D01*
X50603Y164265D01*
X50629Y164206D01*
X50646Y164144D01*
X50687Y164078D01*
X50719Y164008D01*
X50761Y163959D01*
X50794Y163904D01*
X50852Y163852D01*
X50902Y163794D01*
X50956Y163758D01*
X51004Y163715D01*
X51073Y163682D01*
X51138Y163639D01*
X51200Y163620D01*
X51257Y163592D01*
X51327Y163581D01*
X51408Y163557D01*
X51493Y163556D01*
X51562Y163545D01*
X593900Y163545D01*
X593964Y163554D01*
G37*
G36*
X1311824Y131005D02*
X1311824Y131005D01*
X1311920Y131010D01*
X1311963Y131025D01*
X1312008Y131032D01*
X1312096Y131071D01*
X1312187Y131103D01*
X1312221Y131128D01*
X1312265Y131148D01*
X1312362Y131231D01*
X1312436Y131284D01*
X1319777Y138625D01*
X1319834Y138702D01*
X1319899Y138774D01*
X1319919Y138815D01*
X1319946Y138851D01*
X1319980Y138941D01*
X1320022Y139027D01*
X1320028Y139069D01*
X1320045Y139115D01*
X1320055Y139243D01*
X1320069Y139332D01*
X1320069Y152127D01*
X1320056Y152222D01*
X1320051Y152319D01*
X1320036Y152362D01*
X1320029Y152407D01*
X1319990Y152494D01*
X1319958Y152585D01*
X1319933Y152619D01*
X1319913Y152664D01*
X1319830Y152761D01*
X1319777Y152834D01*
X1318339Y154271D01*
X1318339Y175929D01*
X1319511Y177101D01*
X1320141Y177101D01*
X1320236Y177114D01*
X1320332Y177119D01*
X1320376Y177134D01*
X1320421Y177141D01*
X1320508Y177180D01*
X1320599Y177212D01*
X1320633Y177237D01*
X1320677Y177257D01*
X1320775Y177340D01*
X1320848Y177393D01*
X1322278Y178823D01*
X1322887Y179432D01*
X1323492Y180037D01*
X1323511Y180063D01*
X1323536Y180084D01*
X1323596Y180176D01*
X1323661Y180263D01*
X1323673Y180293D01*
X1323690Y180320D01*
X1323722Y180425D01*
X1323761Y180527D01*
X1323763Y180559D01*
X1323773Y180590D01*
X1323774Y180699D01*
X1323783Y180808D01*
X1323776Y180840D01*
X1323776Y180872D01*
X1323747Y180977D01*
X1323725Y181084D01*
X1323710Y181113D01*
X1323701Y181144D01*
X1323644Y181237D01*
X1323592Y181333D01*
X1323570Y181356D01*
X1323553Y181384D01*
X1323472Y181457D01*
X1323396Y181535D01*
X1323368Y181551D01*
X1323344Y181573D01*
X1323246Y181620D01*
X1323150Y181674D01*
X1323119Y181682D01*
X1323090Y181696D01*
X1323001Y181710D01*
X1322876Y181739D01*
X1322828Y181737D01*
X1322785Y181743D01*
X1280481Y181743D01*
X1280386Y181730D01*
X1280290Y181725D01*
X1280247Y181710D01*
X1280202Y181703D01*
X1280114Y181664D01*
X1280024Y181632D01*
X1279989Y181607D01*
X1279945Y181587D01*
X1279848Y181504D01*
X1279775Y181451D01*
X1277881Y179557D01*
X1277868Y179539D01*
X1277857Y179530D01*
X1277830Y179489D01*
X1277824Y179481D01*
X1277759Y179409D01*
X1277739Y179368D01*
X1277712Y179332D01*
X1277678Y179242D01*
X1277636Y179155D01*
X1277630Y179113D01*
X1277613Y179068D01*
X1277603Y178940D01*
X1277589Y178851D01*
X1277589Y162852D01*
X1277588Y162851D01*
X1277582Y162809D01*
X1277565Y162764D01*
X1277555Y162636D01*
X1277541Y162547D01*
X1277541Y155356D01*
X1277545Y155324D01*
X1277543Y155292D01*
X1277565Y155185D01*
X1277581Y155077D01*
X1277594Y155048D01*
X1277600Y155016D01*
X1277652Y154920D01*
X1277697Y154820D01*
X1277718Y154796D01*
X1277733Y154767D01*
X1277809Y154689D01*
X1277880Y154606D01*
X1277907Y154588D01*
X1277930Y154565D01*
X1278024Y154511D01*
X1278116Y154451D01*
X1278147Y154442D01*
X1278175Y154426D01*
X1278281Y154401D01*
X1278386Y154369D01*
X1278418Y154369D01*
X1278449Y154361D01*
X1278559Y154367D01*
X1278668Y154365D01*
X1278699Y154374D01*
X1278731Y154375D01*
X1278834Y154411D01*
X1278940Y154440D01*
X1278967Y154457D01*
X1278998Y154468D01*
X1279071Y154521D01*
X1279180Y154589D01*
X1279212Y154625D01*
X1279247Y154650D01*
X1279947Y155350D01*
X1280004Y155427D01*
X1280069Y155498D01*
X1280089Y155539D01*
X1280116Y155575D01*
X1280150Y155665D01*
X1280192Y155752D01*
X1280198Y155794D01*
X1280215Y155839D01*
X1280225Y155967D01*
X1280239Y156056D01*
X1280239Y175929D01*
X1281411Y177101D01*
X1289069Y177101D01*
X1290241Y175929D01*
X1290241Y154271D01*
X1289565Y153596D01*
X1289546Y153570D01*
X1289522Y153550D01*
X1289487Y153496D01*
X1289443Y153448D01*
X1289436Y153433D01*
X1282966Y146963D01*
X1282946Y146937D01*
X1282922Y146916D01*
X1282862Y146824D01*
X1282796Y146737D01*
X1282785Y146707D01*
X1282767Y146680D01*
X1282735Y146575D01*
X1282697Y146473D01*
X1282694Y146441D01*
X1282685Y146410D01*
X1282684Y146301D01*
X1282675Y146192D01*
X1282682Y146160D01*
X1282681Y146128D01*
X1282710Y146023D01*
X1282733Y145916D01*
X1282748Y145887D01*
X1282756Y145856D01*
X1282814Y145763D01*
X1282865Y145667D01*
X1282888Y145644D01*
X1282905Y145616D01*
X1282986Y145543D01*
X1283062Y145465D01*
X1283090Y145449D01*
X1283114Y145427D01*
X1283212Y145380D01*
X1283307Y145326D01*
X1283339Y145318D01*
X1283368Y145304D01*
X1283457Y145290D01*
X1283582Y145261D01*
X1283630Y145263D01*
X1283672Y145257D01*
X1290986Y145257D01*
X1291081Y145270D01*
X1291177Y145275D01*
X1291220Y145290D01*
X1291265Y145297D01*
X1291353Y145336D01*
X1291444Y145368D01*
X1291478Y145393D01*
X1291522Y145413D01*
X1291620Y145496D01*
X1291693Y145549D01*
X1294123Y147979D01*
X1294180Y148056D01*
X1294245Y148128D01*
X1294265Y148168D01*
X1294292Y148205D01*
X1294326Y148295D01*
X1294368Y148381D01*
X1294374Y148423D01*
X1294391Y148469D01*
X1294401Y148596D01*
X1294415Y148686D01*
X1294415Y152381D01*
X1294402Y152477D01*
X1294397Y152573D01*
X1294382Y152616D01*
X1294375Y152661D01*
X1294336Y152748D01*
X1294304Y152839D01*
X1294279Y152873D01*
X1294259Y152918D01*
X1294176Y153015D01*
X1294123Y153088D01*
X1292939Y154271D01*
X1292939Y175929D01*
X1294111Y177101D01*
X1301769Y177101D01*
X1302941Y175929D01*
X1302941Y154271D01*
X1301757Y153088D01*
X1301700Y153011D01*
X1301635Y152940D01*
X1301615Y152899D01*
X1301588Y152862D01*
X1301554Y152773D01*
X1301512Y152686D01*
X1301506Y152644D01*
X1301489Y152599D01*
X1301479Y152471D01*
X1301465Y152381D01*
X1301465Y145352D01*
X1294320Y138207D01*
X725996Y138207D01*
X723639Y140565D01*
X717145Y147059D01*
X714787Y149416D01*
X714787Y157969D01*
X714774Y158064D01*
X714769Y158161D01*
X714754Y158204D01*
X714747Y158249D01*
X714708Y158336D01*
X714676Y158427D01*
X714651Y158461D01*
X714631Y158506D01*
X714548Y158603D01*
X714495Y158676D01*
X713819Y159351D01*
X713819Y180010D01*
X713810Y180074D01*
X713811Y180138D01*
X713790Y180213D01*
X713779Y180289D01*
X713753Y180348D01*
X713736Y180410D01*
X713695Y180476D01*
X713663Y180546D01*
X713621Y180595D01*
X713588Y180650D01*
X713530Y180702D01*
X713480Y180760D01*
X713426Y180796D01*
X713378Y180839D01*
X713309Y180872D01*
X713244Y180915D01*
X713182Y180934D01*
X713125Y180962D01*
X713055Y180973D01*
X712974Y180997D01*
X712889Y180998D01*
X712820Y181009D01*
X712120Y181009D01*
X712056Y181000D01*
X711992Y181001D01*
X711917Y180980D01*
X711841Y180969D01*
X711782Y180943D01*
X711720Y180926D01*
X711654Y180885D01*
X711584Y180853D01*
X711535Y180811D01*
X711480Y180778D01*
X711428Y180720D01*
X711370Y180670D01*
X711334Y180616D01*
X711291Y180568D01*
X711258Y180499D01*
X711215Y180434D01*
X711196Y180372D01*
X711168Y180315D01*
X711157Y180245D01*
X711133Y180164D01*
X711132Y180079D01*
X711121Y180010D01*
X711121Y159351D01*
X709949Y158179D01*
X705601Y158179D01*
X705569Y158175D01*
X705537Y158177D01*
X705430Y158155D01*
X705322Y158139D01*
X705293Y158126D01*
X705261Y158120D01*
X705164Y158068D01*
X705065Y158023D01*
X705041Y158002D01*
X705012Y157987D01*
X704934Y157911D01*
X704851Y157840D01*
X704833Y157813D01*
X704810Y157790D01*
X704756Y157695D01*
X704696Y157604D01*
X704687Y157573D01*
X704671Y157545D01*
X704646Y157438D01*
X704614Y157334D01*
X704613Y157302D01*
X704606Y157271D01*
X704612Y157161D01*
X704610Y157052D01*
X704619Y157021D01*
X704620Y156989D01*
X704656Y156886D01*
X704685Y156780D01*
X704702Y156753D01*
X704713Y156722D01*
X704766Y156649D01*
X704833Y156540D01*
X704870Y156508D01*
X704895Y156473D01*
X730084Y131284D01*
X730160Y131227D01*
X730232Y131162D01*
X730273Y131142D01*
X730309Y131115D01*
X730399Y131081D01*
X730486Y131039D01*
X730528Y131033D01*
X730573Y131016D01*
X730701Y131006D01*
X730790Y130992D01*
X1311729Y130992D01*
X1311824Y131005D01*
G37*
%LPC*%
G36*
X1368607Y9175D02*
X1368607Y9175D01*
X1367435Y10347D01*
X1367435Y27245D01*
X1368607Y28417D01*
X1371332Y28417D01*
X1371396Y28426D01*
X1371460Y28425D01*
X1371535Y28446D01*
X1371611Y28457D01*
X1371670Y28483D01*
X1371732Y28500D01*
X1371798Y28541D01*
X1371868Y28573D01*
X1371917Y28615D01*
X1371972Y28648D01*
X1372024Y28706D01*
X1372082Y28756D01*
X1372118Y28810D01*
X1372161Y28858D01*
X1372194Y28927D01*
X1372237Y28992D01*
X1372256Y29054D01*
X1372284Y29111D01*
X1372295Y29181D01*
X1372319Y29262D01*
X1372320Y29347D01*
X1372331Y29416D01*
X1372331Y33180D01*
X1372322Y33244D01*
X1372323Y33308D01*
X1372302Y33383D01*
X1372291Y33459D01*
X1372265Y33518D01*
X1372248Y33580D01*
X1372207Y33646D01*
X1372175Y33716D01*
X1372133Y33765D01*
X1372100Y33820D01*
X1372042Y33872D01*
X1371992Y33930D01*
X1371938Y33966D01*
X1371890Y34009D01*
X1371821Y34042D01*
X1371756Y34085D01*
X1371694Y34104D01*
X1371637Y34132D01*
X1371567Y34143D01*
X1371486Y34167D01*
X1371401Y34168D01*
X1371332Y34179D01*
X1370535Y34179D01*
X1369363Y35351D01*
X1369363Y51009D01*
X1370535Y52181D01*
X1377801Y52181D01*
X1377833Y52185D01*
X1377865Y52183D01*
X1377972Y52205D01*
X1378080Y52221D01*
X1378109Y52234D01*
X1378141Y52240D01*
X1378238Y52292D01*
X1378337Y52337D01*
X1378361Y52358D01*
X1378390Y52373D01*
X1378468Y52449D01*
X1378551Y52520D01*
X1378569Y52547D01*
X1378592Y52570D01*
X1378646Y52665D01*
X1378706Y52756D01*
X1378715Y52787D01*
X1378731Y52815D01*
X1378756Y52922D01*
X1378788Y53026D01*
X1378788Y53058D01*
X1378796Y53090D01*
X1378790Y53199D01*
X1378792Y53308D01*
X1378783Y53339D01*
X1378781Y53371D01*
X1378746Y53474D01*
X1378717Y53580D01*
X1378700Y53607D01*
X1378689Y53638D01*
X1378636Y53711D01*
X1378568Y53820D01*
X1378532Y53852D01*
X1378507Y53887D01*
X1378299Y54095D01*
X1378222Y54152D01*
X1378151Y54217D01*
X1378110Y54237D01*
X1378074Y54264D01*
X1377984Y54298D01*
X1377897Y54340D01*
X1377855Y54346D01*
X1377810Y54363D01*
X1377682Y54373D01*
X1377593Y54387D01*
X1293730Y54387D01*
X1281207Y66910D01*
X1281207Y76689D01*
X1281194Y76784D01*
X1281189Y76881D01*
X1281174Y76924D01*
X1281167Y76969D01*
X1281128Y77056D01*
X1281096Y77147D01*
X1281071Y77181D01*
X1281051Y77226D01*
X1280968Y77323D01*
X1280915Y77396D01*
X1280239Y78071D01*
X1280239Y99729D01*
X1281411Y100901D01*
X1289069Y100901D01*
X1290241Y99729D01*
X1290241Y78071D01*
X1289565Y77396D01*
X1289508Y77319D01*
X1289443Y77248D01*
X1289423Y77207D01*
X1289396Y77170D01*
X1289362Y77080D01*
X1289320Y76994D01*
X1289314Y76952D01*
X1289297Y76906D01*
X1289287Y76779D01*
X1289273Y76689D01*
X1289273Y70664D01*
X1289286Y70569D01*
X1289291Y70473D01*
X1289306Y70430D01*
X1289313Y70385D01*
X1289352Y70298D01*
X1289384Y70207D01*
X1289409Y70172D01*
X1289429Y70128D01*
X1289512Y70031D01*
X1289565Y69958D01*
X1296778Y62745D01*
X1296855Y62688D01*
X1296926Y62623D01*
X1296967Y62603D01*
X1297003Y62576D01*
X1297093Y62542D01*
X1297180Y62500D01*
X1297222Y62494D01*
X1297267Y62477D01*
X1297395Y62467D01*
X1297484Y62453D01*
X1300524Y62453D01*
X1300556Y62457D01*
X1300588Y62455D01*
X1300695Y62477D01*
X1300803Y62493D01*
X1300832Y62506D01*
X1300864Y62512D01*
X1300960Y62564D01*
X1301060Y62609D01*
X1301084Y62630D01*
X1301113Y62645D01*
X1301191Y62721D01*
X1301274Y62792D01*
X1301292Y62819D01*
X1301315Y62842D01*
X1301369Y62937D01*
X1301429Y63028D01*
X1301438Y63059D01*
X1301454Y63087D01*
X1301479Y63194D01*
X1301511Y63298D01*
X1301511Y63330D01*
X1301519Y63361D01*
X1301513Y63471D01*
X1301515Y63580D01*
X1301506Y63611D01*
X1301505Y63643D01*
X1301469Y63746D01*
X1301440Y63852D01*
X1301423Y63879D01*
X1301412Y63910D01*
X1301359Y63983D01*
X1301291Y64092D01*
X1301255Y64124D01*
X1301230Y64159D01*
X1293907Y71482D01*
X1293907Y76689D01*
X1293894Y76784D01*
X1293889Y76881D01*
X1293874Y76924D01*
X1293867Y76969D01*
X1293828Y77056D01*
X1293796Y77147D01*
X1293771Y77181D01*
X1293751Y77226D01*
X1293668Y77323D01*
X1293615Y77396D01*
X1292939Y78071D01*
X1292939Y99729D01*
X1294111Y100901D01*
X1301769Y100901D01*
X1302941Y99729D01*
X1302941Y78071D01*
X1302265Y77396D01*
X1302208Y77319D01*
X1302143Y77248D01*
X1302123Y77207D01*
X1302096Y77170D01*
X1302062Y77080D01*
X1302020Y76994D01*
X1302014Y76952D01*
X1301997Y76906D01*
X1301987Y76779D01*
X1301973Y76689D01*
X1301973Y75236D01*
X1301986Y75141D01*
X1301991Y75045D01*
X1302006Y75002D01*
X1302013Y74957D01*
X1302052Y74870D01*
X1302084Y74779D01*
X1302109Y74744D01*
X1302129Y74700D01*
X1302212Y74603D01*
X1302265Y74530D01*
X1307954Y68841D01*
X1308031Y68784D01*
X1308102Y68719D01*
X1308143Y68699D01*
X1308179Y68672D01*
X1308269Y68638D01*
X1308356Y68596D01*
X1308398Y68590D01*
X1308443Y68573D01*
X1308571Y68563D01*
X1308660Y68549D01*
X1509414Y68549D01*
X1522953Y55010D01*
X1522953Y53720D01*
X1522962Y53656D01*
X1522961Y53592D01*
X1522982Y53517D01*
X1522993Y53441D01*
X1523019Y53382D01*
X1523036Y53320D01*
X1523077Y53254D01*
X1523109Y53184D01*
X1523151Y53135D01*
X1523184Y53080D01*
X1523242Y53028D01*
X1523292Y52970D01*
X1523346Y52934D01*
X1523394Y52891D01*
X1523463Y52858D01*
X1523528Y52815D01*
X1523590Y52796D01*
X1523647Y52768D01*
X1523717Y52757D01*
X1523798Y52733D01*
X1523883Y52732D01*
X1523952Y52721D01*
X1527398Y52721D01*
X1527398Y44180D01*
X1527407Y44116D01*
X1527406Y44052D01*
X1527427Y43978D01*
X1527438Y43901D01*
X1527464Y43842D01*
X1527481Y43780D01*
X1527522Y43714D01*
X1527554Y43644D01*
X1527596Y43595D01*
X1527629Y43540D01*
X1527687Y43489D01*
X1527737Y43430D01*
X1527791Y43394D01*
X1527839Y43351D01*
X1527908Y43318D01*
X1527973Y43275D01*
X1528035Y43256D01*
X1528092Y43228D01*
X1528162Y43218D01*
X1528243Y43193D01*
X1528328Y43192D01*
X1528397Y43181D01*
X1529398Y43181D01*
X1529398Y43179D01*
X1528397Y43179D01*
X1528333Y43170D01*
X1528269Y43171D01*
X1528194Y43150D01*
X1528118Y43139D01*
X1528059Y43113D01*
X1527997Y43096D01*
X1527931Y43055D01*
X1527861Y43023D01*
X1527812Y42981D01*
X1527757Y42948D01*
X1527705Y42890D01*
X1527647Y42840D01*
X1527611Y42786D01*
X1527568Y42738D01*
X1527535Y42669D01*
X1527492Y42604D01*
X1527473Y42542D01*
X1527445Y42484D01*
X1527435Y42415D01*
X1527410Y42334D01*
X1527409Y42249D01*
X1527398Y42180D01*
X1527398Y33639D01*
X1523952Y33639D01*
X1523888Y33630D01*
X1523824Y33631D01*
X1523749Y33610D01*
X1523673Y33599D01*
X1523614Y33573D01*
X1523552Y33556D01*
X1523486Y33515D01*
X1523416Y33483D01*
X1523367Y33441D01*
X1523312Y33408D01*
X1523260Y33350D01*
X1523202Y33300D01*
X1523166Y33246D01*
X1523123Y33198D01*
X1523090Y33129D01*
X1523047Y33064D01*
X1523028Y33002D01*
X1523000Y32945D01*
X1522989Y32875D01*
X1522965Y32794D01*
X1522964Y32709D01*
X1522953Y32640D01*
X1522953Y30024D01*
X1522966Y29929D01*
X1522971Y29833D01*
X1522986Y29790D01*
X1522993Y29745D01*
X1523032Y29658D01*
X1523064Y29567D01*
X1523089Y29532D01*
X1523109Y29488D01*
X1523192Y29391D01*
X1523222Y29350D01*
X1523227Y29342D01*
X1523229Y29340D01*
X1523245Y29318D01*
X1523854Y28709D01*
X1523931Y28652D01*
X1524002Y28587D01*
X1524043Y28567D01*
X1524079Y28540D01*
X1524169Y28506D01*
X1524256Y28464D01*
X1524298Y28458D01*
X1524343Y28441D01*
X1524471Y28431D01*
X1524560Y28417D01*
X1534965Y28417D01*
X1536137Y27245D01*
X1536137Y10347D01*
X1534965Y9175D01*
X1523147Y9175D01*
X1521975Y10347D01*
X1521975Y18768D01*
X1521962Y18863D01*
X1521957Y18959D01*
X1521942Y19002D01*
X1521935Y19047D01*
X1521896Y19134D01*
X1521864Y19225D01*
X1521839Y19260D01*
X1521819Y19304D01*
X1521736Y19401D01*
X1521683Y19474D01*
X1515303Y25854D01*
X1515277Y25874D01*
X1515256Y25898D01*
X1515164Y25958D01*
X1515077Y26024D01*
X1515047Y26035D01*
X1515020Y26053D01*
X1514915Y26085D01*
X1514813Y26123D01*
X1514781Y26126D01*
X1514750Y26135D01*
X1514641Y26136D01*
X1514532Y26145D01*
X1514500Y26138D01*
X1514468Y26139D01*
X1514363Y26110D01*
X1514256Y26087D01*
X1514227Y26072D01*
X1514196Y26064D01*
X1514103Y26006D01*
X1514007Y25955D01*
X1513984Y25932D01*
X1513956Y25915D01*
X1513883Y25834D01*
X1513805Y25758D01*
X1513789Y25730D01*
X1513767Y25706D01*
X1513720Y25608D01*
X1513666Y25513D01*
X1513658Y25481D01*
X1513644Y25452D01*
X1513630Y25363D01*
X1513601Y25238D01*
X1513603Y25190D01*
X1513597Y25148D01*
X1513597Y10347D01*
X1512425Y9175D01*
X1500607Y9175D01*
X1499435Y10347D01*
X1499435Y27245D01*
X1500607Y28417D01*
X1503412Y28417D01*
X1503476Y28426D01*
X1503540Y28425D01*
X1503615Y28446D01*
X1503691Y28457D01*
X1503750Y28483D01*
X1503812Y28500D01*
X1503878Y28541D01*
X1503948Y28573D01*
X1503997Y28615D01*
X1504052Y28648D01*
X1504104Y28706D01*
X1504162Y28756D01*
X1504198Y28810D01*
X1504241Y28858D01*
X1504274Y28927D01*
X1504317Y28992D01*
X1504336Y29054D01*
X1504364Y29111D01*
X1504375Y29181D01*
X1504399Y29262D01*
X1504400Y29347D01*
X1504411Y29416D01*
X1504411Y33180D01*
X1504402Y33244D01*
X1504403Y33308D01*
X1504382Y33383D01*
X1504371Y33459D01*
X1504345Y33518D01*
X1504328Y33580D01*
X1504287Y33646D01*
X1504255Y33716D01*
X1504213Y33765D01*
X1504180Y33820D01*
X1504122Y33872D01*
X1504072Y33930D01*
X1504018Y33966D01*
X1503970Y34009D01*
X1503901Y34042D01*
X1503836Y34085D01*
X1503774Y34104D01*
X1503717Y34132D01*
X1503647Y34143D01*
X1503566Y34167D01*
X1503481Y34168D01*
X1503412Y34179D01*
X1502615Y34179D01*
X1501443Y35351D01*
X1501443Y51009D01*
X1502615Y52181D01*
X1511964Y52181D01*
X1511996Y52185D01*
X1512028Y52183D01*
X1512135Y52205D01*
X1512243Y52221D01*
X1512272Y52234D01*
X1512304Y52240D01*
X1512400Y52292D01*
X1512500Y52337D01*
X1512524Y52358D01*
X1512553Y52373D01*
X1512631Y52449D01*
X1512714Y52520D01*
X1512732Y52547D01*
X1512755Y52570D01*
X1512809Y52665D01*
X1512869Y52756D01*
X1512878Y52787D01*
X1512894Y52815D01*
X1512919Y52922D01*
X1512951Y53026D01*
X1512951Y53058D01*
X1512959Y53089D01*
X1512953Y53199D01*
X1512955Y53308D01*
X1512946Y53339D01*
X1512945Y53371D01*
X1512909Y53474D01*
X1512880Y53580D01*
X1512863Y53607D01*
X1512852Y53638D01*
X1512799Y53711D01*
X1512731Y53820D01*
X1512695Y53852D01*
X1512670Y53887D01*
X1506366Y60191D01*
X1506289Y60248D01*
X1506218Y60313D01*
X1506177Y60333D01*
X1506141Y60360D01*
X1506051Y60394D01*
X1505964Y60436D01*
X1505922Y60442D01*
X1505877Y60459D01*
X1505749Y60469D01*
X1505660Y60483D01*
X1385729Y60483D01*
X1385697Y60479D01*
X1385665Y60481D01*
X1385558Y60459D01*
X1385450Y60443D01*
X1385421Y60430D01*
X1385389Y60424D01*
X1385293Y60372D01*
X1385193Y60327D01*
X1385169Y60306D01*
X1385140Y60291D01*
X1385062Y60215D01*
X1384979Y60144D01*
X1384961Y60117D01*
X1384938Y60094D01*
X1384884Y59999D01*
X1384824Y59908D01*
X1384815Y59877D01*
X1384799Y59849D01*
X1384774Y59743D01*
X1384742Y59638D01*
X1384741Y59606D01*
X1384734Y59575D01*
X1384740Y59465D01*
X1384738Y59356D01*
X1384747Y59325D01*
X1384748Y59293D01*
X1384784Y59190D01*
X1384813Y59084D01*
X1384830Y59057D01*
X1384841Y59026D01*
X1384894Y58953D01*
X1384962Y58844D01*
X1384998Y58812D01*
X1385023Y58777D01*
X1388218Y55582D01*
X1390862Y52938D01*
X1390931Y52887D01*
X1390993Y52828D01*
X1391043Y52802D01*
X1391088Y52769D01*
X1391168Y52738D01*
X1391244Y52699D01*
X1391299Y52689D01*
X1391352Y52669D01*
X1391437Y52662D01*
X1391521Y52646D01*
X1391573Y52652D01*
X1391633Y52647D01*
X1391742Y52670D01*
X1391827Y52679D01*
X1391982Y52721D01*
X1395318Y52721D01*
X1395318Y44180D01*
X1395327Y44116D01*
X1395326Y44052D01*
X1395347Y43978D01*
X1395358Y43901D01*
X1395384Y43842D01*
X1395401Y43780D01*
X1395442Y43714D01*
X1395474Y43644D01*
X1395516Y43595D01*
X1395549Y43540D01*
X1395607Y43489D01*
X1395657Y43430D01*
X1395711Y43394D01*
X1395759Y43351D01*
X1395828Y43318D01*
X1395893Y43275D01*
X1395955Y43256D01*
X1396012Y43228D01*
X1396082Y43218D01*
X1396163Y43193D01*
X1396248Y43192D01*
X1396317Y43181D01*
X1397318Y43181D01*
X1397318Y43179D01*
X1396317Y43179D01*
X1396253Y43170D01*
X1396189Y43171D01*
X1396114Y43150D01*
X1396038Y43139D01*
X1395979Y43113D01*
X1395917Y43096D01*
X1395851Y43055D01*
X1395781Y43023D01*
X1395732Y42981D01*
X1395677Y42948D01*
X1395625Y42890D01*
X1395567Y42840D01*
X1395531Y42786D01*
X1395488Y42738D01*
X1395455Y42669D01*
X1395412Y42604D01*
X1395393Y42542D01*
X1395365Y42484D01*
X1395355Y42415D01*
X1395330Y42334D01*
X1395329Y42249D01*
X1395318Y42180D01*
X1395318Y33639D01*
X1391872Y33639D01*
X1391808Y33630D01*
X1391744Y33631D01*
X1391669Y33610D01*
X1391593Y33599D01*
X1391534Y33573D01*
X1391472Y33556D01*
X1391406Y33515D01*
X1391336Y33483D01*
X1391287Y33441D01*
X1391232Y33408D01*
X1391180Y33350D01*
X1391122Y33300D01*
X1391086Y33246D01*
X1391043Y33198D01*
X1391010Y33129D01*
X1390967Y33064D01*
X1390948Y33002D01*
X1390920Y32945D01*
X1390909Y32875D01*
X1390885Y32794D01*
X1390884Y32709D01*
X1390873Y32640D01*
X1390873Y31096D01*
X1390886Y31001D01*
X1390891Y30905D01*
X1390906Y30862D01*
X1390913Y30817D01*
X1390952Y30730D01*
X1390984Y30639D01*
X1391009Y30604D01*
X1391029Y30560D01*
X1391112Y30463D01*
X1391165Y30390D01*
X1392846Y28709D01*
X1392923Y28652D01*
X1392994Y28587D01*
X1393035Y28567D01*
X1393071Y28540D01*
X1393161Y28506D01*
X1393248Y28464D01*
X1393290Y28458D01*
X1393335Y28441D01*
X1393463Y28431D01*
X1393552Y28417D01*
X1402965Y28417D01*
X1404137Y27245D01*
X1404137Y10347D01*
X1402965Y9175D01*
X1391147Y9175D01*
X1389975Y10347D01*
X1389975Y19760D01*
X1389962Y19855D01*
X1389957Y19951D01*
X1389942Y19994D01*
X1389935Y20039D01*
X1389896Y20126D01*
X1389864Y20217D01*
X1389839Y20252D01*
X1389819Y20296D01*
X1389736Y20393D01*
X1389683Y20466D01*
X1385462Y24686D01*
X1385462Y24687D01*
X1383303Y26846D01*
X1383277Y26866D01*
X1383256Y26890D01*
X1383164Y26950D01*
X1383077Y27016D01*
X1383047Y27027D01*
X1383020Y27045D01*
X1382915Y27077D01*
X1382813Y27115D01*
X1382781Y27118D01*
X1382750Y27127D01*
X1382641Y27128D01*
X1382532Y27137D01*
X1382500Y27130D01*
X1382468Y27131D01*
X1382363Y27102D01*
X1382256Y27079D01*
X1382227Y27064D01*
X1382196Y27056D01*
X1382103Y26998D01*
X1382007Y26947D01*
X1381984Y26924D01*
X1381956Y26907D01*
X1381883Y26826D01*
X1381805Y26750D01*
X1381789Y26722D01*
X1381767Y26698D01*
X1381720Y26600D01*
X1381666Y26505D01*
X1381658Y26473D01*
X1381644Y26444D01*
X1381630Y26355D01*
X1381601Y26230D01*
X1381603Y26182D01*
X1381597Y26140D01*
X1381597Y10347D01*
X1380425Y9175D01*
X1368607Y9175D01*
G37*
%LPD*%
G36*
X1303618Y116019D02*
X1303618Y116019D01*
X1303714Y116024D01*
X1303757Y116039D01*
X1303802Y116046D01*
X1303889Y116085D01*
X1303980Y116117D01*
X1304015Y116142D01*
X1304059Y116162D01*
X1304156Y116245D01*
X1304229Y116298D01*
X1310675Y122744D01*
X1310695Y122770D01*
X1310719Y122791D01*
X1310779Y122883D01*
X1310845Y122970D01*
X1310856Y123000D01*
X1310874Y123027D01*
X1310906Y123132D01*
X1310944Y123234D01*
X1310947Y123266D01*
X1310956Y123297D01*
X1310958Y123406D01*
X1310966Y123515D01*
X1310959Y123547D01*
X1310960Y123579D01*
X1310931Y123684D01*
X1310908Y123791D01*
X1310893Y123820D01*
X1310885Y123851D01*
X1310827Y123944D01*
X1310776Y124040D01*
X1310753Y124063D01*
X1310737Y124091D01*
X1310655Y124164D01*
X1310579Y124242D01*
X1310551Y124258D01*
X1310527Y124280D01*
X1310429Y124327D01*
X1310334Y124381D01*
X1310302Y124389D01*
X1310273Y124403D01*
X1310184Y124417D01*
X1310059Y124446D01*
X1310011Y124444D01*
X1309969Y124450D01*
X727667Y124450D01*
X698651Y153466D01*
X698625Y153486D01*
X698604Y153510D01*
X698512Y153570D01*
X698425Y153636D01*
X698395Y153647D01*
X698368Y153665D01*
X698263Y153697D01*
X698161Y153735D01*
X698129Y153738D01*
X698098Y153747D01*
X697989Y153749D01*
X697880Y153757D01*
X697848Y153750D01*
X697816Y153751D01*
X697711Y153722D01*
X697604Y153699D01*
X697575Y153684D01*
X697544Y153676D01*
X697451Y153618D01*
X697355Y153567D01*
X697332Y153544D01*
X697304Y153528D01*
X697231Y153446D01*
X697153Y153370D01*
X697137Y153342D01*
X697115Y153318D01*
X697068Y153220D01*
X697014Y153125D01*
X697006Y153093D01*
X696992Y153064D01*
X696978Y152975D01*
X696949Y152850D01*
X696951Y152802D01*
X696945Y152760D01*
X696945Y145833D01*
X694587Y143476D01*
X693791Y142679D01*
X693752Y142628D01*
X693706Y142583D01*
X693668Y142515D01*
X693621Y142454D01*
X693599Y142393D01*
X693567Y142337D01*
X693549Y142262D01*
X693522Y142190D01*
X693517Y142126D01*
X693502Y142063D01*
X693506Y141986D01*
X693500Y141908D01*
X693513Y141846D01*
X693517Y141781D01*
X693542Y141708D01*
X693558Y141632D01*
X693588Y141576D01*
X693609Y141515D01*
X693650Y141458D01*
X693690Y141383D01*
X693749Y141323D01*
X693791Y141266D01*
X718758Y116298D01*
X718835Y116241D01*
X718907Y116176D01*
X718947Y116156D01*
X718984Y116129D01*
X719074Y116095D01*
X719160Y116053D01*
X719202Y116047D01*
X719248Y116030D01*
X719375Y116020D01*
X719465Y116006D01*
X1303523Y116006D01*
X1303618Y116019D01*
G37*
%LPC*%
G36*
X335147Y9175D02*
X335147Y9175D01*
X333975Y10347D01*
X333975Y27245D01*
X335147Y28417D01*
X346965Y28417D01*
X348137Y27245D01*
X348137Y23828D01*
X348146Y23764D01*
X348145Y23700D01*
X348166Y23625D01*
X348177Y23549D01*
X348203Y23490D01*
X348220Y23428D01*
X348261Y23362D01*
X348293Y23292D01*
X348335Y23243D01*
X348368Y23188D01*
X348426Y23136D01*
X348476Y23078D01*
X348530Y23042D01*
X348578Y22999D01*
X348647Y22966D01*
X348712Y22923D01*
X348774Y22904D01*
X348831Y22876D01*
X348901Y22865D01*
X348982Y22841D01*
X349067Y22840D01*
X349136Y22829D01*
X405840Y22829D01*
X405935Y22842D01*
X406031Y22847D01*
X406074Y22862D01*
X406119Y22869D01*
X406206Y22908D01*
X406297Y22940D01*
X406332Y22965D01*
X406376Y22985D01*
X406473Y23068D01*
X406546Y23121D01*
X453383Y69958D01*
X456038Y72613D01*
X615872Y72613D01*
X615904Y72617D01*
X615937Y72615D01*
X616043Y72637D01*
X616152Y72653D01*
X616181Y72666D01*
X616213Y72672D01*
X616309Y72724D01*
X616409Y72769D01*
X616433Y72790D01*
X616462Y72805D01*
X616540Y72881D01*
X616623Y72952D01*
X616641Y72979D01*
X616664Y73002D01*
X616717Y73097D01*
X616777Y73188D01*
X616787Y73219D01*
X616803Y73247D01*
X616828Y73353D01*
X616860Y73458D01*
X616860Y73490D01*
X616868Y73521D01*
X616862Y73631D01*
X616863Y73740D01*
X616855Y73771D01*
X616853Y73803D01*
X616817Y73906D01*
X616788Y74012D01*
X616771Y74039D01*
X616761Y74070D01*
X616707Y74143D01*
X616640Y74252D01*
X616604Y74284D01*
X616579Y74319D01*
X614384Y76513D01*
X614384Y80967D01*
X617533Y84116D01*
X619019Y84116D01*
X619114Y84129D01*
X619210Y84134D01*
X619253Y84149D01*
X619298Y84156D01*
X619385Y84195D01*
X619476Y84227D01*
X619511Y84252D01*
X619555Y84272D01*
X619652Y84355D01*
X619725Y84408D01*
X624627Y89310D01*
X624684Y89387D01*
X624749Y89458D01*
X624769Y89499D01*
X624796Y89535D01*
X624830Y89625D01*
X624872Y89712D01*
X624878Y89754D01*
X624895Y89799D01*
X624905Y89927D01*
X624919Y90016D01*
X624919Y104809D01*
X626091Y105981D01*
X633749Y105981D01*
X634921Y104809D01*
X634921Y83151D01*
X633749Y81979D01*
X629116Y81979D01*
X629021Y81966D01*
X628925Y81961D01*
X628882Y81946D01*
X628837Y81939D01*
X628750Y81900D01*
X628659Y81868D01*
X628624Y81843D01*
X628580Y81823D01*
X628483Y81740D01*
X628410Y81687D01*
X625428Y78705D01*
X625371Y78628D01*
X625306Y78557D01*
X625286Y78516D01*
X625259Y78480D01*
X625225Y78390D01*
X625183Y78303D01*
X625177Y78261D01*
X625160Y78216D01*
X625152Y78113D01*
X625148Y78100D01*
X625147Y78073D01*
X625136Y77999D01*
X625136Y76513D01*
X622941Y74319D01*
X622922Y74293D01*
X622897Y74272D01*
X622837Y74180D01*
X622772Y74093D01*
X622760Y74063D01*
X622743Y74036D01*
X622711Y73931D01*
X622672Y73829D01*
X622670Y73797D01*
X622660Y73766D01*
X622659Y73657D01*
X622650Y73548D01*
X622657Y73516D01*
X622657Y73484D01*
X622686Y73379D01*
X622708Y73272D01*
X622723Y73243D01*
X622732Y73212D01*
X622789Y73119D01*
X622840Y73023D01*
X622863Y73000D01*
X622880Y72972D01*
X622961Y72899D01*
X623037Y72821D01*
X623065Y72805D01*
X623089Y72783D01*
X623187Y72736D01*
X623283Y72682D01*
X623314Y72674D01*
X623343Y72660D01*
X623432Y72646D01*
X623557Y72617D01*
X623606Y72619D01*
X623648Y72613D01*
X635456Y72613D01*
X635551Y72626D01*
X635647Y72631D01*
X635690Y72646D01*
X635735Y72653D01*
X635822Y72692D01*
X635913Y72724D01*
X635948Y72749D01*
X635992Y72769D01*
X636089Y72852D01*
X636162Y72905D01*
X638295Y75038D01*
X638352Y75114D01*
X638417Y75186D01*
X638437Y75227D01*
X638464Y75263D01*
X638498Y75353D01*
X638540Y75440D01*
X638546Y75482D01*
X638563Y75527D01*
X638573Y75655D01*
X638587Y75744D01*
X638587Y81769D01*
X638574Y81864D01*
X638569Y81961D01*
X638554Y82004D01*
X638547Y82049D01*
X638508Y82136D01*
X638476Y82227D01*
X638451Y82261D01*
X638431Y82306D01*
X638348Y82403D01*
X638295Y82476D01*
X637619Y83151D01*
X637619Y104809D01*
X638791Y105981D01*
X646449Y105981D01*
X647621Y104809D01*
X647621Y83151D01*
X646945Y82476D01*
X646888Y82399D01*
X646823Y82328D01*
X646803Y82287D01*
X646776Y82250D01*
X646742Y82160D01*
X646700Y82074D01*
X646694Y82032D01*
X646677Y81986D01*
X646667Y81859D01*
X646653Y81769D01*
X646653Y71990D01*
X643998Y69335D01*
X641865Y67202D01*
X639210Y64547D01*
X459792Y64547D01*
X459697Y64534D01*
X459601Y64529D01*
X459558Y64514D01*
X459513Y64507D01*
X459426Y64468D01*
X459335Y64436D01*
X459300Y64411D01*
X459256Y64391D01*
X459159Y64308D01*
X459086Y64255D01*
X448718Y53887D01*
X448698Y53861D01*
X448674Y53840D01*
X448614Y53748D01*
X448548Y53661D01*
X448537Y53631D01*
X448519Y53604D01*
X448487Y53499D01*
X448449Y53397D01*
X448446Y53365D01*
X448437Y53334D01*
X448436Y53225D01*
X448427Y53116D01*
X448434Y53084D01*
X448433Y53052D01*
X448462Y52947D01*
X448485Y52840D01*
X448500Y52811D01*
X448508Y52780D01*
X448566Y52687D01*
X448617Y52591D01*
X448640Y52568D01*
X448657Y52540D01*
X448738Y52467D01*
X448814Y52389D01*
X448842Y52373D01*
X448866Y52351D01*
X448964Y52304D01*
X449059Y52250D01*
X449091Y52242D01*
X449120Y52228D01*
X449209Y52214D01*
X449334Y52185D01*
X449382Y52187D01*
X449424Y52181D01*
X457633Y52181D01*
X458805Y51009D01*
X458805Y35351D01*
X457633Y34179D01*
X456836Y34179D01*
X456772Y34170D01*
X456708Y34171D01*
X456633Y34150D01*
X456557Y34139D01*
X456498Y34113D01*
X456436Y34096D01*
X456370Y34055D01*
X456300Y34023D01*
X456251Y33981D01*
X456196Y33948D01*
X456144Y33890D01*
X456086Y33840D01*
X456050Y33786D01*
X456007Y33738D01*
X455974Y33669D01*
X455931Y33604D01*
X455912Y33542D01*
X455884Y33485D01*
X455873Y33415D01*
X455849Y33334D01*
X455848Y33249D01*
X455837Y33180D01*
X455837Y29416D01*
X455846Y29352D01*
X455845Y29288D01*
X455857Y29245D01*
X455858Y29225D01*
X455868Y29195D01*
X455877Y29137D01*
X455903Y29078D01*
X455920Y29016D01*
X455943Y28979D01*
X455950Y28958D01*
X455968Y28934D01*
X455993Y28880D01*
X456035Y28831D01*
X456068Y28776D01*
X456112Y28737D01*
X456132Y28709D01*
X457597Y27245D01*
X457597Y10347D01*
X456425Y9175D01*
X444607Y9175D01*
X443435Y10347D01*
X443435Y27245D01*
X444607Y28417D01*
X446772Y28417D01*
X446836Y28426D01*
X446900Y28425D01*
X446975Y28446D01*
X447051Y28457D01*
X447110Y28483D01*
X447172Y28500D01*
X447238Y28541D01*
X447308Y28573D01*
X447357Y28615D01*
X447412Y28648D01*
X447464Y28706D01*
X447522Y28756D01*
X447558Y28810D01*
X447601Y28858D01*
X447634Y28927D01*
X447677Y28992D01*
X447696Y29054D01*
X447724Y29111D01*
X447735Y29181D01*
X447759Y29262D01*
X447760Y29347D01*
X447771Y29416D01*
X447771Y33180D01*
X447762Y33244D01*
X447763Y33308D01*
X447742Y33383D01*
X447731Y33459D01*
X447705Y33518D01*
X447688Y33580D01*
X447647Y33646D01*
X447615Y33716D01*
X447573Y33765D01*
X447540Y33820D01*
X447482Y33872D01*
X447432Y33930D01*
X447378Y33966D01*
X447330Y34009D01*
X447261Y34042D01*
X447196Y34085D01*
X447134Y34104D01*
X447077Y34132D01*
X447007Y34143D01*
X446926Y34167D01*
X446841Y34168D01*
X446772Y34179D01*
X445975Y34179D01*
X444803Y35351D01*
X444803Y47560D01*
X444799Y47592D01*
X444801Y47624D01*
X444779Y47731D01*
X444763Y47839D01*
X444750Y47868D01*
X444744Y47900D01*
X444692Y47996D01*
X444647Y48096D01*
X444626Y48120D01*
X444611Y48149D01*
X444535Y48227D01*
X444464Y48310D01*
X444437Y48328D01*
X444414Y48351D01*
X444319Y48405D01*
X444228Y48465D01*
X444197Y48474D01*
X444169Y48490D01*
X444062Y48515D01*
X443958Y48547D01*
X443926Y48547D01*
X443895Y48555D01*
X443785Y48549D01*
X443676Y48551D01*
X443645Y48542D01*
X443613Y48541D01*
X443510Y48505D01*
X443404Y48476D01*
X443377Y48459D01*
X443346Y48448D01*
X443273Y48395D01*
X443164Y48327D01*
X443132Y48291D01*
X443097Y48266D01*
X412249Y17418D01*
X409594Y14763D01*
X349136Y14763D01*
X349072Y14754D01*
X349008Y14755D01*
X348933Y14734D01*
X348857Y14723D01*
X348798Y14697D01*
X348736Y14680D01*
X348670Y14639D01*
X348600Y14607D01*
X348551Y14565D01*
X348496Y14532D01*
X348444Y14474D01*
X348386Y14424D01*
X348350Y14370D01*
X348307Y14322D01*
X348274Y14253D01*
X348231Y14188D01*
X348212Y14126D01*
X348184Y14069D01*
X348173Y13999D01*
X348149Y13918D01*
X348148Y13833D01*
X348137Y13764D01*
X348137Y10347D01*
X346965Y9175D01*
X335147Y9175D01*
G37*
%LPD*%
%LPC*%
G36*
X467147Y9175D02*
X467147Y9175D01*
X465975Y10347D01*
X465975Y27245D01*
X467147Y28417D01*
X478965Y28417D01*
X480137Y27245D01*
X480137Y23828D01*
X480146Y23764D01*
X480145Y23700D01*
X480166Y23625D01*
X480177Y23549D01*
X480203Y23490D01*
X480220Y23428D01*
X480261Y23362D01*
X480293Y23292D01*
X480335Y23243D01*
X480368Y23188D01*
X480426Y23136D01*
X480476Y23078D01*
X480530Y23042D01*
X480578Y22999D01*
X480647Y22966D01*
X480712Y22923D01*
X480774Y22904D01*
X480831Y22876D01*
X480901Y22865D01*
X480982Y22841D01*
X481067Y22840D01*
X481136Y22829D01*
X555192Y22829D01*
X555287Y22842D01*
X555383Y22847D01*
X555426Y22862D01*
X555471Y22869D01*
X555558Y22908D01*
X555649Y22940D01*
X555684Y22965D01*
X555728Y22985D01*
X555825Y23068D01*
X555898Y23121D01*
X564635Y31858D01*
X564692Y31935D01*
X564757Y32006D01*
X564777Y32047D01*
X564804Y32083D01*
X564838Y32173D01*
X564880Y32260D01*
X564886Y32302D01*
X564903Y32347D01*
X564913Y32475D01*
X564927Y32564D01*
X564927Y52470D01*
X572255Y59798D01*
X574910Y62453D01*
X643076Y62453D01*
X643171Y62466D01*
X643267Y62471D01*
X643310Y62486D01*
X643355Y62493D01*
X643442Y62532D01*
X643533Y62564D01*
X643568Y62589D01*
X643612Y62609D01*
X643709Y62692D01*
X643782Y62745D01*
X650995Y69958D01*
X651052Y70035D01*
X651117Y70106D01*
X651137Y70147D01*
X651164Y70183D01*
X651198Y70273D01*
X651240Y70360D01*
X651246Y70402D01*
X651263Y70447D01*
X651273Y70575D01*
X651287Y70664D01*
X651287Y81769D01*
X651274Y81864D01*
X651269Y81961D01*
X651254Y82004D01*
X651247Y82049D01*
X651208Y82136D01*
X651176Y82227D01*
X651151Y82261D01*
X651131Y82306D01*
X651048Y82403D01*
X650995Y82476D01*
X650319Y83151D01*
X650319Y104809D01*
X651491Y105981D01*
X659149Y105981D01*
X660321Y104809D01*
X660321Y83151D01*
X659645Y82476D01*
X659588Y82399D01*
X659523Y82328D01*
X659503Y82287D01*
X659476Y82250D01*
X659442Y82160D01*
X659400Y82074D01*
X659394Y82032D01*
X659377Y81986D01*
X659367Y81859D01*
X659353Y81769D01*
X659353Y66910D01*
X646830Y54387D01*
X611940Y54387D01*
X611897Y54381D01*
X611855Y54384D01*
X611758Y54361D01*
X611661Y54347D01*
X611622Y54330D01*
X611580Y54320D01*
X611493Y54272D01*
X611404Y54231D01*
X611371Y54203D01*
X611334Y54182D01*
X611264Y54112D01*
X611189Y54048D01*
X611166Y54012D01*
X611136Y53981D01*
X611089Y53895D01*
X611035Y53812D01*
X611022Y53771D01*
X611002Y53733D01*
X610981Y53636D01*
X610953Y53542D01*
X610952Y53499D01*
X610943Y53457D01*
X610950Y53359D01*
X610949Y53260D01*
X610960Y53219D01*
X610963Y53176D01*
X610994Y53096D01*
X611024Y52988D01*
X611056Y52937D01*
X611075Y52888D01*
X611345Y52421D01*
X611518Y51775D01*
X611518Y46439D01*
X604977Y46439D01*
X604913Y46430D01*
X604849Y46431D01*
X604775Y46410D01*
X604698Y46399D01*
X604639Y46373D01*
X604577Y46356D01*
X604511Y46315D01*
X604441Y46283D01*
X604392Y46241D01*
X604337Y46208D01*
X604286Y46150D01*
X604227Y46100D01*
X604191Y46046D01*
X604148Y45998D01*
X604115Y45929D01*
X604072Y45864D01*
X604053Y45802D01*
X604025Y45745D01*
X604015Y45675D01*
X603990Y45594D01*
X603989Y45509D01*
X603978Y45440D01*
X603978Y44439D01*
X603976Y44439D01*
X603976Y45440D01*
X603967Y45504D01*
X603968Y45568D01*
X603947Y45643D01*
X603936Y45719D01*
X603910Y45778D01*
X603893Y45840D01*
X603852Y45906D01*
X603820Y45976D01*
X603778Y46025D01*
X603745Y46080D01*
X603687Y46132D01*
X603637Y46190D01*
X603583Y46226D01*
X603535Y46269D01*
X603466Y46302D01*
X603401Y46345D01*
X603339Y46364D01*
X603281Y46392D01*
X603212Y46402D01*
X603131Y46427D01*
X603046Y46428D01*
X602977Y46439D01*
X596436Y46439D01*
X596436Y51775D01*
X596609Y52421D01*
X596879Y52888D01*
X596895Y52928D01*
X596919Y52964D01*
X596948Y53059D01*
X596985Y53150D01*
X596989Y53193D01*
X597001Y53234D01*
X597003Y53332D01*
X597012Y53431D01*
X597005Y53473D01*
X597005Y53516D01*
X596979Y53611D01*
X596961Y53708D01*
X596941Y53746D01*
X596930Y53788D01*
X596878Y53872D01*
X596834Y53960D01*
X596804Y53991D01*
X596782Y54028D01*
X596709Y54094D01*
X596641Y54166D01*
X596604Y54188D01*
X596572Y54217D01*
X596484Y54260D01*
X596399Y54310D01*
X596357Y54321D01*
X596319Y54340D01*
X596234Y54353D01*
X596126Y54381D01*
X596066Y54379D01*
X596014Y54387D01*
X590319Y54387D01*
X590287Y54383D01*
X590254Y54385D01*
X590148Y54363D01*
X590039Y54347D01*
X590010Y54334D01*
X589978Y54328D01*
X589882Y54276D01*
X589782Y54231D01*
X589758Y54210D01*
X589729Y54195D01*
X589651Y54119D01*
X589568Y54048D01*
X589550Y54021D01*
X589527Y53998D01*
X589474Y53904D01*
X589414Y53812D01*
X589404Y53781D01*
X589388Y53753D01*
X589363Y53647D01*
X589331Y53542D01*
X589331Y53510D01*
X589323Y53479D01*
X589329Y53369D01*
X589328Y53260D01*
X589336Y53229D01*
X589338Y53197D01*
X589374Y53094D01*
X589403Y52988D01*
X589420Y52961D01*
X589430Y52930D01*
X589484Y52857D01*
X589551Y52748D01*
X589587Y52716D01*
X589612Y52681D01*
X590025Y52269D01*
X590025Y36611D01*
X588853Y35439D01*
X588056Y35439D01*
X587992Y35430D01*
X587928Y35431D01*
X587853Y35410D01*
X587777Y35399D01*
X587718Y35373D01*
X587656Y35356D01*
X587590Y35315D01*
X587520Y35283D01*
X587471Y35241D01*
X587416Y35208D01*
X587364Y35150D01*
X587306Y35100D01*
X587270Y35046D01*
X587227Y34998D01*
X587194Y34929D01*
X587151Y34864D01*
X587132Y34802D01*
X587104Y34745D01*
X587093Y34675D01*
X587069Y34594D01*
X587068Y34509D01*
X587057Y34440D01*
X587057Y29416D01*
X587066Y29352D01*
X587065Y29288D01*
X587086Y29213D01*
X587097Y29137D01*
X587123Y29078D01*
X587140Y29016D01*
X587181Y28950D01*
X587213Y28880D01*
X587255Y28831D01*
X587288Y28776D01*
X587346Y28724D01*
X587396Y28666D01*
X587450Y28630D01*
X587498Y28587D01*
X587567Y28554D01*
X587632Y28511D01*
X587694Y28492D01*
X587751Y28464D01*
X587821Y28453D01*
X587902Y28429D01*
X587987Y28428D01*
X588056Y28417D01*
X588425Y28417D01*
X589597Y27245D01*
X589597Y10347D01*
X588425Y9175D01*
X576607Y9175D01*
X575435Y10347D01*
X575435Y27245D01*
X576607Y28417D01*
X577992Y28417D01*
X578056Y28426D01*
X578120Y28425D01*
X578195Y28446D01*
X578271Y28457D01*
X578330Y28483D01*
X578392Y28500D01*
X578458Y28541D01*
X578528Y28573D01*
X578577Y28615D01*
X578632Y28648D01*
X578684Y28706D01*
X578742Y28756D01*
X578778Y28810D01*
X578821Y28858D01*
X578854Y28927D01*
X578897Y28992D01*
X578916Y29054D01*
X578944Y29111D01*
X578955Y29181D01*
X578979Y29262D01*
X578980Y29347D01*
X578991Y29416D01*
X578991Y34440D01*
X578982Y34504D01*
X578983Y34568D01*
X578962Y34643D01*
X578951Y34719D01*
X578925Y34778D01*
X578908Y34840D01*
X578867Y34906D01*
X578835Y34976D01*
X578793Y35025D01*
X578760Y35080D01*
X578702Y35132D01*
X578652Y35190D01*
X578598Y35226D01*
X578550Y35269D01*
X578481Y35302D01*
X578416Y35345D01*
X578354Y35364D01*
X578297Y35392D01*
X578227Y35403D01*
X578146Y35427D01*
X578061Y35428D01*
X577992Y35439D01*
X577195Y35439D01*
X576023Y36611D01*
X576023Y49748D01*
X576019Y49780D01*
X576021Y49812D01*
X575999Y49919D01*
X575983Y50027D01*
X575970Y50056D01*
X575964Y50088D01*
X575912Y50184D01*
X575867Y50284D01*
X575846Y50308D01*
X575831Y50337D01*
X575755Y50415D01*
X575684Y50498D01*
X575657Y50516D01*
X575634Y50539D01*
X575539Y50593D01*
X575448Y50653D01*
X575417Y50662D01*
X575389Y50678D01*
X575283Y50703D01*
X575178Y50735D01*
X575146Y50735D01*
X575115Y50743D01*
X575005Y50737D01*
X574896Y50739D01*
X574865Y50730D01*
X574833Y50729D01*
X574730Y50693D01*
X574624Y50664D01*
X574597Y50647D01*
X574566Y50636D01*
X574493Y50583D01*
X574384Y50515D01*
X574352Y50479D01*
X574317Y50454D01*
X573285Y49422D01*
X573228Y49345D01*
X573163Y49274D01*
X573143Y49233D01*
X573116Y49197D01*
X573082Y49107D01*
X573040Y49020D01*
X573034Y48978D01*
X573017Y48933D01*
X573007Y48805D01*
X572993Y48716D01*
X572993Y28810D01*
X558946Y14763D01*
X481136Y14763D01*
X481072Y14754D01*
X481008Y14755D01*
X480933Y14734D01*
X480857Y14723D01*
X480798Y14697D01*
X480736Y14680D01*
X480670Y14639D01*
X480600Y14607D01*
X480551Y14565D01*
X480496Y14532D01*
X480444Y14474D01*
X480386Y14424D01*
X480350Y14370D01*
X480307Y14322D01*
X480274Y14253D01*
X480231Y14188D01*
X480212Y14126D01*
X480184Y14069D01*
X480173Y13999D01*
X480149Y13918D01*
X480148Y13833D01*
X480137Y13764D01*
X480137Y10347D01*
X478965Y9175D01*
X467147Y9175D01*
G37*
%LPD*%
%LPC*%
G36*
X1361889Y144811D02*
X1361889Y144811D01*
X1356391Y150309D01*
X1356391Y167348D01*
X1356392Y167349D01*
X1356398Y167390D01*
X1356415Y167436D01*
X1356425Y167564D01*
X1356439Y167653D01*
X1356439Y175929D01*
X1357611Y177101D01*
X1365269Y177101D01*
X1366441Y175929D01*
X1366441Y167653D01*
X1366454Y167558D01*
X1366459Y167462D01*
X1366474Y167419D01*
X1366481Y167374D01*
X1366489Y167356D01*
X1366489Y155908D01*
X1366498Y155844D01*
X1366497Y155780D01*
X1366518Y155705D01*
X1366529Y155629D01*
X1366555Y155570D01*
X1366572Y155508D01*
X1366613Y155442D01*
X1366645Y155372D01*
X1366687Y155323D01*
X1366720Y155268D01*
X1366778Y155216D01*
X1366828Y155158D01*
X1366882Y155122D01*
X1366930Y155079D01*
X1366999Y155046D01*
X1367064Y155003D01*
X1367126Y154984D01*
X1367183Y154956D01*
X1367253Y154945D01*
X1367334Y154921D01*
X1367419Y154920D01*
X1367488Y154909D01*
X1389415Y154909D01*
X1389510Y154922D01*
X1389606Y154927D01*
X1389649Y154942D01*
X1389694Y154949D01*
X1389782Y154988D01*
X1389872Y155020D01*
X1389907Y155045D01*
X1389951Y155065D01*
X1390048Y155148D01*
X1390121Y155201D01*
X1397449Y162529D01*
X1435938Y162529D01*
X1436002Y162538D01*
X1436066Y162537D01*
X1436141Y162558D01*
X1436217Y162569D01*
X1436276Y162595D01*
X1436338Y162612D01*
X1436404Y162653D01*
X1436474Y162685D01*
X1436523Y162727D01*
X1436578Y162760D01*
X1436630Y162818D01*
X1436688Y162868D01*
X1436724Y162922D01*
X1436767Y162970D01*
X1436800Y163039D01*
X1436843Y163104D01*
X1436862Y163166D01*
X1436890Y163223D01*
X1436901Y163293D01*
X1436925Y163374D01*
X1436926Y163459D01*
X1436937Y163528D01*
X1436937Y166244D01*
X1438556Y167863D01*
X1478944Y167863D01*
X1480563Y166244D01*
X1480563Y151256D01*
X1478944Y149637D01*
X1438556Y149637D01*
X1436937Y151256D01*
X1436937Y151432D01*
X1436928Y151496D01*
X1436929Y151560D01*
X1436908Y151635D01*
X1436897Y151711D01*
X1436871Y151770D01*
X1436854Y151832D01*
X1436813Y151898D01*
X1436781Y151968D01*
X1436739Y152017D01*
X1436706Y152072D01*
X1436648Y152124D01*
X1436598Y152182D01*
X1436544Y152218D01*
X1436496Y152261D01*
X1436427Y152294D01*
X1436362Y152337D01*
X1436300Y152356D01*
X1436243Y152384D01*
X1436173Y152395D01*
X1436092Y152419D01*
X1436007Y152420D01*
X1435938Y152431D01*
X1402045Y152431D01*
X1401950Y152418D01*
X1401854Y152413D01*
X1401811Y152398D01*
X1401766Y152391D01*
X1401678Y152352D01*
X1401588Y152320D01*
X1401553Y152295D01*
X1401509Y152275D01*
X1401412Y152192D01*
X1401339Y152139D01*
X1394011Y144811D01*
X1361889Y144811D01*
G37*
%LPD*%
%LPC*%
G36*
X599147Y9175D02*
X599147Y9175D01*
X597975Y10347D01*
X597975Y27245D01*
X599147Y28417D01*
X610965Y28417D01*
X612137Y27245D01*
X612137Y22812D01*
X612146Y22748D01*
X612145Y22684D01*
X612166Y22609D01*
X612177Y22533D01*
X612203Y22474D01*
X612220Y22412D01*
X612261Y22346D01*
X612293Y22276D01*
X612335Y22227D01*
X612368Y22172D01*
X612426Y22120D01*
X612476Y22062D01*
X612530Y22026D01*
X612578Y21983D01*
X612647Y21950D01*
X612712Y21907D01*
X612774Y21888D01*
X612831Y21860D01*
X612901Y21849D01*
X612982Y21825D01*
X613067Y21824D01*
X613136Y21813D01*
X653236Y21813D01*
X653331Y21826D01*
X653427Y21831D01*
X653470Y21846D01*
X653515Y21853D01*
X653602Y21892D01*
X653693Y21924D01*
X653728Y21949D01*
X653772Y21969D01*
X653869Y22052D01*
X653942Y22105D01*
X663695Y31858D01*
X663752Y31935D01*
X663817Y32006D01*
X663837Y32047D01*
X663864Y32083D01*
X663898Y32173D01*
X663940Y32260D01*
X663946Y32302D01*
X663963Y32347D01*
X663973Y32475D01*
X663987Y32564D01*
X663987Y81769D01*
X663974Y81864D01*
X663969Y81961D01*
X663954Y82004D01*
X663947Y82049D01*
X663908Y82136D01*
X663876Y82227D01*
X663851Y82261D01*
X663831Y82306D01*
X663748Y82403D01*
X663695Y82476D01*
X663019Y83151D01*
X663019Y104809D01*
X664191Y105981D01*
X671849Y105981D01*
X673021Y104809D01*
X673021Y83151D01*
X672345Y82476D01*
X672288Y82399D01*
X672223Y82328D01*
X672203Y82287D01*
X672176Y82250D01*
X672142Y82160D01*
X672100Y82074D01*
X672094Y82032D01*
X672077Y81986D01*
X672067Y81859D01*
X672053Y81769D01*
X672053Y28810D01*
X656990Y13747D01*
X613136Y13747D01*
X613072Y13738D01*
X613008Y13739D01*
X612933Y13718D01*
X612857Y13707D01*
X612798Y13681D01*
X612736Y13664D01*
X612670Y13623D01*
X612600Y13591D01*
X612551Y13549D01*
X612496Y13516D01*
X612444Y13458D01*
X612386Y13408D01*
X612350Y13354D01*
X612307Y13306D01*
X612274Y13237D01*
X612231Y13172D01*
X612212Y13110D01*
X612184Y13053D01*
X612173Y12983D01*
X612149Y12902D01*
X612148Y12817D01*
X612137Y12748D01*
X612137Y10347D01*
X610965Y9175D01*
X599147Y9175D01*
G37*
%LPD*%
%LPC*%
G36*
X1127147Y9175D02*
X1127147Y9175D01*
X1125975Y10347D01*
X1125975Y27245D01*
X1127147Y28417D01*
X1138965Y28417D01*
X1140137Y27245D01*
X1140137Y23828D01*
X1140146Y23764D01*
X1140145Y23700D01*
X1140166Y23625D01*
X1140177Y23549D01*
X1140203Y23490D01*
X1140220Y23428D01*
X1140261Y23362D01*
X1140293Y23292D01*
X1140335Y23243D01*
X1140368Y23188D01*
X1140426Y23136D01*
X1140476Y23078D01*
X1140530Y23042D01*
X1140578Y22999D01*
X1140647Y22966D01*
X1140712Y22923D01*
X1140774Y22904D01*
X1140831Y22876D01*
X1140901Y22865D01*
X1140982Y22841D01*
X1141067Y22840D01*
X1141136Y22829D01*
X1155846Y22829D01*
X1156062Y22613D01*
X1156139Y22556D01*
X1156210Y22491D01*
X1156251Y22471D01*
X1156287Y22444D01*
X1156377Y22410D01*
X1156464Y22368D01*
X1156506Y22362D01*
X1156551Y22345D01*
X1156679Y22335D01*
X1156768Y22321D01*
X1160176Y22321D01*
X1160271Y22334D01*
X1160367Y22339D01*
X1160410Y22354D01*
X1160455Y22361D01*
X1160543Y22400D01*
X1160634Y22432D01*
X1160668Y22457D01*
X1160712Y22477D01*
X1160810Y22560D01*
X1160883Y22613D01*
X1232218Y93949D01*
X1253847Y93949D01*
X1253942Y93962D01*
X1254038Y93967D01*
X1254081Y93982D01*
X1254126Y93989D01*
X1254214Y94028D01*
X1254304Y94060D01*
X1254339Y94085D01*
X1254383Y94105D01*
X1254480Y94188D01*
X1254553Y94241D01*
X1255737Y95425D01*
X1259879Y95425D01*
X1262809Y92495D01*
X1262809Y88353D01*
X1259879Y85423D01*
X1255737Y85423D01*
X1254553Y86607D01*
X1254477Y86664D01*
X1254405Y86729D01*
X1254364Y86749D01*
X1254328Y86776D01*
X1254238Y86810D01*
X1254151Y86852D01*
X1254109Y86858D01*
X1254064Y86875D01*
X1253936Y86885D01*
X1253847Y86899D01*
X1235552Y86899D01*
X1235457Y86886D01*
X1235361Y86881D01*
X1235318Y86866D01*
X1235273Y86859D01*
X1235185Y86820D01*
X1235094Y86788D01*
X1235060Y86763D01*
X1235016Y86743D01*
X1234918Y86660D01*
X1234845Y86607D01*
X1163510Y15271D01*
X1156768Y15271D01*
X1156673Y15258D01*
X1156577Y15253D01*
X1156534Y15238D01*
X1156489Y15231D01*
X1156402Y15192D01*
X1156311Y15160D01*
X1156276Y15135D01*
X1156232Y15115D01*
X1156135Y15032D01*
X1156062Y14979D01*
X1155846Y14763D01*
X1141136Y14763D01*
X1141072Y14754D01*
X1141008Y14755D01*
X1140933Y14734D01*
X1140857Y14723D01*
X1140798Y14697D01*
X1140736Y14680D01*
X1140670Y14639D01*
X1140600Y14607D01*
X1140551Y14565D01*
X1140496Y14532D01*
X1140444Y14474D01*
X1140386Y14424D01*
X1140350Y14370D01*
X1140307Y14322D01*
X1140274Y14253D01*
X1140231Y14188D01*
X1140212Y14126D01*
X1140184Y14069D01*
X1140173Y13999D01*
X1140149Y13918D01*
X1140148Y13833D01*
X1140137Y13764D01*
X1140137Y10347D01*
X1138965Y9175D01*
X1127147Y9175D01*
G37*
%LPD*%
%LPC*%
G36*
X1259147Y9175D02*
X1259147Y9175D01*
X1257975Y10347D01*
X1257975Y27245D01*
X1259147Y28417D01*
X1268560Y28417D01*
X1268655Y28430D01*
X1268751Y28435D01*
X1268794Y28450D01*
X1268839Y28457D01*
X1268926Y28496D01*
X1269017Y28528D01*
X1269052Y28553D01*
X1269096Y28573D01*
X1269193Y28656D01*
X1269266Y28709D01*
X1272008Y31451D01*
X1272065Y31528D01*
X1272130Y31599D01*
X1272150Y31640D01*
X1272177Y31676D01*
X1272211Y31766D01*
X1272253Y31853D01*
X1272259Y31895D01*
X1272276Y31940D01*
X1272286Y32068D01*
X1272300Y32157D01*
X1272300Y32800D01*
X1272293Y32853D01*
X1272295Y32907D01*
X1272273Y32992D01*
X1272260Y33079D01*
X1272238Y33128D01*
X1272225Y33180D01*
X1272181Y33256D01*
X1272144Y33336D01*
X1272109Y33377D01*
X1272082Y33423D01*
X1272018Y33484D01*
X1271961Y33551D01*
X1271916Y33580D01*
X1271877Y33617D01*
X1271799Y33657D01*
X1271725Y33705D01*
X1271673Y33721D01*
X1271626Y33745D01*
X1271539Y33762D01*
X1271455Y33788D01*
X1271402Y33788D01*
X1271349Y33798D01*
X1271271Y33790D01*
X1271173Y33791D01*
X1271103Y33772D01*
X1271042Y33765D01*
X1270571Y33639D01*
X1267236Y33639D01*
X1267236Y42180D01*
X1267227Y42244D01*
X1267228Y42308D01*
X1267207Y42382D01*
X1267196Y42459D01*
X1267170Y42518D01*
X1267153Y42580D01*
X1267112Y42646D01*
X1267080Y42716D01*
X1267038Y42765D01*
X1267005Y42820D01*
X1266947Y42871D01*
X1266897Y42930D01*
X1266843Y42966D01*
X1266795Y43009D01*
X1266726Y43042D01*
X1266661Y43085D01*
X1266599Y43104D01*
X1266542Y43132D01*
X1266472Y43142D01*
X1266391Y43167D01*
X1266306Y43168D01*
X1266237Y43179D01*
X1265236Y43179D01*
X1265236Y43181D01*
X1266237Y43181D01*
X1266301Y43190D01*
X1266365Y43189D01*
X1266440Y43210D01*
X1266516Y43221D01*
X1266575Y43247D01*
X1266637Y43264D01*
X1266703Y43305D01*
X1266773Y43337D01*
X1266822Y43379D01*
X1266877Y43412D01*
X1266929Y43470D01*
X1266987Y43520D01*
X1267023Y43574D01*
X1267066Y43622D01*
X1267099Y43691D01*
X1267142Y43756D01*
X1267161Y43818D01*
X1267189Y43876D01*
X1267199Y43945D01*
X1267224Y44026D01*
X1267225Y44111D01*
X1267236Y44180D01*
X1267236Y52721D01*
X1270703Y52721D01*
X1270711Y52722D01*
X1270727Y52720D01*
X1270749Y52724D01*
X1270771Y52722D01*
X1270887Y52746D01*
X1270930Y52753D01*
X1270982Y52761D01*
X1270986Y52762D01*
X1271005Y52765D01*
X1271025Y52775D01*
X1271047Y52779D01*
X1271152Y52835D01*
X1271231Y52873D01*
X1271239Y52877D01*
X1271240Y52877D01*
X1271259Y52887D01*
X1271276Y52901D01*
X1271296Y52912D01*
X1271381Y52995D01*
X1271470Y53074D01*
X1271482Y53093D01*
X1271498Y53109D01*
X1271557Y53212D01*
X1271620Y53313D01*
X1271626Y53335D01*
X1271637Y53354D01*
X1271664Y53470D01*
X1271697Y53585D01*
X1271697Y53607D01*
X1271702Y53629D01*
X1271696Y53747D01*
X1271695Y53867D01*
X1271689Y53888D01*
X1271687Y53910D01*
X1271649Y54022D01*
X1271614Y54137D01*
X1271602Y54156D01*
X1271595Y54177D01*
X1271541Y54250D01*
X1271474Y54354D01*
X1271471Y54360D01*
X1271470Y54360D01*
X1271461Y54374D01*
X1271433Y54399D01*
X1271413Y54426D01*
X1271162Y54677D01*
X1268507Y57331D01*
X1268507Y76689D01*
X1268494Y76784D01*
X1268489Y76881D01*
X1268474Y76924D01*
X1268467Y76969D01*
X1268428Y77056D01*
X1268396Y77147D01*
X1268371Y77181D01*
X1268351Y77226D01*
X1268268Y77323D01*
X1268215Y77396D01*
X1267539Y78071D01*
X1267539Y99729D01*
X1268711Y100901D01*
X1276369Y100901D01*
X1277541Y99729D01*
X1277541Y78071D01*
X1276865Y77396D01*
X1276808Y77319D01*
X1276743Y77248D01*
X1276723Y77207D01*
X1276696Y77170D01*
X1276662Y77080D01*
X1276620Y76994D01*
X1276614Y76952D01*
X1276597Y76906D01*
X1276587Y76779D01*
X1276573Y76689D01*
X1276573Y61086D01*
X1276586Y60991D01*
X1276591Y60895D01*
X1276606Y60852D01*
X1276613Y60807D01*
X1276652Y60720D01*
X1276684Y60629D01*
X1276709Y60594D01*
X1276729Y60550D01*
X1276812Y60453D01*
X1276865Y60380D01*
X1280366Y56879D01*
X1280366Y28403D01*
X1272429Y20466D01*
X1272372Y20389D01*
X1272307Y20318D01*
X1272287Y20277D01*
X1272260Y20241D01*
X1272226Y20151D01*
X1272184Y20064D01*
X1272178Y20022D01*
X1272161Y19977D01*
X1272151Y19849D01*
X1272137Y19760D01*
X1272137Y10347D01*
X1270965Y9175D01*
X1259147Y9175D01*
G37*
%LPD*%
%LPC*%
G36*
X180607Y9175D02*
X180607Y9175D01*
X179435Y10347D01*
X179435Y27245D01*
X180607Y28417D01*
X182612Y28417D01*
X182676Y28426D01*
X182740Y28425D01*
X182815Y28446D01*
X182891Y28457D01*
X182950Y28483D01*
X183012Y28500D01*
X183078Y28541D01*
X183148Y28573D01*
X183197Y28615D01*
X183252Y28648D01*
X183304Y28706D01*
X183362Y28756D01*
X183398Y28810D01*
X183441Y28858D01*
X183474Y28927D01*
X183517Y28992D01*
X183536Y29054D01*
X183564Y29111D01*
X183575Y29181D01*
X183599Y29262D01*
X183600Y29347D01*
X183611Y29416D01*
X183611Y33180D01*
X183602Y33244D01*
X183603Y33308D01*
X183582Y33383D01*
X183571Y33459D01*
X183545Y33518D01*
X183528Y33580D01*
X183487Y33646D01*
X183455Y33716D01*
X183413Y33765D01*
X183380Y33820D01*
X183322Y33872D01*
X183272Y33930D01*
X183218Y33966D01*
X183170Y34009D01*
X183101Y34042D01*
X183036Y34085D01*
X182974Y34104D01*
X182917Y34132D01*
X182847Y34143D01*
X182766Y34167D01*
X182681Y34168D01*
X182612Y34179D01*
X181815Y34179D01*
X180643Y35351D01*
X180643Y51009D01*
X181815Y52181D01*
X193473Y52181D01*
X194645Y51009D01*
X194645Y35351D01*
X193473Y34179D01*
X192676Y34179D01*
X192612Y34170D01*
X192548Y34171D01*
X192473Y34150D01*
X192397Y34139D01*
X192338Y34113D01*
X192276Y34096D01*
X192210Y34055D01*
X192140Y34023D01*
X192091Y33981D01*
X192036Y33948D01*
X191984Y33890D01*
X191926Y33840D01*
X191890Y33786D01*
X191847Y33738D01*
X191814Y33669D01*
X191771Y33604D01*
X191752Y33542D01*
X191724Y33485D01*
X191713Y33415D01*
X191689Y33334D01*
X191688Y33249D01*
X191677Y33180D01*
X191677Y29416D01*
X191686Y29352D01*
X191685Y29288D01*
X191706Y29213D01*
X191717Y29137D01*
X191743Y29078D01*
X191760Y29016D01*
X191801Y28950D01*
X191833Y28880D01*
X191875Y28831D01*
X191908Y28776D01*
X191966Y28724D01*
X192016Y28666D01*
X192070Y28630D01*
X192118Y28587D01*
X192187Y28554D01*
X192252Y28511D01*
X192314Y28492D01*
X192371Y28464D01*
X192378Y28463D01*
X193597Y27245D01*
X193597Y10347D01*
X192425Y9175D01*
X180607Y9175D01*
G37*
%LPD*%
%LPC*%
G36*
X312607Y9175D02*
X312607Y9175D01*
X311435Y10347D01*
X311435Y27245D01*
X312607Y28417D01*
X314692Y28417D01*
X314756Y28426D01*
X314820Y28425D01*
X314895Y28446D01*
X314971Y28457D01*
X315030Y28483D01*
X315092Y28500D01*
X315158Y28541D01*
X315228Y28573D01*
X315277Y28615D01*
X315332Y28648D01*
X315384Y28706D01*
X315442Y28756D01*
X315478Y28810D01*
X315521Y28858D01*
X315554Y28927D01*
X315597Y28992D01*
X315616Y29054D01*
X315644Y29111D01*
X315655Y29181D01*
X315679Y29262D01*
X315680Y29347D01*
X315691Y29416D01*
X315691Y33180D01*
X315682Y33244D01*
X315683Y33308D01*
X315662Y33383D01*
X315651Y33459D01*
X315625Y33518D01*
X315608Y33580D01*
X315567Y33646D01*
X315535Y33716D01*
X315493Y33765D01*
X315460Y33820D01*
X315402Y33872D01*
X315352Y33930D01*
X315298Y33966D01*
X315250Y34009D01*
X315181Y34042D01*
X315116Y34085D01*
X315054Y34104D01*
X314997Y34132D01*
X314927Y34143D01*
X314846Y34167D01*
X314761Y34168D01*
X314692Y34179D01*
X313895Y34179D01*
X312723Y35351D01*
X312723Y51009D01*
X313895Y52181D01*
X325553Y52181D01*
X326725Y51009D01*
X326725Y35351D01*
X325553Y34179D01*
X324756Y34179D01*
X324692Y34170D01*
X324628Y34171D01*
X324553Y34150D01*
X324477Y34139D01*
X324418Y34113D01*
X324356Y34096D01*
X324290Y34055D01*
X324220Y34023D01*
X324171Y33981D01*
X324116Y33948D01*
X324064Y33890D01*
X324006Y33840D01*
X323970Y33786D01*
X323927Y33738D01*
X323894Y33669D01*
X323851Y33604D01*
X323832Y33542D01*
X323804Y33485D01*
X323793Y33415D01*
X323769Y33334D01*
X323768Y33249D01*
X323757Y33180D01*
X323757Y29416D01*
X323766Y29352D01*
X323765Y29288D01*
X323786Y29213D01*
X323797Y29137D01*
X323823Y29078D01*
X323840Y29016D01*
X323881Y28950D01*
X323913Y28880D01*
X323955Y28831D01*
X323988Y28776D01*
X324046Y28724D01*
X324096Y28666D01*
X324150Y28630D01*
X324198Y28587D01*
X324267Y28554D01*
X324327Y28514D01*
X325597Y27245D01*
X325597Y10347D01*
X324425Y9175D01*
X312607Y9175D01*
G37*
%LPD*%
%LPC*%
G36*
X1104607Y9175D02*
X1104607Y9175D01*
X1103435Y10347D01*
X1103435Y27245D01*
X1104607Y28417D01*
X1107172Y28417D01*
X1107236Y28426D01*
X1107300Y28425D01*
X1107375Y28446D01*
X1107451Y28457D01*
X1107510Y28483D01*
X1107572Y28500D01*
X1107638Y28541D01*
X1107708Y28573D01*
X1107757Y28615D01*
X1107812Y28648D01*
X1107864Y28706D01*
X1107922Y28756D01*
X1107958Y28810D01*
X1108001Y28858D01*
X1108034Y28927D01*
X1108077Y28992D01*
X1108096Y29054D01*
X1108124Y29111D01*
X1108135Y29181D01*
X1108159Y29262D01*
X1108160Y29347D01*
X1108171Y29416D01*
X1108171Y33180D01*
X1108162Y33244D01*
X1108163Y33308D01*
X1108142Y33383D01*
X1108131Y33459D01*
X1108105Y33518D01*
X1108088Y33580D01*
X1108047Y33646D01*
X1108015Y33716D01*
X1107973Y33765D01*
X1107940Y33820D01*
X1107882Y33872D01*
X1107832Y33930D01*
X1107778Y33966D01*
X1107730Y34009D01*
X1107661Y34042D01*
X1107596Y34085D01*
X1107534Y34104D01*
X1107477Y34132D01*
X1107407Y34143D01*
X1107326Y34167D01*
X1107241Y34168D01*
X1107172Y34179D01*
X1106375Y34179D01*
X1105203Y35351D01*
X1105203Y51009D01*
X1106375Y52181D01*
X1118033Y52181D01*
X1119205Y51009D01*
X1119205Y35351D01*
X1118033Y34179D01*
X1117236Y34179D01*
X1117172Y34170D01*
X1117108Y34171D01*
X1117033Y34150D01*
X1116957Y34139D01*
X1116898Y34113D01*
X1116836Y34096D01*
X1116770Y34055D01*
X1116700Y34023D01*
X1116651Y33981D01*
X1116596Y33948D01*
X1116544Y33890D01*
X1116486Y33840D01*
X1116450Y33786D01*
X1116407Y33738D01*
X1116374Y33669D01*
X1116331Y33604D01*
X1116312Y33542D01*
X1116284Y33485D01*
X1116273Y33415D01*
X1116249Y33334D01*
X1116248Y33249D01*
X1116237Y33180D01*
X1116237Y29019D01*
X1116250Y28924D01*
X1116255Y28827D01*
X1116270Y28784D01*
X1116277Y28739D01*
X1116316Y28652D01*
X1116348Y28561D01*
X1116373Y28527D01*
X1116393Y28482D01*
X1116476Y28385D01*
X1116490Y28366D01*
X1116504Y28343D01*
X1116512Y28336D01*
X1116529Y28312D01*
X1117597Y27245D01*
X1117597Y10347D01*
X1116425Y9175D01*
X1104607Y9175D01*
G37*
%LPD*%
%LPC*%
G36*
X1236607Y9175D02*
X1236607Y9175D01*
X1235435Y10347D01*
X1235435Y27245D01*
X1236607Y28417D01*
X1239252Y28417D01*
X1239316Y28426D01*
X1239380Y28425D01*
X1239455Y28446D01*
X1239531Y28457D01*
X1239590Y28483D01*
X1239652Y28500D01*
X1239718Y28541D01*
X1239788Y28573D01*
X1239837Y28615D01*
X1239892Y28648D01*
X1239944Y28706D01*
X1240002Y28756D01*
X1240038Y28810D01*
X1240081Y28858D01*
X1240114Y28927D01*
X1240157Y28992D01*
X1240176Y29054D01*
X1240204Y29111D01*
X1240215Y29181D01*
X1240239Y29262D01*
X1240240Y29347D01*
X1240251Y29416D01*
X1240251Y33180D01*
X1240242Y33244D01*
X1240243Y33308D01*
X1240222Y33383D01*
X1240211Y33459D01*
X1240185Y33518D01*
X1240168Y33580D01*
X1240127Y33646D01*
X1240095Y33716D01*
X1240053Y33765D01*
X1240020Y33820D01*
X1239962Y33872D01*
X1239912Y33930D01*
X1239858Y33966D01*
X1239810Y34009D01*
X1239741Y34042D01*
X1239676Y34085D01*
X1239614Y34104D01*
X1239557Y34132D01*
X1239487Y34143D01*
X1239406Y34167D01*
X1239321Y34168D01*
X1239252Y34179D01*
X1238455Y34179D01*
X1237283Y35351D01*
X1237283Y51009D01*
X1238455Y52181D01*
X1250113Y52181D01*
X1251285Y51009D01*
X1251285Y35351D01*
X1250113Y34179D01*
X1249316Y34179D01*
X1249252Y34170D01*
X1249188Y34171D01*
X1249113Y34150D01*
X1249037Y34139D01*
X1248978Y34113D01*
X1248916Y34096D01*
X1248850Y34055D01*
X1248780Y34023D01*
X1248731Y33981D01*
X1248676Y33948D01*
X1248624Y33890D01*
X1248566Y33840D01*
X1248530Y33786D01*
X1248487Y33738D01*
X1248454Y33669D01*
X1248411Y33604D01*
X1248392Y33542D01*
X1248364Y33485D01*
X1248353Y33415D01*
X1248329Y33334D01*
X1248328Y33249D01*
X1248317Y33180D01*
X1248317Y28939D01*
X1248325Y28879D01*
X1248325Y28855D01*
X1248331Y28834D01*
X1248335Y28747D01*
X1248350Y28704D01*
X1248357Y28659D01*
X1248396Y28572D01*
X1248428Y28481D01*
X1248453Y28447D01*
X1248473Y28402D01*
X1248556Y28305D01*
X1248609Y28232D01*
X1249597Y27245D01*
X1249597Y10347D01*
X1248425Y9175D01*
X1236607Y9175D01*
G37*
%LPD*%
G36*
X1477820Y177042D02*
X1477820Y177042D01*
X1477839Y177040D01*
X1477941Y177062D01*
X1478043Y177079D01*
X1478060Y177088D01*
X1478080Y177092D01*
X1478169Y177145D01*
X1478260Y177194D01*
X1478274Y177208D01*
X1478291Y177218D01*
X1478358Y177297D01*
X1478430Y177372D01*
X1478438Y177390D01*
X1478451Y177405D01*
X1478490Y177501D01*
X1478533Y177595D01*
X1478535Y177615D01*
X1478543Y177633D01*
X1478561Y177800D01*
X1478561Y190500D01*
X1478558Y190520D01*
X1478560Y190539D01*
X1478538Y190641D01*
X1478522Y190743D01*
X1478512Y190760D01*
X1478508Y190780D01*
X1478455Y190869D01*
X1478406Y190960D01*
X1478392Y190974D01*
X1478382Y190991D01*
X1478303Y191058D01*
X1478228Y191130D01*
X1478210Y191138D01*
X1478195Y191151D01*
X1478099Y191190D01*
X1478005Y191233D01*
X1477985Y191235D01*
X1477967Y191243D01*
X1477800Y191261D01*
X1439700Y191261D01*
X1439680Y191258D01*
X1439661Y191260D01*
X1439559Y191238D01*
X1439457Y191222D01*
X1439440Y191212D01*
X1439420Y191208D01*
X1439331Y191155D01*
X1439240Y191106D01*
X1439226Y191092D01*
X1439209Y191082D01*
X1439142Y191003D01*
X1439071Y190928D01*
X1439062Y190910D01*
X1439049Y190895D01*
X1439010Y190799D01*
X1438967Y190705D01*
X1438965Y190685D01*
X1438957Y190667D01*
X1438939Y190500D01*
X1438939Y177800D01*
X1438942Y177780D01*
X1438940Y177761D01*
X1438962Y177659D01*
X1438979Y177557D01*
X1438988Y177540D01*
X1438992Y177520D01*
X1439045Y177431D01*
X1439094Y177340D01*
X1439108Y177326D01*
X1439118Y177309D01*
X1439197Y177242D01*
X1439272Y177171D01*
X1439290Y177162D01*
X1439305Y177149D01*
X1439401Y177110D01*
X1439495Y177067D01*
X1439515Y177065D01*
X1439533Y177057D01*
X1439700Y177039D01*
X1477800Y177039D01*
X1477820Y177042D01*
G37*
G36*
X47820Y177042D02*
X47820Y177042D01*
X47839Y177040D01*
X47941Y177062D01*
X48043Y177079D01*
X48060Y177088D01*
X48080Y177092D01*
X48169Y177145D01*
X48260Y177194D01*
X48274Y177208D01*
X48291Y177218D01*
X48358Y177297D01*
X48430Y177372D01*
X48438Y177390D01*
X48451Y177405D01*
X48490Y177501D01*
X48533Y177595D01*
X48535Y177615D01*
X48543Y177633D01*
X48561Y177800D01*
X48561Y190500D01*
X48558Y190520D01*
X48560Y190539D01*
X48538Y190641D01*
X48522Y190743D01*
X48512Y190760D01*
X48508Y190780D01*
X48455Y190869D01*
X48406Y190960D01*
X48392Y190974D01*
X48382Y190991D01*
X48303Y191058D01*
X48228Y191130D01*
X48210Y191138D01*
X48195Y191151D01*
X48099Y191190D01*
X48005Y191233D01*
X47985Y191235D01*
X47967Y191243D01*
X47800Y191261D01*
X9700Y191261D01*
X9680Y191258D01*
X9661Y191260D01*
X9559Y191238D01*
X9457Y191222D01*
X9440Y191212D01*
X9420Y191208D01*
X9331Y191155D01*
X9240Y191106D01*
X9226Y191092D01*
X9209Y191082D01*
X9142Y191003D01*
X9071Y190928D01*
X9062Y190910D01*
X9049Y190895D01*
X9010Y190799D01*
X8967Y190705D01*
X8965Y190685D01*
X8957Y190667D01*
X8939Y190500D01*
X8939Y177800D01*
X8942Y177780D01*
X8940Y177761D01*
X8962Y177659D01*
X8979Y177557D01*
X8988Y177540D01*
X8992Y177520D01*
X9045Y177431D01*
X9094Y177340D01*
X9108Y177326D01*
X9118Y177309D01*
X9197Y177242D01*
X9272Y177171D01*
X9290Y177162D01*
X9305Y177149D01*
X9401Y177110D01*
X9495Y177067D01*
X9515Y177065D01*
X9533Y177057D01*
X9700Y177039D01*
X47800Y177039D01*
X47820Y177042D01*
G37*
G36*
X1477820Y151642D02*
X1477820Y151642D01*
X1477839Y151640D01*
X1477941Y151662D01*
X1478043Y151679D01*
X1478060Y151688D01*
X1478080Y151692D01*
X1478169Y151745D01*
X1478260Y151794D01*
X1478274Y151808D01*
X1478291Y151818D01*
X1478358Y151897D01*
X1478430Y151972D01*
X1478438Y151990D01*
X1478451Y152005D01*
X1478490Y152101D01*
X1478533Y152195D01*
X1478535Y152215D01*
X1478543Y152233D01*
X1478561Y152400D01*
X1478561Y165100D01*
X1478558Y165120D01*
X1478560Y165139D01*
X1478538Y165241D01*
X1478522Y165343D01*
X1478512Y165360D01*
X1478508Y165380D01*
X1478455Y165469D01*
X1478406Y165560D01*
X1478392Y165574D01*
X1478382Y165591D01*
X1478303Y165658D01*
X1478228Y165730D01*
X1478210Y165738D01*
X1478195Y165751D01*
X1478099Y165790D01*
X1478005Y165833D01*
X1477985Y165835D01*
X1477967Y165843D01*
X1477800Y165861D01*
X1439700Y165861D01*
X1439680Y165858D01*
X1439661Y165860D01*
X1439559Y165838D01*
X1439457Y165822D01*
X1439440Y165812D01*
X1439420Y165808D01*
X1439331Y165755D01*
X1439240Y165706D01*
X1439226Y165692D01*
X1439209Y165682D01*
X1439142Y165603D01*
X1439071Y165528D01*
X1439062Y165510D01*
X1439049Y165495D01*
X1439010Y165399D01*
X1438967Y165305D01*
X1438965Y165285D01*
X1438957Y165267D01*
X1438939Y165100D01*
X1438939Y152400D01*
X1438942Y152380D01*
X1438940Y152361D01*
X1438962Y152259D01*
X1438979Y152157D01*
X1438988Y152140D01*
X1438992Y152120D01*
X1439045Y152031D01*
X1439094Y151940D01*
X1439108Y151926D01*
X1439118Y151909D01*
X1439197Y151842D01*
X1439272Y151771D01*
X1439290Y151762D01*
X1439305Y151749D01*
X1439401Y151710D01*
X1439495Y151667D01*
X1439515Y151665D01*
X1439533Y151657D01*
X1439700Y151639D01*
X1477800Y151639D01*
X1477820Y151642D01*
G37*
G36*
X1477820Y126242D02*
X1477820Y126242D01*
X1477839Y126240D01*
X1477941Y126262D01*
X1478043Y126279D01*
X1478060Y126288D01*
X1478080Y126292D01*
X1478169Y126345D01*
X1478260Y126394D01*
X1478274Y126408D01*
X1478291Y126418D01*
X1478358Y126497D01*
X1478430Y126572D01*
X1478438Y126590D01*
X1478451Y126605D01*
X1478490Y126701D01*
X1478533Y126795D01*
X1478535Y126815D01*
X1478543Y126833D01*
X1478561Y127000D01*
X1478561Y139700D01*
X1478558Y139720D01*
X1478560Y139739D01*
X1478538Y139841D01*
X1478522Y139943D01*
X1478512Y139960D01*
X1478508Y139980D01*
X1478455Y140069D01*
X1478406Y140160D01*
X1478392Y140174D01*
X1478382Y140191D01*
X1478303Y140258D01*
X1478228Y140330D01*
X1478210Y140338D01*
X1478195Y140351D01*
X1478099Y140390D01*
X1478005Y140433D01*
X1477985Y140435D01*
X1477967Y140443D01*
X1477800Y140461D01*
X1439700Y140461D01*
X1439680Y140458D01*
X1439661Y140460D01*
X1439559Y140438D01*
X1439457Y140422D01*
X1439440Y140412D01*
X1439420Y140408D01*
X1439331Y140355D01*
X1439240Y140306D01*
X1439226Y140292D01*
X1439209Y140282D01*
X1439142Y140203D01*
X1439071Y140128D01*
X1439062Y140110D01*
X1439049Y140095D01*
X1439010Y139999D01*
X1438967Y139905D01*
X1438965Y139885D01*
X1438957Y139867D01*
X1438939Y139700D01*
X1438939Y127000D01*
X1438942Y126980D01*
X1438940Y126961D01*
X1438962Y126859D01*
X1438979Y126757D01*
X1438988Y126740D01*
X1438992Y126720D01*
X1439045Y126631D01*
X1439094Y126540D01*
X1439108Y126526D01*
X1439118Y126509D01*
X1439197Y126442D01*
X1439272Y126371D01*
X1439290Y126362D01*
X1439305Y126349D01*
X1439401Y126310D01*
X1439495Y126267D01*
X1439515Y126265D01*
X1439533Y126257D01*
X1439700Y126239D01*
X1477800Y126239D01*
X1477820Y126242D01*
G37*
G36*
X47820Y126242D02*
X47820Y126242D01*
X47839Y126240D01*
X47941Y126262D01*
X48043Y126279D01*
X48060Y126288D01*
X48080Y126292D01*
X48169Y126345D01*
X48260Y126394D01*
X48274Y126408D01*
X48291Y126418D01*
X48358Y126497D01*
X48430Y126572D01*
X48438Y126590D01*
X48451Y126605D01*
X48490Y126701D01*
X48533Y126795D01*
X48535Y126815D01*
X48543Y126833D01*
X48561Y127000D01*
X48561Y139700D01*
X48558Y139720D01*
X48560Y139739D01*
X48538Y139841D01*
X48522Y139943D01*
X48512Y139960D01*
X48508Y139980D01*
X48455Y140069D01*
X48406Y140160D01*
X48392Y140174D01*
X48382Y140191D01*
X48303Y140258D01*
X48228Y140330D01*
X48210Y140338D01*
X48195Y140351D01*
X48099Y140390D01*
X48005Y140433D01*
X47985Y140435D01*
X47967Y140443D01*
X47800Y140461D01*
X9700Y140461D01*
X9680Y140458D01*
X9661Y140460D01*
X9559Y140438D01*
X9457Y140422D01*
X9440Y140412D01*
X9420Y140408D01*
X9331Y140355D01*
X9240Y140306D01*
X9226Y140292D01*
X9209Y140282D01*
X9142Y140203D01*
X9071Y140128D01*
X9062Y140110D01*
X9049Y140095D01*
X9010Y139999D01*
X8967Y139905D01*
X8965Y139885D01*
X8957Y139867D01*
X8939Y139700D01*
X8939Y127000D01*
X8942Y126980D01*
X8940Y126961D01*
X8962Y126859D01*
X8979Y126757D01*
X8988Y126740D01*
X8992Y126720D01*
X9045Y126631D01*
X9094Y126540D01*
X9108Y126526D01*
X9118Y126509D01*
X9197Y126442D01*
X9272Y126371D01*
X9290Y126362D01*
X9305Y126349D01*
X9401Y126310D01*
X9495Y126267D01*
X9515Y126265D01*
X9533Y126257D01*
X9700Y126239D01*
X47800Y126239D01*
X47820Y126242D01*
G37*
G36*
X47820Y151642D02*
X47820Y151642D01*
X47839Y151640D01*
X47941Y151662D01*
X48043Y151679D01*
X48060Y151688D01*
X48080Y151692D01*
X48169Y151745D01*
X48260Y151794D01*
X48274Y151808D01*
X48291Y151818D01*
X48358Y151897D01*
X48430Y151972D01*
X48438Y151990D01*
X48451Y152005D01*
X48490Y152101D01*
X48533Y152195D01*
X48535Y152215D01*
X48543Y152233D01*
X48561Y152400D01*
X48561Y165100D01*
X48558Y165120D01*
X48560Y165139D01*
X48538Y165241D01*
X48522Y165343D01*
X48512Y165360D01*
X48508Y165380D01*
X48455Y165469D01*
X48406Y165560D01*
X48392Y165574D01*
X48382Y165591D01*
X48303Y165658D01*
X48228Y165730D01*
X48210Y165738D01*
X48195Y165751D01*
X48099Y165790D01*
X48005Y165833D01*
X47985Y165835D01*
X47967Y165843D01*
X47800Y165861D01*
X9700Y165861D01*
X9680Y165858D01*
X9661Y165860D01*
X9559Y165838D01*
X9457Y165822D01*
X9440Y165812D01*
X9420Y165808D01*
X9331Y165755D01*
X9240Y165706D01*
X9226Y165692D01*
X9209Y165682D01*
X9142Y165603D01*
X9071Y165528D01*
X9062Y165510D01*
X9049Y165495D01*
X9010Y165399D01*
X8967Y165305D01*
X8965Y165285D01*
X8957Y165267D01*
X8939Y165100D01*
X8939Y152400D01*
X8942Y152380D01*
X8940Y152361D01*
X8962Y152259D01*
X8979Y152157D01*
X8988Y152140D01*
X8992Y152120D01*
X9045Y152031D01*
X9094Y151940D01*
X9108Y151926D01*
X9118Y151909D01*
X9197Y151842D01*
X9272Y151771D01*
X9290Y151762D01*
X9305Y151749D01*
X9401Y151710D01*
X9495Y151667D01*
X9515Y151665D01*
X9533Y151657D01*
X9700Y151639D01*
X47800Y151639D01*
X47820Y151642D01*
G37*
%LPC*%
G36*
X48607Y9175D02*
X48607Y9175D01*
X47435Y10347D01*
X47435Y27245D01*
X48607Y28417D01*
X49672Y28417D01*
X49736Y28426D01*
X49800Y28425D01*
X49875Y28446D01*
X49951Y28457D01*
X50010Y28483D01*
X50072Y28500D01*
X50138Y28541D01*
X50208Y28573D01*
X50257Y28615D01*
X50312Y28648D01*
X50364Y28706D01*
X50422Y28756D01*
X50458Y28810D01*
X50501Y28858D01*
X50534Y28927D01*
X50577Y28992D01*
X50596Y29054D01*
X50624Y29111D01*
X50635Y29181D01*
X50659Y29262D01*
X50660Y29347D01*
X50671Y29416D01*
X50671Y32700D01*
X50662Y32764D01*
X50663Y32828D01*
X50642Y32903D01*
X50631Y32979D01*
X50605Y33038D01*
X50588Y33100D01*
X50547Y33166D01*
X50515Y33236D01*
X50473Y33285D01*
X50440Y33340D01*
X50382Y33392D01*
X50332Y33450D01*
X50278Y33486D01*
X50230Y33529D01*
X50161Y33562D01*
X50096Y33605D01*
X50034Y33624D01*
X49977Y33652D01*
X49907Y33663D01*
X49826Y33687D01*
X49741Y33688D01*
X49672Y33699D01*
X48875Y33699D01*
X47703Y34871D01*
X47703Y50529D01*
X48875Y51701D01*
X60533Y51701D01*
X61705Y50529D01*
X61705Y34871D01*
X60533Y33699D01*
X59736Y33699D01*
X59672Y33690D01*
X59608Y33691D01*
X59533Y33670D01*
X59457Y33659D01*
X59398Y33633D01*
X59336Y33616D01*
X59270Y33575D01*
X59200Y33543D01*
X59151Y33501D01*
X59096Y33468D01*
X59044Y33410D01*
X58986Y33360D01*
X58950Y33306D01*
X58907Y33258D01*
X58874Y33189D01*
X58831Y33124D01*
X58812Y33062D01*
X58784Y33005D01*
X58773Y32935D01*
X58749Y32854D01*
X58748Y32769D01*
X58737Y32700D01*
X58737Y29416D01*
X58746Y29352D01*
X58745Y29288D01*
X58766Y29213D01*
X58777Y29137D01*
X58803Y29078D01*
X58820Y29016D01*
X58861Y28950D01*
X58893Y28880D01*
X58935Y28831D01*
X58968Y28776D01*
X59026Y28724D01*
X59076Y28666D01*
X59130Y28630D01*
X59178Y28587D01*
X59247Y28554D01*
X59312Y28511D01*
X59374Y28492D01*
X59431Y28464D01*
X59501Y28453D01*
X59582Y28429D01*
X59667Y28428D01*
X59736Y28417D01*
X60425Y28417D01*
X61597Y27245D01*
X61597Y10347D01*
X60425Y9175D01*
X48607Y9175D01*
G37*
%LPD*%
%LPC*%
G36*
X71147Y9175D02*
X71147Y9175D01*
X69975Y10347D01*
X69975Y27245D01*
X71147Y28417D01*
X83260Y28417D01*
X83355Y28430D01*
X83451Y28435D01*
X83494Y28450D01*
X83539Y28457D01*
X83626Y28496D01*
X83717Y28528D01*
X83752Y28553D01*
X83796Y28573D01*
X83893Y28656D01*
X83966Y28709D01*
X98472Y43215D01*
X98529Y43292D01*
X98594Y43363D01*
X98614Y43404D01*
X98641Y43440D01*
X98675Y43530D01*
X98717Y43617D01*
X98723Y43659D01*
X98740Y43704D01*
X98748Y43804D01*
X98752Y43817D01*
X98753Y43847D01*
X98764Y43921D01*
X98764Y45407D01*
X101913Y48556D01*
X106367Y48556D01*
X109516Y45407D01*
X109516Y40953D01*
X106367Y37804D01*
X104881Y37804D01*
X104786Y37791D01*
X104690Y37786D01*
X104647Y37771D01*
X104602Y37764D01*
X104515Y37725D01*
X104424Y37693D01*
X104389Y37668D01*
X104345Y37648D01*
X104248Y37565D01*
X104175Y37512D01*
X84429Y17766D01*
X84372Y17689D01*
X84307Y17618D01*
X84287Y17577D01*
X84260Y17541D01*
X84226Y17451D01*
X84184Y17364D01*
X84178Y17322D01*
X84161Y17277D01*
X84151Y17154D01*
X84149Y17146D01*
X84149Y17135D01*
X84137Y17060D01*
X84137Y10347D01*
X82965Y9175D01*
X71147Y9175D01*
G37*
%LPD*%
%LPC*%
G36*
X203147Y9175D02*
X203147Y9175D01*
X201975Y10347D01*
X201975Y27245D01*
X203147Y28417D01*
X215340Y28417D01*
X215435Y28430D01*
X215531Y28435D01*
X215574Y28450D01*
X215619Y28457D01*
X215706Y28496D01*
X215797Y28528D01*
X215832Y28553D01*
X215876Y28573D01*
X215973Y28656D01*
X216046Y28709D01*
X222932Y35595D01*
X222989Y35672D01*
X223054Y35743D01*
X223074Y35784D01*
X223101Y35820D01*
X223135Y35910D01*
X223177Y35997D01*
X223183Y36039D01*
X223200Y36084D01*
X223210Y36212D01*
X223224Y36301D01*
X223224Y37787D01*
X226373Y40936D01*
X230827Y40936D01*
X233976Y37787D01*
X233976Y33333D01*
X230827Y30184D01*
X229341Y30184D01*
X229246Y30171D01*
X229150Y30166D01*
X229107Y30151D01*
X229062Y30144D01*
X228975Y30105D01*
X228884Y30073D01*
X228849Y30048D01*
X228805Y30028D01*
X228708Y29945D01*
X228635Y29892D01*
X216429Y17686D01*
X216414Y17665D01*
X216398Y17652D01*
X216365Y17602D01*
X216307Y17538D01*
X216287Y17497D01*
X216260Y17461D01*
X216226Y17371D01*
X216184Y17284D01*
X216178Y17242D01*
X216161Y17197D01*
X216151Y17069D01*
X216137Y16980D01*
X216137Y10347D01*
X214965Y9175D01*
X203147Y9175D01*
G37*
%LPD*%
%LPC*%
G36*
X1319511Y76899D02*
X1319511Y76899D01*
X1318339Y78071D01*
X1318339Y99729D01*
X1319511Y100901D01*
X1327169Y100901D01*
X1328341Y99729D01*
X1328341Y78071D01*
X1327169Y76899D01*
X1319511Y76899D01*
G37*
%LPD*%
%LPC*%
G36*
X1306811Y76899D02*
X1306811Y76899D01*
X1305639Y78071D01*
X1305639Y99729D01*
X1306811Y100901D01*
X1314469Y100901D01*
X1315641Y99729D01*
X1315641Y78071D01*
X1314469Y76899D01*
X1306811Y76899D01*
G37*
%LPD*%
%LPC*%
G36*
X1344911Y76899D02*
X1344911Y76899D01*
X1343739Y78071D01*
X1343739Y99729D01*
X1344911Y100901D01*
X1352569Y100901D01*
X1353741Y99729D01*
X1353741Y78071D01*
X1352569Y76899D01*
X1344911Y76899D01*
G37*
%LPD*%
%LPC*%
G36*
X1332211Y76899D02*
X1332211Y76899D01*
X1331039Y78071D01*
X1331039Y99729D01*
X1332211Y100901D01*
X1339869Y100901D01*
X1341041Y99729D01*
X1341041Y78071D01*
X1339869Y76899D01*
X1332211Y76899D01*
G37*
%LPD*%
%LPC*%
G36*
X606519Y143193D02*
X606519Y143193D01*
X606519Y148815D01*
X614681Y148815D01*
X614681Y145399D01*
X614508Y144753D01*
X614173Y144174D01*
X613700Y143701D01*
X613121Y143366D01*
X612475Y143193D01*
X606519Y143193D01*
G37*
%LPD*%
%LPC*%
G36*
X596565Y143193D02*
X596565Y143193D01*
X595919Y143366D01*
X595340Y143701D01*
X594867Y144174D01*
X594532Y144753D01*
X594359Y145399D01*
X594359Y148815D01*
X602521Y148815D01*
X602521Y143193D01*
X596565Y143193D01*
G37*
%LPD*%
%LPC*%
G36*
X1362939Y90399D02*
X1362939Y90399D01*
X1362939Y101441D01*
X1364775Y101441D01*
X1365421Y101268D01*
X1366000Y100933D01*
X1366473Y100460D01*
X1366808Y99881D01*
X1366981Y99235D01*
X1366981Y90399D01*
X1362939Y90399D01*
G37*
%LPD*%
%LPC*%
G36*
X1312139Y166599D02*
X1312139Y166599D01*
X1312139Y177641D01*
X1313975Y177641D01*
X1314621Y177468D01*
X1315200Y177133D01*
X1315673Y176660D01*
X1316008Y176081D01*
X1316181Y175435D01*
X1316181Y166599D01*
X1312139Y166599D01*
G37*
%LPD*%
%LPC*%
G36*
X720319Y95479D02*
X720319Y95479D01*
X720319Y106521D01*
X722155Y106521D01*
X722801Y106348D01*
X723380Y106013D01*
X723853Y105540D01*
X724188Y104961D01*
X724361Y104315D01*
X724361Y95479D01*
X720319Y95479D01*
G37*
%LPD*%
%LPC*%
G36*
X669519Y171679D02*
X669519Y171679D01*
X669519Y182721D01*
X671355Y182721D01*
X672001Y182548D01*
X672580Y182213D01*
X673053Y181740D01*
X673388Y181161D01*
X673561Y180515D01*
X673561Y171679D01*
X669519Y171679D01*
G37*
%LPD*%
%LPC*%
G36*
X1312139Y152559D02*
X1312139Y152559D01*
X1312139Y163601D01*
X1316181Y163601D01*
X1316181Y154765D01*
X1316008Y154119D01*
X1315673Y153540D01*
X1315200Y153067D01*
X1314621Y152732D01*
X1313975Y152559D01*
X1312139Y152559D01*
G37*
%LPD*%
%LPC*%
G36*
X720319Y81439D02*
X720319Y81439D01*
X720319Y92481D01*
X724361Y92481D01*
X724361Y83645D01*
X724188Y82999D01*
X723853Y82420D01*
X723380Y81947D01*
X722801Y81612D01*
X722155Y81439D01*
X720319Y81439D01*
G37*
%LPD*%
%LPC*%
G36*
X669519Y157639D02*
X669519Y157639D01*
X669519Y168681D01*
X673561Y168681D01*
X673561Y159845D01*
X673388Y159199D01*
X673053Y158620D01*
X672580Y158147D01*
X672001Y157812D01*
X671355Y157639D01*
X669519Y157639D01*
G37*
%LPD*%
%LPC*%
G36*
X1362939Y76359D02*
X1362939Y76359D01*
X1362939Y87401D01*
X1366981Y87401D01*
X1366981Y78565D01*
X1366808Y77919D01*
X1366473Y77340D01*
X1366000Y76867D01*
X1365421Y76532D01*
X1364775Y76359D01*
X1362939Y76359D01*
G37*
%LPD*%
%LPC*%
G36*
X713279Y95479D02*
X713279Y95479D01*
X713279Y104315D01*
X713452Y104961D01*
X713787Y105540D01*
X714260Y106013D01*
X714839Y106348D01*
X715485Y106521D01*
X717321Y106521D01*
X717321Y95479D01*
X713279Y95479D01*
G37*
%LPD*%
%LPC*%
G36*
X662479Y171679D02*
X662479Y171679D01*
X662479Y180515D01*
X662652Y181161D01*
X662987Y181740D01*
X663460Y182213D01*
X664039Y182548D01*
X664685Y182721D01*
X666521Y182721D01*
X666521Y171679D01*
X662479Y171679D01*
G37*
%LPD*%
%LPC*%
G36*
X1355899Y90399D02*
X1355899Y90399D01*
X1355899Y99235D01*
X1356072Y99881D01*
X1356407Y100460D01*
X1356880Y100933D01*
X1357459Y101268D01*
X1358105Y101441D01*
X1359941Y101441D01*
X1359941Y90399D01*
X1355899Y90399D01*
G37*
%LPD*%
%LPC*%
G36*
X1305099Y166599D02*
X1305099Y166599D01*
X1305099Y175435D01*
X1305272Y176081D01*
X1305607Y176660D01*
X1306080Y177133D01*
X1306659Y177468D01*
X1307305Y177641D01*
X1309141Y177641D01*
X1309141Y166599D01*
X1305099Y166599D01*
G37*
%LPD*%
%LPC*%
G36*
X715485Y81439D02*
X715485Y81439D01*
X714839Y81612D01*
X714260Y81947D01*
X713787Y82420D01*
X713452Y82999D01*
X713279Y83645D01*
X713279Y92481D01*
X717321Y92481D01*
X717321Y81439D01*
X715485Y81439D01*
G37*
%LPD*%
%LPC*%
G36*
X1358105Y76359D02*
X1358105Y76359D01*
X1357459Y76532D01*
X1356880Y76867D01*
X1356407Y77340D01*
X1356072Y77919D01*
X1355899Y78565D01*
X1355899Y87401D01*
X1359941Y87401D01*
X1359941Y76359D01*
X1358105Y76359D01*
G37*
%LPD*%
%LPC*%
G36*
X664685Y157639D02*
X664685Y157639D01*
X664039Y157812D01*
X663460Y158147D01*
X662987Y158620D01*
X662652Y159199D01*
X662479Y159845D01*
X662479Y168681D01*
X666521Y168681D01*
X666521Y157639D01*
X664685Y157639D01*
G37*
%LPD*%
%LPC*%
G36*
X1307305Y152559D02*
X1307305Y152559D01*
X1306659Y152732D01*
X1306080Y153067D01*
X1305607Y153540D01*
X1305272Y154119D01*
X1305099Y154765D01*
X1305099Y163601D01*
X1309141Y163601D01*
X1309141Y152559D01*
X1307305Y152559D01*
G37*
%LPD*%
%LPC*%
G36*
X1003076Y45179D02*
X1003076Y45179D01*
X1003076Y52721D01*
X1006412Y52721D01*
X1007058Y52548D01*
X1007637Y52213D01*
X1008110Y51740D01*
X1008445Y51161D01*
X1008618Y50515D01*
X1008618Y45179D01*
X1003076Y45179D01*
G37*
%LPD*%
%LPC*%
G36*
X1399316Y45179D02*
X1399316Y45179D01*
X1399316Y52721D01*
X1402652Y52721D01*
X1403298Y52548D01*
X1403877Y52213D01*
X1404350Y51740D01*
X1404685Y51161D01*
X1404858Y50515D01*
X1404858Y45179D01*
X1399316Y45179D01*
G37*
%LPD*%
%LPC*%
G36*
X1531396Y45179D02*
X1531396Y45179D01*
X1531396Y52721D01*
X1534732Y52721D01*
X1535378Y52548D01*
X1535957Y52213D01*
X1536430Y51740D01*
X1536765Y51161D01*
X1536938Y50515D01*
X1536938Y45179D01*
X1531396Y45179D01*
G37*
%LPD*%
%LPC*%
G36*
X738916Y45179D02*
X738916Y45179D01*
X738916Y52721D01*
X742252Y52721D01*
X742898Y52548D01*
X743477Y52213D01*
X743950Y51740D01*
X744285Y51161D01*
X744458Y50515D01*
X744458Y45179D01*
X738916Y45179D01*
G37*
%LPD*%
%LPC*%
G36*
X474756Y45179D02*
X474756Y45179D01*
X474756Y52721D01*
X478092Y52721D01*
X478738Y52548D01*
X479317Y52213D01*
X479790Y51740D01*
X480125Y51161D01*
X480298Y50515D01*
X480298Y45179D01*
X474756Y45179D01*
G37*
%LPD*%
%LPC*%
G36*
X342676Y45179D02*
X342676Y45179D01*
X342676Y52721D01*
X346012Y52721D01*
X346658Y52548D01*
X347237Y52213D01*
X347710Y51740D01*
X348045Y51161D01*
X348218Y50515D01*
X348218Y45179D01*
X342676Y45179D01*
G37*
%LPD*%
%LPC*%
G36*
X870996Y45179D02*
X870996Y45179D01*
X870996Y52721D01*
X874332Y52721D01*
X874978Y52548D01*
X875557Y52213D01*
X876030Y51740D01*
X876365Y51161D01*
X876538Y50515D01*
X876538Y45179D01*
X870996Y45179D01*
G37*
%LPD*%
%LPC*%
G36*
X210596Y45179D02*
X210596Y45179D01*
X210596Y52721D01*
X213932Y52721D01*
X214578Y52548D01*
X215157Y52213D01*
X215630Y51740D01*
X215965Y51161D01*
X216138Y50515D01*
X216138Y45179D01*
X210596Y45179D01*
G37*
%LPD*%
%LPC*%
G36*
X77656Y44699D02*
X77656Y44699D01*
X77656Y52241D01*
X80992Y52241D01*
X81638Y52068D01*
X82217Y51733D01*
X82690Y51260D01*
X83025Y50681D01*
X83198Y50035D01*
X83198Y44699D01*
X77656Y44699D01*
G37*
%LPD*%
%LPC*%
G36*
X1135156Y45179D02*
X1135156Y45179D01*
X1135156Y52721D01*
X1138492Y52721D01*
X1139138Y52548D01*
X1139717Y52213D01*
X1140190Y51740D01*
X1140525Y51161D01*
X1140698Y50515D01*
X1140698Y45179D01*
X1135156Y45179D01*
G37*
%LPD*%
%LPC*%
G36*
X77656Y33159D02*
X77656Y33159D01*
X77656Y40701D01*
X83198Y40701D01*
X83198Y35365D01*
X83025Y34719D01*
X82690Y34140D01*
X82217Y33667D01*
X81638Y33332D01*
X80992Y33159D01*
X77656Y33159D01*
G37*
%LPD*%
%LPC*%
G36*
X342676Y33639D02*
X342676Y33639D01*
X342676Y41181D01*
X348218Y41181D01*
X348218Y35845D01*
X348045Y35199D01*
X347710Y34620D01*
X347237Y34147D01*
X346658Y33812D01*
X346012Y33639D01*
X342676Y33639D01*
G37*
%LPD*%
%LPC*%
G36*
X1003076Y33639D02*
X1003076Y33639D01*
X1003076Y41181D01*
X1008618Y41181D01*
X1008618Y35845D01*
X1008445Y35199D01*
X1008110Y34620D01*
X1007637Y34147D01*
X1007058Y33812D01*
X1006412Y33639D01*
X1003076Y33639D01*
G37*
%LPD*%
%LPC*%
G36*
X1135156Y33639D02*
X1135156Y33639D01*
X1135156Y41181D01*
X1140698Y41181D01*
X1140698Y35845D01*
X1140525Y35199D01*
X1140190Y34620D01*
X1139717Y34147D01*
X1139138Y33812D01*
X1138492Y33639D01*
X1135156Y33639D01*
G37*
%LPD*%
%LPC*%
G36*
X1399316Y33639D02*
X1399316Y33639D01*
X1399316Y41181D01*
X1404858Y41181D01*
X1404858Y35845D01*
X1404685Y35199D01*
X1404350Y34620D01*
X1403877Y34147D01*
X1403298Y33812D01*
X1402652Y33639D01*
X1399316Y33639D01*
G37*
%LPD*%
%LPC*%
G36*
X870996Y33639D02*
X870996Y33639D01*
X870996Y41181D01*
X876538Y41181D01*
X876538Y35845D01*
X876365Y35199D01*
X876030Y34620D01*
X875557Y34147D01*
X874978Y33812D01*
X874332Y33639D01*
X870996Y33639D01*
G37*
%LPD*%
%LPC*%
G36*
X1531396Y33639D02*
X1531396Y33639D01*
X1531396Y41181D01*
X1536938Y41181D01*
X1536938Y35845D01*
X1536765Y35199D01*
X1536430Y34620D01*
X1535957Y34147D01*
X1535378Y33812D01*
X1534732Y33639D01*
X1531396Y33639D01*
G37*
%LPD*%
%LPC*%
G36*
X738916Y33639D02*
X738916Y33639D01*
X738916Y41181D01*
X744458Y41181D01*
X744458Y35845D01*
X744285Y35199D01*
X743950Y34620D01*
X743477Y34147D01*
X742898Y33812D01*
X742252Y33639D01*
X738916Y33639D01*
G37*
%LPD*%
%LPC*%
G36*
X474756Y33639D02*
X474756Y33639D01*
X474756Y41181D01*
X480298Y41181D01*
X480298Y35845D01*
X480125Y35199D01*
X479790Y34620D01*
X479317Y34147D01*
X478738Y33812D01*
X478092Y33639D01*
X474756Y33639D01*
G37*
%LPD*%
%LPC*%
G36*
X210596Y33639D02*
X210596Y33639D01*
X210596Y41181D01*
X216138Y41181D01*
X216138Y35845D01*
X215965Y35199D01*
X215630Y34620D01*
X215157Y34147D01*
X214578Y33812D01*
X213932Y33639D01*
X210596Y33639D01*
G37*
%LPD*%
%LPC*%
G36*
X605976Y34899D02*
X605976Y34899D01*
X605976Y42441D01*
X611518Y42441D01*
X611518Y37105D01*
X611345Y36459D01*
X611010Y35880D01*
X610537Y35407D01*
X609958Y35072D01*
X609312Y34899D01*
X605976Y34899D01*
G37*
%LPD*%
%LPC*%
G36*
X201056Y45179D02*
X201056Y45179D01*
X201056Y50515D01*
X201229Y51161D01*
X201564Y51740D01*
X202037Y52213D01*
X202616Y52548D01*
X203262Y52721D01*
X206598Y52721D01*
X206598Y45179D01*
X201056Y45179D01*
G37*
%LPD*%
%LPC*%
G36*
X333136Y45179D02*
X333136Y45179D01*
X333136Y50515D01*
X333309Y51161D01*
X333644Y51740D01*
X334117Y52213D01*
X334696Y52548D01*
X335342Y52721D01*
X338678Y52721D01*
X338678Y45179D01*
X333136Y45179D01*
G37*
%LPD*%
%LPC*%
G36*
X1125616Y45179D02*
X1125616Y45179D01*
X1125616Y50515D01*
X1125789Y51161D01*
X1126124Y51740D01*
X1126597Y52213D01*
X1127176Y52548D01*
X1127822Y52721D01*
X1131158Y52721D01*
X1131158Y45179D01*
X1125616Y45179D01*
G37*
%LPD*%
%LPC*%
G36*
X1257696Y45179D02*
X1257696Y45179D01*
X1257696Y50515D01*
X1257869Y51161D01*
X1258204Y51740D01*
X1258677Y52213D01*
X1259256Y52548D01*
X1259902Y52721D01*
X1263238Y52721D01*
X1263238Y45179D01*
X1257696Y45179D01*
G37*
%LPD*%
%LPC*%
G36*
X68116Y44699D02*
X68116Y44699D01*
X68116Y50035D01*
X68289Y50681D01*
X68624Y51260D01*
X69097Y51733D01*
X69676Y52068D01*
X70322Y52241D01*
X73658Y52241D01*
X73658Y44699D01*
X68116Y44699D01*
G37*
%LPD*%
%LPC*%
G36*
X465216Y45179D02*
X465216Y45179D01*
X465216Y50515D01*
X465389Y51161D01*
X465724Y51740D01*
X466197Y52213D01*
X466776Y52548D01*
X467422Y52721D01*
X470758Y52721D01*
X470758Y45179D01*
X465216Y45179D01*
G37*
%LPD*%
%LPC*%
G36*
X598642Y34899D02*
X598642Y34899D01*
X597996Y35072D01*
X597417Y35407D01*
X596944Y35880D01*
X596609Y36459D01*
X596436Y37105D01*
X596436Y42441D01*
X601978Y42441D01*
X601978Y34899D01*
X598642Y34899D01*
G37*
%LPD*%
%LPC*%
G36*
X335342Y33639D02*
X335342Y33639D01*
X334696Y33812D01*
X334117Y34147D01*
X333644Y34620D01*
X333309Y35199D01*
X333136Y35845D01*
X333136Y41181D01*
X338678Y41181D01*
X338678Y33639D01*
X335342Y33639D01*
G37*
%LPD*%
%LPC*%
G36*
X70322Y33159D02*
X70322Y33159D01*
X69676Y33332D01*
X69097Y33667D01*
X68624Y34140D01*
X68289Y34719D01*
X68116Y35365D01*
X68116Y40701D01*
X73658Y40701D01*
X73658Y33159D01*
X70322Y33159D01*
G37*
%LPD*%
%LPC*%
G36*
X203262Y33639D02*
X203262Y33639D01*
X202616Y33812D01*
X202037Y34147D01*
X201564Y34620D01*
X201229Y35199D01*
X201056Y35845D01*
X201056Y41181D01*
X206598Y41181D01*
X206598Y33639D01*
X203262Y33639D01*
G37*
%LPD*%
%LPC*%
G36*
X467422Y33639D02*
X467422Y33639D01*
X466776Y33812D01*
X466197Y34147D01*
X465724Y34620D01*
X465389Y35199D01*
X465216Y35845D01*
X465216Y41181D01*
X470758Y41181D01*
X470758Y33639D01*
X467422Y33639D01*
G37*
%LPD*%
%LPC*%
G36*
X1259902Y33639D02*
X1259902Y33639D01*
X1259256Y33812D01*
X1258677Y34147D01*
X1258204Y34620D01*
X1257869Y35199D01*
X1257696Y35845D01*
X1257696Y41181D01*
X1263238Y41181D01*
X1263238Y33639D01*
X1259902Y33639D01*
G37*
%LPD*%
%LPC*%
G36*
X1127822Y33639D02*
X1127822Y33639D01*
X1127176Y33812D01*
X1126597Y34147D01*
X1126124Y34620D01*
X1125789Y35199D01*
X1125616Y35845D01*
X1125616Y41181D01*
X1131158Y41181D01*
X1131158Y33639D01*
X1127822Y33639D01*
G37*
%LPD*%
%LPC*%
G36*
X472756Y43179D02*
X472756Y43179D01*
X472756Y43181D01*
X472758Y43181D01*
X472758Y43179D01*
X472756Y43179D01*
G37*
%LPD*%
%LPC*%
G36*
X75656Y42699D02*
X75656Y42699D01*
X75656Y42701D01*
X75658Y42701D01*
X75658Y42699D01*
X75656Y42699D01*
G37*
%LPD*%
%LPC*%
G36*
X1133156Y43179D02*
X1133156Y43179D01*
X1133156Y43181D01*
X1133158Y43181D01*
X1133158Y43179D01*
X1133156Y43179D01*
G37*
%LPD*%
%LPC*%
G36*
X340676Y43179D02*
X340676Y43179D01*
X340676Y43181D01*
X340678Y43181D01*
X340678Y43179D01*
X340676Y43179D01*
G37*
%LPD*%
%LPC*%
G36*
X208596Y43179D02*
X208596Y43179D01*
X208596Y43181D01*
X208598Y43181D01*
X208598Y43179D01*
X208596Y43179D01*
G37*
%LPD*%
D10*
X54516Y18796D03*
X77056Y18796D03*
X1242516Y18796D03*
X1265056Y18796D03*
X1374516Y18796D03*
X1397056Y18796D03*
X1506516Y18796D03*
X1529056Y18796D03*
X186516Y18796D03*
X209056Y18796D03*
X318516Y18796D03*
X341056Y18796D03*
X450516Y18796D03*
X473056Y18796D03*
X582516Y18796D03*
X605056Y18796D03*
X714516Y18796D03*
X737056Y18796D03*
X846516Y18796D03*
X869056Y18796D03*
X978516Y18796D03*
X1001056Y18796D03*
X1110516Y18796D03*
X1133056Y18796D03*
D11*
X629920Y93980D03*
X642620Y93980D03*
X655320Y93980D03*
X668020Y93980D03*
X680720Y93980D03*
X693420Y93980D03*
X706120Y93980D03*
X718820Y93980D03*
X718820Y170180D03*
X706120Y170180D03*
X693420Y170180D03*
X680720Y170180D03*
X668020Y170180D03*
X655320Y170180D03*
X642620Y170180D03*
X629920Y170180D03*
X1272540Y88900D03*
X1285240Y88900D03*
X1297940Y88900D03*
X1310640Y88900D03*
X1323340Y88900D03*
X1336040Y88900D03*
X1348740Y88900D03*
X1361440Y88900D03*
X1361440Y165100D03*
X1348740Y165100D03*
X1336040Y165100D03*
X1323340Y165100D03*
X1310640Y165100D03*
X1297940Y165100D03*
X1285240Y165100D03*
X1272540Y165100D03*
D12*
X736917Y43180D03*
X715964Y43180D03*
X868997Y43180D03*
X848044Y43180D03*
X1001077Y43180D03*
X980124Y43180D03*
X1133157Y43180D03*
X1112204Y43180D03*
X1397317Y43180D03*
X1376364Y43180D03*
X1265237Y43180D03*
X1244284Y43180D03*
X1529397Y43180D03*
X1508444Y43180D03*
X208597Y43180D03*
X187644Y43180D03*
X340677Y43180D03*
X319724Y43180D03*
X472757Y43180D03*
X451804Y43180D03*
X75657Y42700D03*
X54704Y42700D03*
X603977Y44440D03*
X583024Y44440D03*
D13*
X604520Y169227D03*
X604520Y150814D03*
D14*
X383540Y40640D03*
X391160Y40640D03*
X383540Y33020D03*
X391160Y33020D03*
X398780Y33020D03*
X398780Y40640D03*
X137160Y35560D03*
X144780Y35560D03*
X152400Y35560D03*
X137160Y27940D03*
X144780Y27940D03*
X152400Y27940D03*
X287020Y27940D03*
X294640Y27940D03*
X302260Y27940D03*
X287020Y35560D03*
X294640Y35560D03*
X302260Y35560D03*
X513080Y33020D03*
X520700Y33020D03*
X528320Y33020D03*
X513080Y40640D03*
X520700Y40640D03*
X528320Y40640D03*
X632460Y40640D03*
X640080Y40640D03*
X647700Y40640D03*
X632460Y33020D03*
X640080Y33020D03*
X647700Y33020D03*
X767080Y40640D03*
X774700Y40640D03*
X782320Y40640D03*
X767080Y33020D03*
X774700Y33020D03*
X782320Y33020D03*
X906780Y40640D03*
X914400Y40640D03*
X922020Y40640D03*
X906780Y33020D03*
X914400Y33020D03*
X922020Y33020D03*
X1033780Y40640D03*
X1041400Y40640D03*
X1049020Y40640D03*
X1056640Y40640D03*
X1033780Y33020D03*
X1041400Y33020D03*
X1049020Y33020D03*
X1056640Y33020D03*
X1432560Y40640D03*
X1440180Y40640D03*
X1447800Y40640D03*
X1432560Y33020D03*
X1440180Y33020D03*
X1447800Y33020D03*
X1201420Y40640D03*
X1209040Y40640D03*
X1216660Y40640D03*
X1201420Y33020D03*
X1209040Y33020D03*
X1216660Y33020D03*
X1303020Y134620D03*
X1295400Y134620D03*
X1287780Y134620D03*
X1310640Y142240D03*
X1280160Y134620D03*
X736600Y162560D03*
X1262380Y165100D03*
X1549400Y40640D03*
X1549400Y33020D03*
X1557020Y40640D03*
X1557020Y33020D03*
X1272540Y134620D03*
X1264920Y134620D03*
X1257300Y134620D03*
X731520Y134620D03*
X739140Y134620D03*
X746760Y134620D03*
X680720Y121920D03*
X695960Y121920D03*
X688340Y121920D03*
X688340Y129540D03*
X1285240Y119380D03*
X1292860Y119380D03*
X1300480Y119380D03*
X568960Y116840D03*
X568960Y109220D03*
X568960Y101600D03*
X576580Y101600D03*
X576580Y109220D03*
X576580Y116840D03*
X584200Y116840D03*
X584200Y109220D03*
X657860Y144780D03*
X665480Y144780D03*
X673100Y144780D03*
X665480Y152400D03*
X701040Y142240D03*
X708660Y134620D03*
X716280Y127000D03*
X1386840Y96520D03*
X1386840Y88900D03*
X1386840Y81280D03*
X1394460Y81280D03*
X1394460Y88900D03*
X1394460Y96520D03*
X1402080Y96520D03*
X1402080Y88900D03*
X1402080Y81280D03*
X12700Y116840D03*
X12700Y109220D03*
X12700Y101600D03*
X12700Y93980D03*
X12700Y86360D03*
X12700Y78740D03*
X12700Y71120D03*
X12700Y63500D03*
X12700Y55880D03*
X20320Y116840D03*
X20320Y109220D03*
X20320Y101600D03*
X20320Y93980D03*
X20320Y86360D03*
X20320Y78740D03*
X20320Y71120D03*
X20320Y63500D03*
X20320Y55880D03*
X78740Y144780D03*
X86360Y144780D03*
X93980Y144780D03*
X101600Y144780D03*
X109220Y144780D03*
X116840Y144780D03*
X124460Y144780D03*
X78740Y170180D03*
X86360Y170180D03*
X93980Y170180D03*
X568960Y170180D03*
X576580Y170180D03*
X584200Y170180D03*
X568960Y144780D03*
X576580Y144780D03*
X584200Y144780D03*
X561340Y144780D03*
X553720Y144780D03*
X546100Y144780D03*
X744220Y101600D03*
X744220Y93980D03*
X744220Y86360D03*
X1198880Y93980D03*
X1206500Y93980D03*
X1214120Y93980D03*
X1198880Y86360D03*
X1206500Y86360D03*
X1198880Y78740D03*
D15*
X1348740Y165100D02*
X1348740Y184252D01*
X1346200Y186792D01*
X1277976Y186792D01*
X1273556Y186792D01*
X1267104Y186792D01*
D14*
X733552Y186058D03*
X744220Y185928D03*
D15*
X640588Y191516D02*
X629920Y180848D01*
X1272540Y181356D02*
X1272540Y165100D01*
X1272540Y181356D02*
X1272540Y185776D01*
X1273556Y186792D01*
X1277976Y186792D02*
X1272540Y181356D01*
X1267104Y186792D01*
X1346200Y186792D02*
X1351280Y186792D01*
X1453568Y186792D01*
X1351280Y186792D02*
X1348740Y184252D01*
X1267104Y186792D02*
X745084Y186792D01*
X744220Y185928D01*
D16*
X706120Y182880D02*
X706120Y170180D01*
D15*
X709298Y186058D02*
X733552Y186058D01*
D16*
X708025Y184785D02*
X706120Y182880D01*
D15*
X708025Y184785D02*
X709298Y186058D01*
X708025Y184785D02*
X701294Y191516D01*
X640588Y191516D01*
X609600Y180848D02*
X604520Y180848D01*
X599440Y180848D01*
X32512Y180848D01*
X27940Y185420D01*
D16*
X604520Y177800D02*
X604520Y169227D01*
X604520Y177800D02*
X604520Y180848D01*
X604520Y177800D02*
X607568Y180848D01*
X609600Y180848D01*
X601472Y180848D02*
X599440Y180848D01*
X601472Y180848D02*
X604520Y177800D01*
D15*
X609600Y180848D02*
X629920Y180848D01*
X629920Y170180D01*
X733552Y186058D02*
X744090Y186058D01*
X744220Y185928D01*
D17*
X187644Y43180D02*
X187644Y18796D01*
X186516Y18796D01*
X319724Y18796D02*
X319724Y43180D01*
X319724Y18796D02*
X318516Y18796D01*
X451804Y18796D02*
X451804Y43180D01*
X451804Y18796D02*
X450516Y18796D01*
X715964Y18796D02*
X715964Y43180D01*
X715964Y18796D02*
X714516Y18796D01*
X848044Y18796D02*
X848044Y43180D01*
X848044Y18796D02*
X846516Y18796D01*
X980124Y18796D02*
X980124Y43180D01*
X980124Y18796D02*
X978516Y18796D01*
X1112204Y18796D02*
X1112204Y43180D01*
X1112204Y18796D02*
X1110516Y18796D01*
X1244284Y18796D02*
X1244284Y43180D01*
X1244284Y18796D02*
X1242516Y18796D01*
X1376364Y18796D02*
X1376364Y43180D01*
X1376364Y18796D02*
X1374516Y18796D01*
X1508444Y18796D02*
X1508444Y43180D01*
X1508444Y18796D02*
X1506516Y18796D01*
D18*
X1297940Y146812D02*
X1297940Y165100D01*
X727456Y141732D02*
X718312Y150876D01*
X718312Y169672D01*
X718820Y170180D01*
X1292860Y141732D02*
X1297940Y146812D01*
X1292860Y141732D02*
X727456Y141732D01*
D15*
X1361440Y152400D02*
X1361440Y165100D01*
X1361440Y152400D02*
X1363980Y149860D01*
X1391920Y149860D02*
X1399540Y157480D01*
X1457480Y157480D01*
X1391920Y149860D02*
X1363980Y149860D01*
D17*
X54704Y42700D02*
X54704Y18796D01*
X54516Y18796D01*
X583024Y18796D02*
X583024Y44440D01*
X583024Y18796D02*
X582516Y18796D01*
X79756Y18796D02*
X77056Y18796D01*
X79756Y18796D02*
X104140Y43180D01*
D14*
X104140Y43180D03*
D18*
X642620Y153844D02*
X642620Y170180D01*
D19*
X642620Y153844D03*
D17*
X211836Y18796D02*
X209056Y18796D01*
X211836Y18796D02*
X228600Y35560D01*
D14*
X228600Y35560D03*
X619760Y78740D03*
D17*
X629920Y88900D01*
X629920Y93980D01*
X407924Y18796D02*
X341056Y18796D01*
X637540Y68580D02*
X642620Y73660D01*
X642620Y93980D01*
X457708Y68580D02*
X407924Y18796D01*
X457708Y68580D02*
X637540Y68580D01*
X557276Y18796D02*
X473056Y18796D01*
X568960Y30480D02*
X568960Y50800D01*
X576580Y58420D01*
X655320Y68580D02*
X655320Y93980D01*
X568960Y30480D02*
X557276Y18796D01*
X576580Y58420D02*
X645160Y58420D01*
X655320Y68580D01*
X605056Y18796D02*
X606072Y17780D01*
X668020Y30480D02*
X668020Y93980D01*
X655320Y17780D02*
X606072Y17780D01*
X655320Y17780D02*
X668020Y30480D01*
X680720Y81280D02*
X680720Y93980D01*
X706120Y55880D02*
X721360Y55880D01*
X726440Y50800D01*
X726440Y27940D01*
X735584Y18796D01*
X737056Y18796D01*
X706120Y55880D02*
X680720Y81280D01*
X693420Y78740D02*
X693420Y93980D01*
X693420Y78740D02*
X708660Y63500D01*
X858520Y29332D02*
X869056Y18796D01*
X848360Y63500D02*
X708660Y63500D01*
X848360Y63500D02*
X858520Y53340D01*
X858520Y29332D01*
X706120Y76200D02*
X706120Y93980D01*
X990600Y55880D02*
X990600Y27940D01*
X999744Y18796D01*
X1001056Y18796D01*
X712216Y70104D02*
X706120Y76200D01*
X712216Y70104D02*
X976376Y70104D01*
X990600Y55880D01*
X1133056Y18796D02*
X1154176Y18796D01*
D19*
X1257808Y90424D03*
X1257300Y152400D03*
D17*
X1262412Y147288D01*
X1285240Y154940D02*
X1285240Y165100D01*
X1277588Y147288D02*
X1262412Y147288D01*
X1277588Y147288D02*
X1285240Y154940D01*
D18*
X1162050Y18796D02*
X1154176Y18796D01*
X1233678Y90424D02*
X1257808Y90424D01*
X1233678Y90424D02*
X1162050Y18796D01*
D17*
X1272540Y59002D02*
X1276333Y55209D01*
X1276333Y30073D01*
X1265056Y18796D01*
X1272540Y59002D02*
X1272540Y88900D01*
X1285240Y88900D02*
X1285240Y68580D01*
X1379677Y58420D02*
X1386840Y51257D01*
X1386840Y29012D02*
X1397056Y18796D01*
X1295400Y58420D02*
X1285240Y68580D01*
X1295400Y58420D02*
X1379677Y58420D01*
X1386840Y51257D02*
X1386840Y29012D01*
X1297940Y73152D02*
X1297940Y88900D01*
X1297940Y73152D02*
X1306576Y64516D01*
X1518920Y53340D02*
X1518920Y27940D01*
X1528064Y18796D01*
X1529056Y18796D01*
X1507744Y64516D02*
X1306576Y64516D01*
X1507744Y64516D02*
X1518920Y53340D01*
D18*
X655320Y154940D02*
X655320Y170180D01*
X655320Y154940D02*
X647700Y147320D01*
X629920Y147320D02*
X617220Y160020D01*
X27940Y160020D01*
X629920Y147320D02*
X647700Y147320D01*
X693420Y147293D02*
X693420Y170180D01*
X686462Y140335D02*
X673159Y127032D01*
X686462Y140335D02*
X688100Y141973D01*
X689737Y143610D01*
X693420Y147293D01*
X1334944Y164004D02*
X1336040Y165100D01*
X1334944Y164004D02*
X1334944Y142028D01*
X1334328Y141412D01*
X717591Y112481D02*
X689737Y140335D01*
X688100Y141973D01*
X717591Y112481D02*
X1305397Y112481D01*
X689737Y140335D02*
X689737Y143610D01*
X689737Y140335D02*
X686462Y140335D01*
D14*
X1334328Y141412D03*
D18*
X1305397Y112481D01*
X673159Y127032D02*
X71152Y127032D01*
X66040Y121920D01*
D19*
X66040Y121920D03*
D18*
X680720Y142240D02*
X680720Y170180D01*
X680720Y142240D02*
X670560Y132080D01*
D20*
X1323340Y137563D02*
X1323340Y165100D01*
X1323340Y137563D02*
X1313498Y127721D01*
X729022Y127721D01*
X680720Y170180D02*
X680720Y180086D01*
X696821Y184404D02*
X699850Y181375D01*
X699850Y156893D01*
X729022Y127721D01*
X680720Y180086D02*
X685038Y184404D01*
X696821Y184404D01*
X1323340Y175260D02*
X1323340Y165100D01*
X1351280Y144936D02*
X1351280Y144780D01*
X1342422Y176343D02*
X1340395Y178370D01*
X1342422Y176343D02*
X1342422Y153794D01*
X1351280Y144936D01*
X1351280Y144780D02*
X1361440Y134620D01*
X1457480Y134620D01*
X1326450Y178370D02*
X1323340Y175260D01*
X1326450Y178370D02*
X1340395Y178370D01*
D18*
X670560Y132080D02*
X27940Y132080D01*
M02*
